<svg id="Capa_1" data-name="Capa 1" xmlns="http://www.w3.org/2000/svg" viewBox="0 0 83.31 55.4"><defs><style>.cls-1{fill:#d7a87e;}.cls-2{fill:#c99d77;}.cls-3{fill:#e8b487;}.cls-10,.cls-4{fill:#fff;}.cls-5{fill:#757474;}.cls-6,.cls-9{fill:#0c0603;}.cls-7{fill:#171110;}.cls-10,.cls-11,.cls-12,.cls-13,.cls-7,.cls-9{fill-rule:evenodd;}.cls-8{fill:#3a3035;}.cls-11{fill:#1d1d1b;}.cls-12{fill:#c6c6c6;}.cls-13{fill:#dadada;}.cls-14{fill:#dcdcdc;}.cls-15{fill:#b7b6b6;}.cls-16{fill:#020000;}.cls-17{fill:#4f2d20;}.cls-18{fill:#311b0e;}.cls-19{fill:#402518;}.cls-20{fill:#e9a938;}.cls-21{fill:#69a046;}.cls-22{fill:#2d2527;}.cls-23{fill:#140e0c;}</style></defs><path class="cls-1" d="M634.56,173.8s-.92-.43-4.64-.18h-4.31a.59.59,0,0,0-.59.59.6.6,0,0,0,.59.59h.19a.58.58,0,0,0,.48.24h4.63c.13,0,.06.05-.48.12l.05,0-.57.06a.58.58,0,0,0-.52.65.59.59,0,0,0,.65.53l4.79-.52a2.77,2.77,0,0,1,.65,0c.67.15.82-1.15.82-1.15Z" transform="translate(-601.96 -153.6)"/><path class="cls-1" d="M647.27,177.36a3.19,3.19,0,0,1-.82.29c-1.56.44-5.75-.11-9.16-1.23-2.41-.8-2.67-.5-2.67-.5l-.33-2.19s-.66.15,4.24.08a52,52,0,0,1,9.73.81C649.06,174.94,647.86,177.09,647.27,177.36Z" transform="translate(-601.96 -153.6)"/><path class="cls-1" d="M646.45,177.65c-1-.12-.83-3.1.8-3.17,4.1.25,21.26-2.09,21.94,2.11,0,0,.36,2.57-4,2.43-3.11-.1-8.66-.33-10.87-.6C652.75,178.23,647.79,177.65,646.45,177.65Z" transform="translate(-601.96 -153.6)"/><path class="cls-2" d="M628.07,181.15c0,.35-.25-1-.73,1.16a26,26,0,0,1-5.66,10.93,60.3,60.3,0,0,0-6.48,8.42l-3.12-.3s1.68-3.87,4.82-10.07c3.64-7.17,5.63-13.1,7.41-15.58C625.21,175,628.06,180.27,628.07,181.15Z" transform="translate(-601.96 -153.6)"/><path class="cls-3" d="M623.69,177.57c-.39-2.73,4.38-5,6.32-3.54a28.14,28.14,0,0,1,4.41,3.78c6.22,5.75,12.74,10.33,17.66,18.21,0,0-8.62,8.39-11.17,3.19-3.3-6.7-8.21-11.18-10.68-14.92A31.62,31.62,0,0,0,623.69,177.57Z" transform="translate(-601.96 -153.6)"/><path class="cls-2" d="M616.27,200.05a5.16,5.16,0,0,0-.93,3.84c.27,1.91-3.84,1.45-4,2.41,0,0-7.12.5-6.69-1.5.26-1.19,2.61-1.81,5.31-2.36,2.07-.42,3.4-3.92,3.4-3.92Z" transform="translate(-601.96 -153.6)"/><path class="cls-3" d="M615,205.26a2.67,2.67,0,1,1-1-3.63A2.66,2.66,0,0,1,615,205.26Z" transform="translate(-601.96 -153.6)"/><path class="cls-4" d="M612.13,201.3l.3-1.14s2.44.56,3.8-.08l.43.77S615.25,202.69,612.13,201.3Z" transform="translate(-601.96 -153.6)"/><path class="cls-5" d="M618.43,205.61c0,.61,0,1.2-3.6,1.33a46.12,46.12,0,0,0-5,.24,13.25,13.25,0,0,1-6.26-.41c-.86-.32-1.6-.65-1.63-.88v-.11c0,.12,0,.24,0,.31,0,.24.77.57,1.64.89a14.59,14.59,0,0,0,6.2.47c2.23-.18,3.75-.25,5-.3,3.67-.14,3.63-.76,3.59-1.38A.92.92,0,0,0,618.43,205.61Z" transform="translate(-601.96 -153.6)"/><path class="cls-6" d="M617.66,199.57c-.13,0-.27.09-.37.36a1.94,1.94,0,0,0-.11.91h0a1.35,1.35,0,0,0-.05.5h.18a1.57,1.57,0,0,1,.21-.86,2.65,2.65,0,0,0,.18-.42C617.85,199.68,617.72,199.59,617.66,199.57Zm-.11.42a2.09,2.09,0,0,1-.17.4l0,.07a1.66,1.66,0,0,1,.1-.46.77.77,0,0,1,.14-.25A.51.51,0,0,1,617.55,200Z" transform="translate(-601.96 -153.6)"/><path class="cls-7" d="M615.14,205.62a22.15,22.15,0,0,0-2.46.47,33.53,33.53,0,0,1-4,.58,31.4,31.4,0,0,1-3.91-.16,10.6,10.6,0,0,1-2.63-.65l-.11-.37a1.18,1.18,0,0,1,.37-.49,16.19,16.19,0,0,1,2.44-.93,10.09,10.09,0,0,0,3.7-1.89c1-.82,2.26-1.59,2.61-1.5s1,.49,2.23.84c2.45.7,1.16.76,2.9,0,.78-.33.77-1.29.84-1.09a2.28,2.28,0,0,0,.43,1.33,4.55,4.55,0,0,1,.66,3.08A8,8,0,0,1,615.14,205.62Z" transform="translate(-601.96 -153.6)"/><path class="cls-7" d="M612.7,199.76c-.26-.33-.24-.7-.62-1-.2-.14-.67.07-1.26,1.14a6.09,6.09,0,0,1-1.58,1.66h.06a12.2,12.2,0,0,1-2.64,1.61l.13.27c1.54-.82,2.92-1.64,3.88-2.24.42-.17,1.09.06,1.35-.1C612.81,200.67,612.87,200,612.7,199.76Z" transform="translate(-601.96 -153.6)"/><path class="cls-7" d="M602.25,205.64a.57.57,0,0,0,.43.43l.2.06h0l.21.07h0l.23.06h0l.25.06h0l.26,0h0l.27.05h0l.26,0h0l.28,0a21.82,21.82,0,0,0,7.95-.42c.87-.18,4.79-.58,5.55-1.07,0-.1-.07-.48-.07-.57a7.92,7.92,0,0,1-.7.53c-1.12.6-4.7.85-5.93,1.1a17.2,17.2,0,0,1-7.47-.11s-1.58-.48-.48-1.07c.95-.52,3.21-1.43,3.21-1.43l0-.31c-3.25,1.55-3.47.9-4.26,1.45-.13.09-.49.45-.47.76C602.08,205.37,602.2,205.45,602.25,205.64Z" transform="translate(-601.96 -153.6)"/><path class="cls-6" d="M618.19,204.53a4,4,0,0,0-.68-2.73.86.86,0,0,1-.07-.1c-.17,0-.25.18,0,.55a6.47,6.47,0,0,1,.62,2.36Z" transform="translate(-601.96 -153.6)"/><path class="cls-7" d="M606.61,204.2s.72-.95-.37-.67c-.4.1-3.7,1.33-3.41,1.86.18.34.09.37.82.67a12,12,0,0,0,3.49.35c-1.35-.31-1.13-.86-.31-1.59a8.28,8.28,0,0,1,1.17-.94Z" transform="translate(-601.96 -153.6)"/><path class="cls-8" d="M607.62,204s3.57,2.48.72,2.5c0,0,2,.09,2.48-.28s-.16-1.64-2-2.93Z" transform="translate(-601.96 -153.6)"/><path class="cls-8" d="M609.16,202.93s3.72,2.84,1.66,3.31c0,0,1.59,0,1.95-.41.73-.88-.57-2.32-2.39-3.61Z" transform="translate(-601.96 -153.6)"/><path class="cls-8" d="M610.72,202s4.44,3.36,2.15,3.94c0,0,2,0,2.35-.4s-2-2.56.38-3.62c.46-.22-3.23-.24-3.91-.73Z" transform="translate(-601.96 -153.6)"/><path class="cls-9" d="M617.72,202.11a2.11,2.11,0,0,0-.21-.31l0-.07a3.41,3.41,0,0,1-.25-1.22c0-1.31-.62-.57-.67-.37-.1.45-.07,1.45-2,1.42a6,6,0,0,1-2.93-.77c-.55-.32-.77-.31-.84-.29A7.4,7.4,0,0,0,609,202a16.17,16.17,0,0,1-3,1.84,1.35,1.35,0,0,0,1.4.39h0l.08,0h0l.1,0h0l.08,0,.1-.05c1.13-.64,2.93-1.93,3.37-2.19a3.2,3.2,0,0,1,2,0c2,.55,2.22,0,3.44.33.43.12,1,.63,1.41,1.7,0,0-.07-1-.06-1s-.48-.67-.47-.67h0l.05,0h0l0,0h0A.34.34,0,0,0,617.72,202.11Z" transform="translate(-601.96 -153.6)"/><path class="cls-10" d="M611,201a.18.18,0,0,0,.36,0,.18.18,0,1,0-.36,0Z" transform="translate(-601.96 -153.6)"/><path class="cls-11" d="M611,201a.13.13,0,0,0,.15.13.15.15,0,0,0,.14-.15.16.16,0,0,0-.16-.14A.15.15,0,0,0,611,201Z" transform="translate(-601.96 -153.6)"/><path class="cls-12" d="M611.08,201.16s-.85.07-1-.27c0,0,0-.22.15-.13.35.23.46.12.95.09C611.16,200.85,611.36,201.09,611.08,201.16Z" transform="translate(-601.96 -153.6)"/><path class="cls-10" d="M610,201.88a.2.2,0,0,0,.18.2.19.19,0,0,0,.19-.18.17.17,0,0,0-.17-.19A.19.19,0,0,0,610,201.88Z" transform="translate(-601.96 -153.6)"/><path class="cls-11" d="M610.07,201.88a.15.15,0,0,0,.14.16.15.15,0,0,0,.15-.14.13.13,0,0,0-.13-.15A.15.15,0,0,0,610.07,201.88Z" transform="translate(-601.96 -153.6)"/><path class="cls-12" d="M610.12,202s-.86,0-1-.38c0,0,0-.21.16-.11.32.27.44.17.94.2C610.23,201.75,610.4,202,610.12,202Z" transform="translate(-601.96 -153.6)"/><path class="cls-10" d="M609,202.61a.18.18,0,0,0,.15.21.18.18,0,1,0,.06-.36A.18.18,0,0,0,609,202.61Z" transform="translate(-601.96 -153.6)"/><path class="cls-11" d="M609.08,202.61a.14.14,0,0,0,.12.17.15.15,0,0,0,.17-.12.16.16,0,0,0-.12-.17A.16.16,0,0,0,609.08,202.61Z" transform="translate(-601.96 -153.6)"/><path class="cls-12" d="M609.1,202.78s-.82-.12-.91-.49c0,0,.07-.2.17-.09.29.3.4.2.89.29C609.25,202.49,609.39,202.77,609.1,202.78Z" transform="translate(-601.96 -153.6)"/><path class="cls-10" d="M608,203.24a.18.18,0,1,0,.23-.11A.17.17,0,0,0,608,203.24Z" transform="translate(-601.96 -153.6)"/><path class="cls-11" d="M608,203.25a.16.16,0,0,0,.09.19.15.15,0,1,0-.09-.19Z" transform="translate(-601.96 -153.6)"/><path class="cls-12" d="M608,203.42s-.72-.19-.75-.57c0,0,.11-.19.19-.07.23.36.28.21.75.38C608.2,203.16,608.29,203.46,608,203.42Z" transform="translate(-601.96 -153.6)"/><path class="cls-10" d="M610.56,201.43a.19.19,0,0,0,.2.17.17.17,0,0,0,.17-.19.19.19,0,0,0-.2-.18A.19.19,0,0,0,610.56,201.43Z" transform="translate(-601.96 -153.6)"/><path class="cls-11" d="M610.6,201.43a.13.13,0,0,0,.15.13.14.14,0,0,0,.14-.15.15.15,0,0,0-.15-.14A.15.15,0,0,0,610.6,201.43Z" transform="translate(-601.96 -153.6)"/><path class="cls-10" d="M610.4,200.63s-.55.15-.07.63c.3.3.39.24.43.17s.09-.11-.15-.25S610.28,200.67,610.4,200.63Z" transform="translate(-601.96 -153.6)"/><path class="cls-10" d="M609.56,202.25a.2.2,0,0,0,.18.2.19.19,0,0,0,.19-.18.17.17,0,0,0-.17-.19A.19.19,0,0,0,609.56,202.25Z" transform="translate(-601.96 -153.6)"/><path class="cls-11" d="M609.6,202.26a.15.15,0,0,0,.14.15.16.16,0,0,0,.16-.14.15.15,0,0,0-.3,0Z" transform="translate(-601.96 -153.6)"/><path class="cls-10" d="M609.49,201.41s-.56.12-.14.65c.27.33.37.28.41.22s.11-.11-.12-.27S609.37,201.43,609.49,201.41Z" transform="translate(-601.96 -153.6)"/><path class="cls-10" d="M608.53,202.92a.18.18,0,0,0,.15.21.18.18,0,0,0,.06-.36A.18.18,0,0,0,608.53,202.92Z" transform="translate(-601.96 -153.6)"/><path class="cls-11" d="M608.57,202.92a.14.14,0,0,0,.12.17.15.15,0,0,0,.17-.12.14.14,0,0,0-.12-.16A.14.14,0,0,0,608.57,202.92Z" transform="translate(-601.96 -153.6)"/><path class="cls-10" d="M608.58,202.12s-.6,0-.24.58c.22.36.33.32.38.26s.12-.08-.09-.27S608.46,202.12,608.58,202.12Z" transform="translate(-601.96 -153.6)"/><path class="cls-10" d="M607.42,203.46a.19.19,0,0,0,.11.23.18.18,0,1,0-.11-.23Z" transform="translate(-601.96 -153.6)"/><path class="cls-11" d="M607.46,203.47a.14.14,0,0,0,.09.19.15.15,0,0,0,.18-.09.14.14,0,0,0-.09-.19A.13.13,0,0,0,607.46,203.47Z" transform="translate(-601.96 -153.6)"/><path class="cls-10" d="M607.67,202.69s-.65-.11-.4.52c.16.39.27.37.33.32s.13-.06,0-.28S607.55,202.67,607.67,202.69Z" transform="translate(-601.96 -153.6)"/><path class="cls-12" d="M610.42,200.75s1.69-.77,1.11-1.56-1.1,1-1.15,1.47l.11,0s.27-1.17.62-1.34.39.16.32.31a3,3,0,0,1-.77,1s-.18,0-.21.06S610.47,200.72,610.42,200.75Z" transform="translate(-601.96 -153.6)"/><path class="cls-12" d="M610.59,200.5s.29-1.21-.31-1.62-1,0-.42.93l.56.94.12-.12a6,6,0,0,1-.58-1c-.14-.37-.25-.78,0-.63s.47.3.5.92c0,.29-.06.56,0,.68s.09.12.09.12Z" transform="translate(-601.96 -153.6)"/><path class="cls-13" d="M610.34,200.69a1.87,1.87,0,0,1-.63.19,1.4,1.4,0,0,0-.84.62s-.12.06-.12.06-.08-.07,0-.26a.86.86,0,0,1,.92-.59,2.07,2.07,0,0,0,.86-.13S610.71,200.69,610.34,200.69Z" transform="translate(-601.96 -153.6)"/><path class="cls-13" d="M610.57,200.56a7.38,7.38,0,0,1-.91.53c-.34.16-.73.6-.94.63s-.14.2-.14.2.13.07.69-.42a4.19,4.19,0,0,1,1-.64C610.5,200.71,610.59,200.69,610.57,200.56Z" transform="translate(-601.96 -153.6)"/><path class="cls-14" d="M618.34,205.06a3.92,3.92,0,0,1-.18-.61,17.1,17.1,0,0,1-5.35,1.44c-1.12.11-2.91.43-4.2.5a33.29,33.29,0,0,1-3.81,0,11.55,11.55,0,0,1-2.09-.43.52.52,0,0,1-.37-.52c0-.31-.12-.61-.29-.29a2.23,2.23,0,0,0-.08.87c0,.23.77.56,1.64.88a14.93,14.93,0,0,0,6.24.48c2.21-.19,3.71-.26,5-.31,3.67-.13,3.63-.76,3.59-1.38A2.21,2.21,0,0,0,618.34,205.06Z" transform="translate(-601.96 -153.6)"/><path class="cls-15" d="M617.49,205.5a21.2,21.2,0,0,1-3.25.76c-1.55.1-.56.38,1,.44C618,206.8,618.5,205.39,617.49,205.5Z" transform="translate(-601.96 -153.6)"/><path class="cls-15" d="M607.75,207.26a11.29,11.29,0,0,1-4.61-.69l1.84.2C607.74,207.08,608.06,206.45,607.75,207.26Z" transform="translate(-601.96 -153.6)"/><path class="cls-16" d="M634.42,177.81A28.14,28.14,0,0,0,630,174c-1.69-1.24-5.54.3-6.23,2.53-1.66,2.83-3.6,8.27-6.88,14.73-1.23,2.43-1.47,2.88-2.24,4.51l3.51,1.62a51.59,51.59,0,0,1,3.51-4.18,26,26,0,0,0,5.66-10.93,3.72,3.72,0,0,1,.36-1.12,23.22,23.22,0,0,1,2.53,3.1c2.47,3.74,6.81,8.88,10.11,15.58,1.09,2.21,5,7.68,13.12,5.74,4.95-1.18,6.17-3,6.17-3l-2.94-9c-1,.33-5,.27-7.13-2.16C643.82,185,638.56,181.64,634.42,177.81Z" transform="translate(-601.96 -153.6)"/><path class="cls-3" d="M666.39,170.14s1.2,1.16.2,3.55c-.62,1.49,4.58.94,4.64.19.11-1.31,0-3.06.61-4.14C671.84,169.74,668.45,170.66,666.39,170.14Z" transform="translate(-601.96 -153.6)"/><path class="cls-3" d="M677.23,165.7c-1.32,3.7-3.26,5.17-8.58,4.91-5.91-.29-6.18-1.76-6.12-4.82a12.88,12.88,0,0,1,.5-3.09,18,18,0,0,1,3.08-6.85c1.86-1.2,6.59,0,8.66.71C678.6,157.93,678.8,161.31,677.23,165.7Z" transform="translate(-601.96 -153.6)"/><path class="cls-3" d="M664.08,159.73s-2,3.85-2.22,4.1-.55.74.39,1.06,1.34,0,1.34,0Z" transform="translate(-601.96 -153.6)"/><path class="cls-17" d="M678.33,163.26c.66-3.73-.66-8.51-7.5-9.61-1-.16-5-.06-6.29,2.95-.48,1.11,1.56.11,1.56.11s-.07,1.09,1.23.73l.22,0a1.64,1.64,0,0,0,0,.23s.42,5.33,1.94,7.64c1.21,1.84,0,3.86,2,5.51,0,0,2.35.64,4.67-2.07A10.55,10.55,0,0,0,678.33,163.26Z" transform="translate(-601.96 -153.6)"/><path class="cls-17" d="M670.46,155.61a4.66,4.66,0,0,0-6,1.17,1.62,1.62,0,0,0-.06.42,4.14,4.14,0,0,0,.18,2c0-.09,0-.14,0-.14,1.94,8,10.38,6.3,10.38,6.3S675.52,158,670.46,155.61Z" transform="translate(-601.96 -153.6)"/><path class="cls-18" d="M674.72,161.33a8.26,8.26,0,0,0-4.22-5.86,5.91,5.91,0,0,0-2.52-.62,4,4,0,0,0-3.18,1.36,1.27,1.27,0,0,0-.42.85v0a5.3,5.3,0,0,0,.4,3c1.63,4.81,5.83,5.58,8.28,5.59a9.13,9.13,0,0,0,1.94-.16h.08v-.12A14.73,14.73,0,0,0,674.72,161.33Zm-10.16-4.53a8,8,0,0,1,1.36-.11c3.46,0,5.71,2.38,7,4.36a17.09,17.09,0,0,1,1.6,3.25,16.36,16.36,0,0,0-6.33-6.35,9.24,9.24,0,0,0-3.37-1.06l.05,0-.29,0Zm9.94,7.95c-1.59-1.4-6.29-5.47-9.3-7.51a9.86,9.86,0,0,1,2.9,1A16.33,16.33,0,0,1,674.5,164.75ZM664.71,159l-.08-1.15a11,11,0,0,0,4.92,6.4,10.1,10.1,0,0,0,2.84,1.06A7.84,7.84,0,0,1,664.71,159Zm.26-.87a31.09,31.09,0,0,0,2.75,3.2,15.27,15.27,0,0,0,5.65,3.82C671,164.94,667,163.67,665,158.16Zm-.24-.77,0-.1a114.92,114.92,0,0,1,9.79,7.86C669.72,164.4,665.22,158.1,664.73,157.39Zm8.34,3.46c-1.31-2-3.61-4.46-7.15-4.47h-.51a7.34,7.34,0,0,1,2.59-.48c2.43,0,5.49,1.47,6.68,8.17A17.8,17.8,0,0,0,673.07,160.85ZM668,155.59a8,8,0,0,0-2.89.59,4.49,4.49,0,0,1,2.87-1,5.87,5.87,0,0,1,2.45.6c2.06,1,3.43,2.88,4.08,5.66a14.62,14.62,0,0,1,.35,2.43C673.63,157.1,670.49,155.61,668,155.59Z" transform="translate(-601.96 -153.6)"/><path class="cls-18" d="M664.62,157.22l0,0,0,0Z" transform="translate(-601.96 -153.6)"/><path class="cls-3" d="M629.19,182.6c0,.35-.25-1-.73,1.16a26.09,26.09,0,0,1-5.66,10.94,59.88,59.88,0,0,0-6.48,8.41l-3.11-.3s1.67-3.87,4.81-10.07c3.64-7.17,5.63-13.1,7.41-15.57C626.33,176.44,629.18,181.72,629.19,182.6Z" transform="translate(-601.96 -153.6)"/><path class="cls-3" d="M624.81,179c-.39-2.73,4.38-5,6.32-3.53a27.73,27.73,0,0,1,4.42,3.78c6.21,5.74,12.73,10.32,17.65,18.2,0,0-9,8.42-11.59,3.21-3.3-6.7-7.79-11.2-10.26-14.93A31.66,31.66,0,0,0,624.81,179Z" transform="translate(-601.96 -153.6)"/><path class="cls-3" d="M617.39,201.5a5.18,5.18,0,0,0-.93,3.85c.27,1.91-3.84,1.44-4,2.4,0,0-7.12.5-6.69-1.49.26-1.2,2.61-1.82,5.31-2.37,2.07-.42,3.4-3.92,3.4-3.92Z" transform="translate(-601.96 -153.6)"/><path class="cls-3" d="M616.13,206.71a2.67,2.67,0,1,1-1-3.63A2.66,2.66,0,0,1,616.13,206.71Z" transform="translate(-601.96 -153.6)"/><path class="cls-3" d="M662.35,203c2-.79,4.57-5.7,4.84-6.58,5.12-17.33,6.18-17.93,4.08-22.86-1.49-3.51-4.24-.38-4.24-.38a38.39,38.39,0,0,1-5.08,5,5.79,5.79,0,0,0-1.72,7.21c.5,1.15,3.55,2.56,2.7,6.35-.54,2.45.34-1-4.57,1.24Z" transform="translate(-601.96 -153.6)"/><path class="cls-18" d="M680.87,158.79s-.84,4.42.25,6.45,2.14,3.07,2,4.79-.41,3.75.06,5.11.88,1.68.36,3.35a8,8,0,0,0,.12,4.73,8,8,0,0,1,.29,4.41,3.74,3.74,0,0,0,.69-2.94,11.52,11.52,0,0,1-.15-4.89,6.4,6.4,0,0,0,.18-4.08c-.49-1.76-.15-2.94.14-4.94s.78-3.63.17-5.19a15.58,15.58,0,0,1-1-4c-.17-1.55.19-4.48-2.29-3.79C680.34,158.2,681.65,158.12,680.87,158.79Z" transform="translate(-601.96 -153.6)"/><path class="cls-18" d="M678.76,160.49s.69.67,1.06,4.81c.2,2.27,2.15,3.08,2,4.8s-.42,3.75,0,5.11.89,1.68.37,3.35a8,8,0,0,0,.11,4.73,8,8,0,0,1,.3,4.41,3.79,3.79,0,0,0,.68-2.95,11.5,11.5,0,0,1-.14-4.89,6.43,6.43,0,0,0,.17-4.07c-.49-1.76-.14-2.94.14-4.95s.79-3.62.17-5.18a15.68,15.68,0,0,1-1-4c-.17-1.55.19-4.48-2.28-3.79C679.05,158.27,679.54,159.82,678.76,160.49Z" transform="translate(-601.96 -153.6)"/><path class="cls-18" d="M682.87,159.54s.78,3.48-.09,5.61-1.81,3.28-1.48,5,.81,3.68.48,5.08-.7,1.77,0,3.37a8,8,0,0,1,.38,4.72,7.84,7.84,0,0,0,.18,4.41,3.72,3.72,0,0,1-1-2.85A11.32,11.32,0,0,0,681,180a6.44,6.44,0,0,1-.6-4c.3-1.81-.16-2.94-.66-4.91s-1.16-3.52-.71-5.13a16.22,16.22,0,0,0,.58-4.06c0-1.56-.66-4.44,1.87-4C682.81,158.07,682,159,682.87,159.54Z" transform="translate(-601.96 -153.6)"/><path class="cls-19" d="M680.54,165.82c.21-2.15-2-2.5-.82-6.81.54-2,1.93-4,2.58,1.12.57,4.46-1,9,.17,15.77.36,2.1,1,5.45.71,7.19a11,11,0,0,0,.22,5.19,3.48,3.48,0,0,1-1.58-3.16c1-7.48-.56-3.28-.77-9.05-.08-2.09-.91-3.28-1.09-4.63C679.54,168.28,680.76,168.13,680.54,165.82Z" transform="translate(-601.96 -153.6)"/><path class="cls-17" d="M683.86,165.65c-.44-2.12,2.1-4.72-.7-8-2-2.4-5.62.34-5,1.34.12.21,0,1.61.56,1.52,2.14-.39,5.37,9.55,3.76,16.17-.47,2,.15,4.72.59,6.43a11,11,0,0,1,.34,5.19,3.49,3.49,0,0,0,1.23-3.31c-1.75-7.35.22-3.33-.18-9.09-.14-2.09.56-3.36.6-4.72C685.11,168,683.88,168,683.86,165.65Z" transform="translate(-601.96 -153.6)"/><path class="cls-20" d="M678.76,160.72c.08.39.2.72-.2.81h0c-.39.09-.39-.36-.48-.75l-.43-1.95c-.09-.39-.23-.58.16-.67h0c.39-.08.42.22.51.61Z" transform="translate(-601.96 -153.6)"/><path class="cls-4" d="M613.25,202.75l.3-1.14s2.44.56,3.8-.08l.43.77S616.37,204.14,613.25,202.75Z" transform="translate(-601.96 -153.6)"/><path class="cls-5" d="M619.56,207.07c0,.6,0,1.19-3.6,1.32a46.18,46.18,0,0,0-5,.24,13.24,13.24,0,0,1-6.25-.4c-.88-.32-1.61-.66-1.64-.89v-.1c0,.12,0,.23,0,.31s.77.56,1.64.88a14.76,14.76,0,0,0,6.21.48c2.22-.19,3.74-.26,5-.31,3.67-.13,3.63-.76,3.59-1.38Z" transform="translate(-601.96 -153.6)"/><path class="cls-6" d="M618.79,201c-.13-.05-.28.09-.38.36a2,2,0,0,0-.11.91h0a1.38,1.38,0,0,0-.05.51l.18,0a1.44,1.44,0,0,1,.21-.85,3.25,3.25,0,0,0,.18-.43C619,201.13,618.84,201,618.79,201Zm-.12.42a1.86,1.86,0,0,1-.17.41l0,.06a1.66,1.66,0,0,1,.1-.46c.06-.15.11-.22.15-.24A.57.57,0,0,1,618.67,201.44Z" transform="translate(-601.96 -153.6)"/><path class="cls-7" d="M616.26,207.08a19.74,19.74,0,0,0-2.46.46,22.12,22.12,0,0,1-7.95.43,10.4,10.4,0,0,1-2.63-.66l-.11-.37a1.18,1.18,0,0,1,.37-.49,17.55,17.55,0,0,1,2.44-.93,10.26,10.26,0,0,0,3.7-1.88c1-.83,2.26-1.6,2.61-1.51s1,.49,2.23.84c2.45.7,1.17.76,2.9,0,.78-.33.77-1.29.84-1.09a2.26,2.26,0,0,0,.43,1.33,4.56,4.56,0,0,1,.66,3.08A8,8,0,0,1,616.26,207.08Z" transform="translate(-601.96 -153.6)"/><path class="cls-7" d="M613.82,201.21c-.26-.33-.24-.69-.61-1-.21-.14-.68.08-1.27,1.14a6.09,6.09,0,0,1-1.58,1.66h.06a12.53,12.53,0,0,1-2.64,1.62l.13.26c1.54-.81,2.92-1.64,3.88-2.24.43-.16,1.09.06,1.35-.09C613.94,202.12,614,201.42,613.82,201.21Z" transform="translate(-601.96 -153.6)"/><path class="cls-7" d="M603.37,207.1a.56.56,0,0,0,.43.42l.2.06h0l.21.06h0l.24.06h0l.25.06h0l.25.05h0l.27.06h0l.26,0h0l.28,0a33.86,33.86,0,0,0,3.91.15,31.65,31.65,0,0,0,4-.58c.87-.18,4.79-.58,5.55-1.06,0-.11-.07-.48-.07-.58a6.36,6.36,0,0,1-.7.53c-1.12.61-4.7.85-5.93,1.1a17.2,17.2,0,0,1-7.47-.11s-1.58-.48-.48-1.07c.95-.52,3.21-1.43,3.21-1.43l0-.31c-3.25,1.55-3.47.9-4.26,1.46-.12.08-.49.44-.47.75C603.2,206.82,603.33,206.9,603.37,207.1Z" transform="translate(-601.96 -153.6)"/><path class="cls-6" d="M619.31,206a4,4,0,0,0-.68-2.74l-.07-.09c-.17,0-.25.17,0,.54a6.47,6.47,0,0,1,.62,2.36Z" transform="translate(-601.96 -153.6)"/><path class="cls-7" d="M607.73,205.66s.72-1-.37-.68c-.4.1-3.7,1.33-3.41,1.86.18.34.09.37.82.67a12.54,12.54,0,0,0,3.48.36c-1.33-.32-1.12-.86-.3-1.6a8.28,8.28,0,0,1,1.17-.94Z" transform="translate(-601.96 -153.6)"/><path class="cls-8" d="M608.74,205.42s3.57,2.48.72,2.5c0,0,2,.1,2.48-.28s-.16-1.64-2-2.93Z" transform="translate(-601.96 -153.6)"/><path class="cls-8" d="M610.28,204.39s3.72,2.83,1.66,3.3c0,0,1.59,0,1.95-.41.73-.88-.57-2.32-2.39-3.6Z" transform="translate(-601.96 -153.6)"/><path class="cls-8" d="M611.84,203.47s4.44,3.36,2.15,3.95c0,0,2,0,2.35-.41s-2-2.56.38-3.62c.46-.22-3.23-.24-3.91-.72Z" transform="translate(-601.96 -153.6)"/><path class="cls-9" d="M618.84,203.57a1.77,1.77,0,0,0-.21-.32l0-.06a3.2,3.2,0,0,1-.25-1.22c0-1.32-.62-.58-.67-.38-.1.45-.07,1.45-2,1.43a6.06,6.06,0,0,1-2.93-.78c-.55-.31-.77-.31-.84-.29a7.65,7.65,0,0,0-1.76,1.46,16.17,16.17,0,0,1-3,1.84,1.33,1.33,0,0,0,1.4.39h0a.11.11,0,0,0,.08,0h0l.09,0h0l.08,0,.1-.05c1.13-.64,2.93-1.92,3.37-2.19a3.21,3.21,0,0,1,2,0c2,.54,2.22,0,3.44.32.43.12,1,.63,1.41,1.7,0,0-.07-1-.06-1s-.48-.66-.48-.66h.06l.05,0h0l0,0h0A.3.3,0,0,0,618.84,203.57Z" transform="translate(-601.96 -153.6)"/><path class="cls-10" d="M612.11,202.46a.17.17,0,0,0,.19.17.18.18,0,1,0,0-.36A.17.17,0,0,0,612.11,202.46Z" transform="translate(-601.96 -153.6)"/><path class="cls-11" d="M612.15,202.46a.15.15,0,0,0,.15.14.16.16,0,0,0,.14-.16.15.15,0,0,0-.16-.13A.13.13,0,0,0,612.15,202.46Z" transform="translate(-601.96 -153.6)"/><path class="cls-12" d="M612.2,202.61s-.85.07-1-.27c0,0,0-.22.15-.13.35.23.46.12.95.1C612.28,202.31,612.48,202.54,612.2,202.61Z" transform="translate(-601.96 -153.6)"/><path class="cls-10" d="M611.16,203.33a.18.18,0,0,0,.17.2.19.19,0,0,0,.19-.18.18.18,0,1,0-.36,0Z" transform="translate(-601.96 -153.6)"/><path class="cls-11" d="M611.19,203.34a.15.15,0,0,0,.14.15.15.15,0,0,0,.16-.14.15.15,0,0,0-.14-.15A.15.15,0,0,0,611.19,203.34Z" transform="translate(-601.96 -153.6)"/><path class="cls-12" d="M611.24,203.5s-.86,0-1-.38c0,0,0-.22.16-.12.32.27.44.17.94.2C611.35,203.2,611.52,203.46,611.24,203.5Z" transform="translate(-601.96 -153.6)"/><path class="cls-10" d="M610.16,204.06a.18.18,0,0,0,.15.21.18.18,0,0,0,.21-.15.18.18,0,0,0-.36-.06Z" transform="translate(-601.96 -153.6)"/><path class="cls-11" d="M610.2,204.07a.14.14,0,0,0,.12.16.15.15,0,0,0,.17-.12.14.14,0,0,0-.12-.16A.14.14,0,0,0,610.2,204.07Z" transform="translate(-601.96 -153.6)"/><path class="cls-12" d="M610.22,204.23s-.82-.12-.91-.48c0,0,.07-.21.18-.1.28.3.39.21.88.3C610.37,204,610.51,204.22,610.22,204.23Z" transform="translate(-601.96 -153.6)"/><path class="cls-10" d="M609.1,204.69a.18.18,0,0,0,.11.24.2.2,0,0,0,.24-.12.18.18,0,0,0-.12-.23A.17.17,0,0,0,609.1,204.69Z" transform="translate(-601.96 -153.6)"/><path class="cls-11" d="M609.13,204.7a.16.16,0,0,0,.09.19.15.15,0,0,0,.1-.28A.15.15,0,0,0,609.13,204.7Z" transform="translate(-601.96 -153.6)"/><path class="cls-12" d="M609.13,204.87s-.72-.19-.75-.57c0,0,.11-.19.19-.06.23.35.28.2.75.37C609.32,204.61,609.41,204.91,609.13,204.87Z" transform="translate(-601.96 -153.6)"/><path class="cls-10" d="M611.68,202.88a.19.19,0,0,0,.2.17.18.18,0,0,0,.17-.19.18.18,0,0,0-.2-.17A.18.18,0,0,0,611.68,202.88Z" transform="translate(-601.96 -153.6)"/><path class="cls-11" d="M611.72,202.88a.15.15,0,0,0,.16.14.15.15,0,0,0,0-.3A.16.16,0,0,0,611.72,202.88Z" transform="translate(-601.96 -153.6)"/><path class="cls-10" d="M611.52,202.09s-.55.14-.07.62c.3.3.39.24.43.17s.09-.11-.15-.25S611.4,202.12,611.52,202.09Z" transform="translate(-601.96 -153.6)"/><path class="cls-10" d="M610.69,203.7a.18.18,0,0,0,.17.2.19.19,0,0,0,.19-.18.18.18,0,1,0-.36,0Z" transform="translate(-601.96 -153.6)"/><path class="cls-11" d="M610.73,203.71a.13.13,0,0,0,.13.15.16.16,0,0,0,.16-.14.15.15,0,0,0-.14-.15A.13.13,0,0,0,610.73,203.71Z" transform="translate(-601.96 -153.6)"/><path class="cls-10" d="M610.61,202.86s-.56.12-.14.65c.27.33.37.28.41.22s.11-.11-.12-.27S610.49,202.88,610.61,202.86Z" transform="translate(-601.96 -153.6)"/><path class="cls-10" d="M609.65,204.37a.18.18,0,1,0,.36.06.18.18,0,0,0-.36-.06Z" transform="translate(-601.96 -153.6)"/><path class="cls-11" d="M609.69,204.38a.15.15,0,0,0,.12.17.16.16,0,0,0,.17-.12.15.15,0,0,0-.12-.17A.14.14,0,0,0,609.69,204.38Z" transform="translate(-601.96 -153.6)"/><path class="cls-10" d="M609.7,203.57s-.6,0-.24.58c.23.36.33.32.38.27s.12-.09-.09-.28S609.58,203.58,609.7,203.57Z" transform="translate(-601.96 -153.6)"/><path class="cls-10" d="M608.54,204.91a.19.19,0,0,0,.11.23.18.18,0,0,0,.24-.11.19.19,0,0,0-.11-.23A.18.18,0,0,0,608.54,204.91Z" transform="translate(-601.96 -153.6)"/><path class="cls-11" d="M608.58,204.92a.14.14,0,1,0,.18-.09A.14.14,0,0,0,608.58,204.92Z" transform="translate(-601.96 -153.6)"/><path class="cls-10" d="M608.79,204.14s-.65-.11-.4.52c.16.39.27.37.33.33s.13-.07,0-.29S608.67,204.12,608.79,204.14Z" transform="translate(-601.96 -153.6)"/><path class="cls-12" d="M611.55,202.2s1.68-.77,1.1-1.56-1.1,1-1.15,1.47l.11,0s.27-1.16.63-1.34.38.16.31.31a3.05,3.05,0,0,1-.77,1s-.18,0-.21.05S611.59,202.17,611.55,202.2Z" transform="translate(-601.96 -153.6)"/><path class="cls-12" d="M611.71,202s.29-1.21-.31-1.62-1,0-.42.93l.57.94.11-.12a6.77,6.77,0,0,1-.58-1c-.14-.37-.25-.78,0-.62s.47.3.5.91c0,.3-.06.56,0,.68s.09.12.09.12Z" transform="translate(-601.96 -153.6)"/><path class="cls-13" d="M611.46,202.14a1.87,1.87,0,0,1-.63.19,1.34,1.34,0,0,0-.83.62s-.12.06-.12.06-.09-.06,0-.26a.86.86,0,0,1,.92-.58,2.13,2.13,0,0,0,.86-.14S611.83,202.14,611.46,202.14Z" transform="translate(-601.96 -153.6)"/><path class="cls-13" d="M611.69,202a9,9,0,0,1-.9.54c-.35.15-.74.59-.95.62s-.14.2-.14.2.13.07.69-.42a4.56,4.56,0,0,1,1-.64C611.63,202.17,611.71,202.15,611.69,202Z" transform="translate(-601.96 -153.6)"/><path class="cls-14" d="M619.46,206.51a3.92,3.92,0,0,1-.18-.61,16.8,16.8,0,0,1-5.35,1.44c-1.12.11-2.91.43-4.2.5a31.13,31.13,0,0,1-3.81,0,11.55,11.55,0,0,1-2.09-.43.52.52,0,0,1-.37-.52c0-.31-.12-.61-.29-.29a2.23,2.23,0,0,0-.08.87c0,.23.77.56,1.64.89a15,15,0,0,0,6.24.47c2.21-.19,3.71-.26,5-.31,3.67-.13,3.63-.76,3.6-1.38A2.7,2.7,0,0,0,619.46,206.51Z" transform="translate(-601.96 -153.6)"/><path class="cls-15" d="M618.62,207a21.08,21.08,0,0,1-3.26.77c-1.54.09-.56.37,1,.43C619.12,208.25,619.62,206.84,618.62,207Z" transform="translate(-601.96 -153.6)"/><path class="cls-15" d="M608.87,208.71a11.29,11.29,0,0,1-4.61-.69l1.84.2C608.86,208.54,609.18,207.9,608.87,208.71Z" transform="translate(-601.96 -153.6)"/><path class="cls-21" d="M668.31,196.76c7.38-14.42,4.56-17.1,3.74-20.87-.14-.62-2.91-3.61-4.95-1.7-1.45,1.36-3.28,3.45-5.14,3.95h0a5.79,5.79,0,0,0-1.72,7.21c.5,1.15,2.15,1.93,1.3,5.73-.16.73-1.69,1.06-2.49,1.57.92,3.92,3.71,9.31,5.11,9.56A16,16,0,0,0,668.31,196.76Zm1.31-15.51a3.79,3.79,0,0,1-2.49.78,2.43,2.43,0,0,1-1.71-1.83c-.33-1.5-.84-4.61,2.72-6.25C673.54,173.52,670.55,180.39,669.62,181.25Z" transform="translate(-601.96 -153.6)"/><polygon class="cls-22" points="58.79 50.44 54.73 40.01 56.59 39.27 60.61 49.31 58.79 50.44"/><path class="cls-23" d="M635.55,179.27a27.73,27.73,0,0,0-4.42-3.78c-1.69-1.25-5.54.29-6.23,2.52-1.66,2.83-3.6,8.27-6.88,14.73-1.23,2.43-1.47,2.88-2.24,4.51l3.51,1.62a51.86,51.86,0,0,1,3.51-4.17,26.09,26.09,0,0,0,5.66-10.94,3.62,3.62,0,0,1,.36-1.11,22,22,0,0,1,2.53,3.1c2.47,3.73,6.81,8.87,10.11,15.57,1.09,2.21,5,7.68,13.12,5.75,4.95-1.18,6.17-3,6.17-3l-4.06-10.43c-1,.33-3.86,1.72-6-.71C644.94,186.41,639.68,183.09,635.55,179.27Z" transform="translate(-601.96 -153.6)"/><path class="cls-3" d="M635.12,176.29s-1-.36-4.65.15l-4.3.31a.58.58,0,0,0-.54.63.59.59,0,0,0,.63.55l.19,0a.56.56,0,0,0,.49.21l4.62-.33c.13,0,.07.05-.47.16h.06l-.57.11a.58.58,0,0,0-.48.68.6.6,0,0,0,.69.48l4.74-.86a2.91,2.91,0,0,1,.66,0c.67.1.73-1.21.73-1.21Z" transform="translate(-601.96 -153.6)"/><path class="cls-3" d="M648.05,178.94a3.35,3.35,0,0,1-.8.35c-1.53.55-5.75.3-9.23-.58-2.46-.62-2.7-.3-2.7-.3l-.48-2.16s-.65.19,4.24-.22a51.73,51.73,0,0,1,9.76.11C649.66,176.41,648.62,178.63,648.05,178.94Z" transform="translate(-601.96 -153.6)"/><path class="cls-3" d="M647.25,179.29c-1,0-1-3,.57-3.22,4.1,0,21.08-4.36,22.06-.23,0,0,1.13,4.15-3.25,4.33-3.11.12-9.28-.56-11.51-.67C653.58,179.42,648.59,179.19,647.25,179.29Z" transform="translate(-601.96 -153.6)"/></svg>