<svg id="Layer_14" data-name="Layer 14" xmlns="http://www.w3.org/2000/svg" viewBox="0 0 411.75 411.75"><defs><style>.cls-1{fill:#cce2a1;}.cls-2{fill:#3f4c51;}.cls-3{fill:#34495e;}.cls-4{fill:#88ba41;}</style></defs><circle class="cls-1" cx="329.46" cy="811.27" r="205.87" transform="translate(-600.74 -134.82) rotate(-45)"/><path class="cls-2" d="M286.64,674.49a1.88,1.88,0,0,0-1,2.46l99.86,194.84a1.87,1.87,0,0,0,2.56.65h0a1.87,1.87,0,0,0,1-2.45L289.2,675.14a1.88,1.88,0,0,0-2.56-.65Z" transform="translate(-123.59 -605.4)"/><path class="cls-2" d="M282.81,913.15h43.34v-26.7a10.86,10.86,0,0,1,21.71,0v26.7h37.62A18.48,18.48,0,0,1,404,931.63c0,.49,0,1-.06,1.46H264.39c0-.48-.07-1-.07-1.46A18.48,18.48,0,0,1,282.81,913.15Z" transform="translate(-123.59 -605.4)"/><path class="cls-2" d="M287.87,667.53l0,0a8.88,8.88,0,0,1,3.72-.81A9,9,0,0,1,295.23,684a98.93,98.93,0,0,0,89.32,176.53,9.06,9.06,0,1,1,7.82,16.2,116.92,116.92,0,0,1-104.5-209.18Z" transform="translate(-123.59 -605.4)"/><path class="cls-3" d="M249.12,771.17A92.64,92.64,0,0,0,282,842l.71.59a93,93,0,0,0,104.05,10c.67-.37,1.33-.75,2-1.13a93.05,93.05,0,0,0,44-100.45c-.06-.27-.11-.53-.18-.79a90.93,90.93,0,0,0-2.63-9.21c-.26-.75-.53-1.5-.8-2.24a93,93,0,0,0-9.59-18.84q-1.67-2.51-3.49-4.91a92.93,92.93,0,0,0-12.68-13.62c-.32-.29-.65-.57-1-.85q-1.71-1.47-3.5-2.85a92.69,92.69,0,0,0-28.47-15l-1-.31A92.73,92.73,0,0,0,342,678.28c-2.13,0-4.24.08-6.34.22q-3.66.24-7.23.77a92.3,92.3,0,0,0-24.24,7c-.49.21-1,.43-1.45.66a93.14,93.14,0,0,0-49.63,57.2,90.37,90.37,0,0,0-2.75,11.8c-.06.33-.11.65-.16,1A93.78,93.78,0,0,0,249.12,771.17Z" transform="translate(-123.59 -605.4)"/><path class="cls-4" d="M253.11,744.17A93.14,93.14,0,0,1,302.74,687a14,14,0,0,1,9.32,2.64c4.42,3.31,2.8,9.5,3.06,14.33,5.69.27,15.54-2.45,19,2.74,1.06,1.61,1.34,3.12,2.89,4.64a32.69,32.69,0,0,1,4,4.42c.85,1.14,1.22,2,2.52,2.37,1.21,5.37-10,2.89-13.2,2.89s-9.14,1.67-12,.3c-1.68-.79-2-3.7-3.45-4.13-2.12-.61-2.93,2.63-3.81,3.8a7.74,7.74,0,0,1-6.77,3.55c-2.21.11-4.56-.32-6.75,0-1.58.23-2.62,1.14-3.89,1.67,1.5.73,2.32,2.95,4.12,3.53,2.63.85,6.64.58,9.38.68,3.7.13,3.37-1.74,5.72-3.74,2.69-2.3,4.52-2.25,8.07-2.42,5.62-.27,16.12-1.27,20.68,2.34,2.21,1.76,1.43,4.35,3.52,6.08,3.45,2.84,10.08,2.22,12.47,6.23,2.1,3.53.49,10.85,0,14.43-.73,5.28-.62,9.89-6.06,12-5.06,2-11.39,2.27-16.67,3.29-2.9.55-6.47,0-7.42,3.13-.46,1.53,0,3.68-.29,5.3-.68,3.46-3.12,5-5.58,7.36s-2.33,4-2.33,7.83a30.79,30.79,0,0,1-2.65,13.87,19.38,19.38,0,0,0-1.45,7.32c0,4.32,1.21,7.76,4.39,10.2,3.88,3,7.65,6.44,4.94,11.17-3.26,2.37-10,.6-13.06-1.34-5.19-3.34-9.16-5.29-15.34-6.54-11.09-2.24-4.65-13-8.57-20.5-1.15-2.22-3.5-3.31-4.63-5.37-1.39-2.5-1.49-5.72-1.47-8.52,0-4.93.87-9.67.88-14.59,0-4.57-1.17-4.17-4.11-6.23-3.43-2.4-2.92-5.89-2.93-10,0-1.13,0-2.27.05-3.38,2.13-.82,4.15-1.53,6.36-2.32,1.29-.46,4.33-1,5.27-1.89,2.95-2.78,4.17-11.9,3.82-15.74-7.2-1.61-6.23,12-13.36,12.28-7.92.31-8.59-4.48-8.26-10.82,5.36-.28,6.68-.19,6.37-6.16-2.7-.46-5.1,1.45-7.08,2.9-1.34,1-3.44,1.42-4.64,2.4-3,2.42-1.28,7.24-3.84,10.17a3,3,0,0,0-2.34,2.33c-2.78,1.53-4.24,6.71-6.72,9-.05-1.51-.25-3-.45-4.53A90.37,90.37,0,0,1,253.11,744.17Z" transform="translate(-123.59 -605.4)"/><path class="cls-4" d="M383.18,838.88c-.68-4.37,4.48-7,4.94-10.8.56-4.61-3.72-7.11-5.08-10.8-.76-2.07-.2-5.1-.54-7.35-2.66-.46-3.62-.86-5.5-2.74-2.27-2.25-3.95-2.48-6.57-4-4.63-2.75-7.45-6.81-6.89-12.42s2.52-12.93,8.11-15.46c2.72-1.24,3.62-.19,4.51-3.1.57-1.86.16-4.06.57-6,3-1.9,6.36-4.21,9.63-5.94s7.64-4.64,11.54-5.2a9.64,9.64,0,0,1,5.21.59c.53.21.41,1.15,1.14,1.41a7.13,7.13,0,0,0,3.27-.29c4.13-1.13,9.86-5.92,10.84-10,.33-1.35,0-2.85.62-4.14.44-.94,1.66-1.59,2.29-2.57,1.34-2.12,2.18-5.25-1.12-6.52-2.94-1.13-3.78,1.07-6.2,1.85-3.37,1.1-6.86-.41-9.93-1.6-.14-2.61-3.07-5.83-4.91-7.48-2.49-2.24-5.64-3.53-8.32-5.42a52.1,52.1,0,0,0-5.3-3.77c-3-1.59-15.54-3.58-11-9,1.68-2,4.68-3.2,6.13-5.86a31.75,31.75,0,0,0,1.09-3c1.88-4.43,4.67-3.83,8.88-2.41,3.74,1.26,5.07,4.86,9.61,4.18a17.42,17.42,0,0,0,2.18-.49c.33.28.66.56,1,.85A92.93,92.93,0,0,1,416,715q1.83,2.4,3.49,4.91a93,93,0,0,1,9.59,18.84c.27.74.54,1.49.8,2.24a90.93,90.93,0,0,1,2.63,9.21c.07.26.12.52.18.79-1.87.69-3.49-1.77-5.78-.62s-2.75,6.48-5,8.52c-3.52,3.22-10-.09-12.62,5-3.65,7,2.54,19.79-4.16,25.08-2.8,2.21-3.54,1.32-3.16,5.78.33,3.87,1,7.67,0,11.45-1,4.07-3.85,6.75-4.19,11-.28,3.59-.55,5.44-2.32,8.52-1.93,3.35-3.83,6.52-5.52,10C388,839.63,387.4,839,383.18,838.88Z" transform="translate(-123.59 -605.4)"/><path class="cls-4" d="M369.43,698.43c-1.61,2.6-7.78,4.19-10.62,2.62-2.62-1.46-3.13-4.66-7.07-5.67-3.05-.78-9.53.66-11.68-2-1.86-2.29.76-6.49-1.29-8.45-1.6-1.53-5.18-.17-7.06-1.5a25.17,25.17,0,0,1-3.15-3.92c-.05-.09-.09-.19-.13-.28q3.57-.53,7.23-.77c2.1-.14,4.21-.22,6.34-.22a92.73,92.73,0,0,1,27.39,4.11l1,.31a11.3,11.3,0,0,0-1.33,3.37C368.25,690.22,372,694.27,369.43,698.43Z" transform="translate(-123.59 -605.4)"/><path class="cls-4" d="M313.91,845.1a37.29,37.29,0,0,0,11.12-.29c3.68-.55,10.06-1.17,13.46.49,2.19,1.06,2.29,3.65,4.24,5,1.77,1.23,5,.68,7.2,1.3.17,1.94-1.14,3.36-.78,5.48,6.34.33,14.7.85,20.07-2.91,5.13-3.58-.11-7,1.57-11.73,1.18-3.27,3.88-3.42,6.54-2,3.1,1.69,3.92,4.85,5.81,7.28,1.25,1.59,4.33,1.08,5.29,2.91a2.89,2.89,0,0,1,.28.81c-.66.38-1.32.76-2,1.13a92.69,92.69,0,0,1-104-10,8,8,0,0,1,3.36-.77C295.51,840.91,304.83,843.74,313.91,845.1Z" transform="translate(-123.59 -605.4)"/></svg>