<svg id="Layer_5" data-name="Layer 5" xmlns="http://www.w3.org/2000/svg" xmlns:xlink="http://www.w3.org/1999/xlink" viewBox="0 0 1834.91 1470"><defs><style>.cls-1{fill:none;}.cls-2{clip-path:url(#clip-path);}.cls-3{fill:#fbe0be;}.cls-4{fill:#fcf2eb;}.cls-5{fill:#cedee6;}.cls-6{fill:#e3f3fa;}.cls-7{fill:#d8ae83;}.cls-22,.cls-7{opacity:0.5;}.cls-8{fill:#a7bacd;}.cls-9{fill:#595985;}.cls-10{fill:#f06255;}.cls-11{fill:#899dae;}.cls-12{fill:#434373;}.cls-13{fill:#505e74;}.cls-14{fill:#828c9b;}.cls-15{fill:#425168;}.cls-16{fill:#ffa67c;}.cls-17,.cls-22{fill:#dc653e;}.cls-18{fill:#fadbd3;}.cls-19{fill:#4f78a8;}.cls-20{fill:#36597c;}.cls-21,.cls-31{fill:#b0673f;}.cls-23{fill:#553b2f;}.cls-24{fill:#944d2a;}.cls-25{fill:#d98d5e;}.cls-26{fill:#fcba4d;}.cls-27{fill:#617189;}.cls-28{fill:#864a36;}.cls-29{fill:#5d2318;}.cls-30{fill:#aa90bd;}.cls-31{opacity:0.3;}.cls-32{fill:#bfa9cd;}.cls-33{fill:#ec903f;}.cls-34{fill:#e9c4b9;}</style><clipPath id="clip-path" transform="translate(-4870.95 -265)"><rect class="cls-1" width="7000" height="2000"/></clipPath></defs><g class="cls-2"><rect class="cls-3" x="1370.83" y="708.07" width="92.09" height="41.39" rx="8.13"/><rect class="cls-3" x="1224.26" y="757.04" width="92.09" height="41.39" rx="8.13"/><rect class="cls-3" x="1326.93" y="757.04" width="92.09" height="41.39" rx="8.13"/><rect class="cls-3" x="1429.6" y="757.04" width="92.09" height="41.39" rx="8.13"/><rect class="cls-3" x="1532.27" y="757.04" width="92.09" height="41.39" rx="8.13"/><rect class="cls-3" x="1268.16" y="809.66" width="92.09" height="41.39" rx="8.13"/><rect class="cls-3" x="1473.5" y="809.66" width="92.09" height="41.39" rx="8.13"/><rect class="cls-3" x="1576.17" y="809.66" width="92.09" height="41.39" rx="8.13"/><rect class="cls-3" x="1224.26" y="858.63" width="92.09" height="41.39" rx="8.13"/><rect class="cls-3" x="1532.27" y="858.63" width="92.09" height="41.39" rx="8.13"/><rect class="cls-3" x="1268.16" y="911.26" width="92.09" height="41.39" rx="8.13"/><rect class="cls-3" x="1473.5" y="911.26" width="92.09" height="41.39" rx="8.13"/><rect class="cls-3" x="1576.17" y="911.26" width="92.09" height="41.39" rx="8.13"/><rect class="cls-3" x="1224.26" y="960.22" width="92.09" height="41.39" rx="8.13"/><rect class="cls-3" x="1532.27" y="960.22" width="92.09" height="41.39" rx="8.13"/><rect class="cls-4" x="264.21" width="1281.12" height="1029.69"/><rect class="cls-5" x="288.7" y="21.94" width="1232.15" height="985.8"/><polygon class="cls-6" points="662.12 21.94 288.7 590.06 288.7 532.65 611.26 21.94 662.12 21.94"/><polygon class="cls-6" points="926.62 21.94 654.76 1007.75 456.46 1007.75 881.15 21.94 926.62 21.94"/><polygon class="cls-6" points="1099.83 21.94 878.13 1007.75 845.93 1007.75 1080.55 21.94 1099.83 21.94"/><polygon class="cls-6" points="1440.61 21.94 1215.94 1007.75 1076.04 1007.75 1374.26 21.94 1440.61 21.94"/><rect class="cls-4" x="688.01" y="21.94" width="18.15" height="985.81"/><rect class="cls-4" x="1126.55" y="21.94" width="18.15" height="985.81"/><path class="cls-3" d="M5688.87,1704.75c-487.32,45.16-694.43,39.45-767.44-15-103.37-77.15-48.15-238.49,167.17-261.51s727,18.39,1044.3,0c272.94-15.83,485.5,29.32,537.34,74.47,97.34,84.78-20.5,226.17-164.79,229.18C6278.14,1736.59,5883.22,1686.74,5688.87,1704.75Z" transform="translate(-4870.95 -265)"/><path class="cls-7" d="M5342.54,1576.51c410.31-.8,1190.52,9.6,1230.15-38.43,14.27-17.28-157.95-33-238.9-34.57-338.49-6.52-704.25-32.79-1037.21,42.32C5296.31,1569,5319.7,1576.55,5342.54,1576.51Z" transform="translate(-4870.95 -265)"/><path class="cls-8" d="M6265.64,866.43H6217V799.11a5.11,5.11,0,0,1,5.12-5.11h38.44a5.11,5.11,0,0,1,5.11,5.11Z" transform="translate(-4870.95 -265)"/><rect class="cls-9" x="1346.02" y="544.22" width="48.67" height="41.99"/><rect class="cls-10" x="1346.02" y="509" width="48.67" height="12.05"/><rect class="cls-11" x="1349.38" y="521.26" width="41.96" height="7.18"/><rect class="cls-10" x="1382.36" y="504.74" width="8.98" height="5.58"/><rect class="cls-12" x="1394.49" y="543.99" width="5.58" height="8.98"/><path class="cls-12" d="M6271,810.69s9.62-.85,13.58,12.73,7.07,30,6.51,32.54-8.77,3.4-9.62,1.7-3.4-26.88-4-30.84-3.75-10-6.51-10.68Z" transform="translate(-4870.95 -265)"/><polygon class="cls-13" points="688.84 1211.91 678.27 1267.08 675.99 1279.03 633.54 1279.06 635.84 1267.08 646.39 1211.91 688.84 1211.91"/><polygon class="cls-13" points="1666.12 1211.91 1650.61 1267.08 576.99 1267.08 592.49 1211.91 1666.12 1211.91"/><path class="cls-13" d="M6705.86,744.62l-143.52,89.72-58.71,54.43-13.65,14H6218.54L6244,875a40,40,0,0,1,29.48-13h196.75l129.41-126.84c3-2.92,62.43-5,66.12-6.37a27.66,27.66,0,0,1,18.23-.15,27.37,27.37,0,0,1,8.91,5Z" transform="translate(-4870.95 -265)"/><path class="cls-10" d="M6457.2,762.64l-5.13-3.89a10.65,10.65,0,0,0-13.88.88L6333.46,862.05H6357Z" transform="translate(-4870.95 -265)"/><polygon class="cls-13" points="1576.44 549.96 1534 549.99 1392.93 1279.07 1435.37 1279.03 1576.44 549.96"/><polygon class="cls-13" points="1695.13 549.96 1691.39 569.34 1554.06 1279.03 1511.62 1279.07 1638.09 625.45 1638.41 623.77 1652.69 549.99 1695.13 549.96"/><polygon class="cls-14" points="1536.45 1211.68 1666.18 1211.68 1670.4 1196.68 1540.67 1196.68 1536.45 1211.68"/><path class="cls-14" d="M6292.52,1498.84h-567a2.69,2.69,0,1,1,0-5.37h567a2.69,2.69,0,1,1,0,5.37Z" transform="translate(-4870.95 -265)"/><path class="cls-14" d="M6180.47,1515.82h-567a2.69,2.69,0,0,1,0-5.38h567a2.69,2.69,0,0,1,0,5.38Z" transform="translate(-4870.95 -265)"/><path class="cls-15" d="M6705.86,744.62l-87.51,89.72-59.11,56.11-13.33,12.34L6340,900.1l36.68-38.05,130-134.85,159.11,1.64,15.58.19,2.65-.34a27.37,27.37,0,0,1,8.91,5Z" transform="translate(-4870.95 -265)"/><path class="cls-13" d="M6066.72,902.79H6382.5l154.14-158.17-13-10.91a27.65,27.65,0,0,0-37.25,1.51L6357,862.05H6121.67a40,40,0,0,0-29.49,13Z" transform="translate(-4870.95 -265)"/><path class="cls-14" d="M6380,878H6118.5a2.69,2.69,0,0,1,0-5.38H6380a2.69,2.69,0,0,1,0,5.38Z" transform="translate(-4870.95 -265)"/><path class="cls-16" d="M5588.84,1313s-7.53,1.53-18.11-14.67c-4.52-6.94-9.35-31.78-9.35-31.78a437,437,0,0,0,83.2-51.79c41.12-32.88,102.95-74.52,141.46-81.29l54.21-154.62,73.1,63.63s-48.94,142.83-61.39,154-66.82,28.27-101.32,43c-20.6,8.76-74.25,33.27-114.15,51.61C5609.53,1303.41,5588.84,1313,5588.84,1313Z" transform="translate(-4870.95 -265)"/><path class="cls-17" d="M5798.48,1147.93a1.79,1.79,0,0,1-1.28-.54l-12.44-12.68a1.79,1.79,0,1,1,2.56-2.51l12.44,12.68a1.79,1.79,0,0,1-1.28,3Z" transform="translate(-4870.95 -265)"/><path class="cls-18" d="M5588.84,1313s-7.53,1.53-18.11-14.67c-4.52-6.94-9.35-31.78-9.35-31.78a416.2,416.2,0,0,0,47.69-26.48c0,.12.07.25.09.38,5,24.46,21.35,44.07,27.33,50.59C5609.53,1303.41,5588.84,1313,5588.84,1313Z" transform="translate(-4870.95 -265)"/><path class="cls-19" d="M5588.54,1425.46c-6.73-3.45-14-10.92-20.85-19.87-13-16.88-24.86-39-30.09-49.58-1.68-3.38-2.68-5.56-2.81-6-.76-2.35.83-13,.93-13.65v0l-11.21-7.09c-6.59-12.15-13.54-42-13.54-42s4-2.45,8.71-5.2,9.7-5.65,12.35-7a94.76,94.76,0,0,1,11.85-3.92c3-.84,6.08-1.69,8.83-2.42,4.89-1.29,8.66-2.23,8.66-2.23,4.29,27.16,15.45,39.62,15.45,39.62,8.1-5.29,21.17,4.77,21.17,4.77s-10.13,18.43-7.89,36.44c1.38,11.14,8.46,30.36,13.36,45.17,3,9.12,5.23,16.57,4.8,19.43-.55,3.66-5.27,7-9.94,9.38A71.68,71.68,0,0,1,5588.54,1425.46Z" transform="translate(-4870.95 -265)"/><path class="cls-8" d="M5588.54,1425.46c-6.73-3.45-14-10.92-20.85-19.87,5.76-3.58,21.71-13.43,24.92-14.54,2.05-.72,6.78.32,10.86,1.48,3,9.12,5.23,16.57,4.8,19.43-.55,3.66-5.27,7-9.94,9.38A71.68,71.68,0,0,1,5588.54,1425.46Z" transform="translate(-4870.95 -265)"/><path class="cls-12" d="M5578,1358.24a1.34,1.34,0,0,1-1.14-.63c-.17-.28-17.13-28.08-1.18-52.2a1.34,1.34,0,1,1,2.24,1.48c-15,22.66,1.06,49,1.22,49.3a1.34,1.34,0,0,1-.43,1.85A1.32,1.32,0,0,1,5578,1358.24Z" transform="translate(-4870.95 -265)"/><path class="cls-8" d="M5537.6,1356c-1.68-3.38-2.68-5.56-2.81-6-.76-2.35.83-13,.93-13.65v0s17.64-19.07,17.24-27.66c-.29-6.46-6.17-27.46-9.08-37.51,3-.84,6.08-1.69,8.83-2.42,3.07,10.28,11.37,39.41,9.72,48.38C5560.71,1326.52,5542.7,1349.63,5537.6,1356Z" transform="translate(-4870.95 -265)"/><path class="cls-12" d="M5588.54,1425.46c-19.43-10-42.93-53.34-50.94-69.45-1.68-3.38-2.68-5.56-2.81-6-.76-2.35.83-13,.93-13.65v0l-11.21-7.09c-6.59-12.15-13.54-42-13.54-42s4-2.45,8.71-5.2c1.82,7,6.58,22.3,18.82,53.1,15.62,39.28,48.85,75,59.82,86.19A71.68,71.68,0,0,1,5588.54,1425.46Z" transform="translate(-4870.95 -265)"/><path class="cls-9" d="M5828.76,974.66s-15.28,50.94-25.47,69.61a86.59,86.59,0,0,0-10.19,37.35s47.54,22.07,67.91,23.77a296.4,296.4,0,0,1,35.66,5.09l6.79-50.93Z" transform="translate(-4870.95 -265)"/><path class="cls-16" d="M6081.06,1410.37s-.85,7.64-19.52,12.74c-8,2.17-33.11-.85-33.11-.85a438.7,438.7,0,0,0-23.76-95.08c-18.69-49.23-34-129-34-159.58l-66.21-113.76,90-37.34s50.93,101.86,57.72,117.14,5.09,62.82,8.49,100.16c2,22.3,8.88,80.88,14.09,124.49C6078.3,1387.75,6081.06,1410.37,6081.06,1410.37Z" transform="translate(-4870.95 -265)"/><path class="cls-17" d="M5970.71,1169.39a1.76,1.76,0,0,1-1.26-.52,1.79,1.79,0,0,1,0-2.53l12.83-13a1.8,1.8,0,0,1,2.55,2.53l-12.83,13A1.8,1.8,0,0,1,5970.71,1169.39Z" transform="translate(-4870.95 -265)"/><path class="cls-18" d="M6081.06,1410.37s-.85,7.64-19.52,12.74c-8,2.17-33.11-.85-33.11-.85a416.66,416.66,0,0,0-10.58-53.52l.39,0c24.81,2.76,48.5-6.79,56.54-10.48C6078.3,1387.75,6081.06,1410.37,6081.06,1410.37Z" transform="translate(-4870.95 -265)"/><path class="cls-19" d="M6188,1445.18c-5.35,5.35-14.68,9.93-25.31,13.74-20.06,7.21-44.8,11.68-56.42,13.42-3.73.57-6.12.85-6.56.85-2.46,0-12.1-4.78-12.7-5.08h0l-10.19,8.48c-13.58,2.55-44.13,0-44.13,0s-1.1-4.59-2.28-9.88-2.4-11-2.82-13.89a92.83,92.83,0,0,1-.09-12.48c.11-3.1.25-6.31.4-9.15.27-5,.54-8.92.54-8.92,27.16,4.24,42.44-2.55,42.44-2.55-2.54-9.34,11-18.68,11-18.68s14.43,15.29,32.26,18.68c11,2.11,31.49,1.27,47.09,1.15,9.61-.08,17.38.11,20,1.4,3.31,1.64,5,7.15,5.88,12.33A72.86,72.86,0,0,1,6188,1445.18Z" transform="translate(-4870.95 -265)"/><path class="cls-8" d="M6188,1445.18c-5.35,5.35-14.68,9.93-25.31,13.74-1.64-6.58-6.11-24.78-6.19-28.18-.06-2.17,2.39-6.35,4.74-9.88,9.61-.08,17.38.11,20,1.4,3.31,1.64,5,7.15,5.88,12.33A72.86,72.86,0,0,1,6188,1445.18Z" transform="translate(-4870.95 -265)"/><path class="cls-12" d="M6107.08,1436.74c-10.91,0-26.5-2.74-37.26-16.19a1.34,1.34,0,0,1,2.1-1.68c17,21.21,47,14,47.3,14a1.34,1.34,0,1,1,.65,2.61A59.3,59.3,0,0,1,6107.08,1436.74Z" transform="translate(-4870.95 -265)"/><path class="cls-8" d="M6106.29,1472.34c-3.73.57-6.12.85-6.56.85-2.46,0-12.1-4.78-12.7-5.08h0s-12.73-22.65-21-24.9c-6.24-1.71-28-2.56-38.48-2.87.11-3.1.25-6.31.4-9.15,10.73.23,41,1.27,49,5.6C6085.32,1441.31,6101.78,1465.53,6106.29,1472.34Z" transform="translate(-4870.95 -265)"/><path class="cls-12" d="M6188,1445.18c-15.44,15.44-63.94,24.49-81.73,27.16-3.73.57-6.12.85-6.56.85-2.46,0-12.1-4.78-12.7-5.08h0l-10.19,8.48c-13.58,2.55-44.13,0-44.13,0s-1.1-4.59-2.28-9.88c7.19.4,23.24.58,56.32-1.62,42.17-2.82,86.41-23.47,100.39-30.49A72.86,72.86,0,0,1,6188,1445.18Z" transform="translate(-4870.95 -265)"/><path class="cls-9" d="M5954.39,883.55s14.71,63.39,30.56,83.76,47.54,83.75,47.54,83.75-27.17,29.43-54.33,44.14-72.44,22.64-72.44,22.64-2.26-3.39-6.79-15.84-59.17-80.22-71.3-107.53c-18.11-40.74-5.66-88.28,14.71-116.58Z" transform="translate(-4870.95 -265)"/><path class="cls-12" d="M5905.72,1119.18a1.36,1.36,0,0,1-1.12-.59c-.09-.15-2.4-3.68-6.93-16.14-1.91-5.23-13.3-21-26.5-39.34-17.74-24.62-37.85-52.52-44.77-68.09-18.47-41.55-5.85-89.16,14.85-117.91a1.34,1.34,0,1,1,2.18,1.57c-20.25,28.12-32.61,74.67-14.58,115.25,6.81,15.32,27.71,44.31,44.5,67.61,13.32,18.46,24.81,34.41,26.84,40,4.38,12,6.63,15.53,6.65,15.56a1.34,1.34,0,0,1-.38,1.86A1.36,1.36,0,0,1,5905.72,1119.18Z" transform="translate(-4870.95 -265)"/><path class="cls-12" d="M6005.79,1002.61a1.37,1.37,0,0,1-1.18-.7c-.18-.35-18.88-34.47-28.82-44.4-10.11-10.12-39.58-46.11-40.83-47.64a1.34,1.34,0,1,1,2.08-1.7c.3.37,30.63,37.41,40.65,47.44,10.21,10.2,28.51,43.59,29.28,45a1.33,1.33,0,0,1-.53,1.82A1.4,1.4,0,0,1,6005.79,1002.61Z" transform="translate(-4870.95 -265)"/><path class="cls-16" d="M6041.75,738c-4.61-2.76-14.29,3.69-13.37,8.76s12,19.83,14.29,19.83,5.53-.93,6-3.69S6041.75,738,6041.75,738Z" transform="translate(-4870.95 -265)"/><path class="cls-16" d="M6041.75,746.76s31.35,0,34.11,5.07,0,11.07-1.84,13.37c0,0,1.84,9.22-1.85,12.91,0,0,1.85,7.38-2.76,12.91,0,0,2.76,10.6-5.53,12.9s-27.2-6.91-30.43-7.83-1.38-9.68,2.31-10.6c0,0-4.15-7.84,2.76-12.45,0,0-3.69-8.3,1.85-12.91C6040.37,760.13,6033.91,751.83,6041.75,746.76Z" transform="translate(-4870.95 -265)"/><path class="cls-16" d="M6029.76,746.3s-6.91,3.69-10.14,9.22l-49.32-.46-1.85,40.57,46.78-.74s6.23,3,9.46,4.89,33.65.92,33.65.92l5.07-45.64Z" transform="translate(-4870.95 -265)"/><path class="cls-17" d="M6060.81,806.08c-7.44,0-18.08-4.35-24.21-6.85-1.64-.67-3.06-1.25-3.64-1.42-1.9-.54-3-2.48-3-5.19,0-2.88,1.34-6.25,3.47-7.93-1.16-3.35-1.48-8.57,2.91-12.28-.83-2.59-2-8.32,1.68-12.53a12.67,12.67,0,0,1-1.86-8.16,9.52,9.52,0,0,1,4.57-6.46,1.79,1.79,0,0,1,1-.29c9.74,0,32.73.59,35.68,6a1.79,1.79,0,1,1-3.14,1.71c-1.21-2.21-15.79-4.09-32-4.13a5.71,5.71,0,0,0-2.56,3.76c-.56,3.26,2,6.68,2,6.71a1.8,1.8,0,0,1-.27,2.48c-4.44,3.7-1.38,10.73-1.35,10.8a1.8,1.8,0,0,1-.64,2.22c-5.37,3.58-2.52,9.46-2.18,10.12a1.79,1.79,0,0,1-1.15,2.57c-.91.23-2.13,2-2.51,4.38-.29,1.79.12,2.67.26,2.76.77.22,2.13.78,4,1.55,6.31,2.58,19.46,8,25.44,6.29a1.79,1.79,0,0,1,1,3.45A13.14,13.14,0,0,1,6060.81,806.08Z" transform="translate(-4870.95 -265)"/><path class="cls-17" d="M6074,767a1.23,1.23,0,0,1-.27,0l-33.65-5.07a1.79,1.79,0,1,1,.53-3.54l33.65,5.07A1.79,1.79,0,0,1,6074,767Z" transform="translate(-4870.95 -265)"/><path class="cls-17" d="M6072.18,779.9a1.23,1.23,0,0,1-.27,0l-33.66-5.07a1.79,1.79,0,0,1,.54-3.54l33.65,5.07a1.79,1.79,0,0,1-.26,3.56Z" transform="translate(-4870.95 -265)"/><path class="cls-17" d="M6069.41,792.81l-.29,0-33.66-5.54a1.79,1.79,0,0,1,.59-3.53l33.65,5.53a1.79,1.79,0,0,1-.29,3.56Z" transform="translate(-4870.95 -265)"/><path class="cls-17" d="M6037.86,763.11a1.78,1.78,0,0,1-1-.28c-6.75-4.3-10.25-18-10.4-18.62a1.79,1.79,0,1,1,3.48-.87c.9,3.58,4.24,13.53,8.84,16.46a1.8,1.8,0,0,1-1,3.31Z" transform="translate(-4870.95 -265)"/><path class="cls-19" d="M5983.27,743.7c0,4.21,0,8.07,0,11.48v3.87c0,9.55-1.91,22.81-4.37,36.42-4.32,23.87-10.37,48.85-10.91,57-.85,12.73,0,15.27,0,23.77s-4.24,10.19-4.24,10.19-3.17.78-8.19,1.88c-12.4,2.72-36.12,7.45-51.24,7.45-2.73,0-5.85-.13-9.22-.36-19.05-1.35-46.26-6.09-57.8-9.76a20.32,20.32,0,0,1-4.85-2c-5.94-4.25,2.56-16.13,2.56-16.13s.64-9.71,1.48-22.91c1.31-20.6,3.09-49.71,3.61-63.68.26-7.29-.61-19.81-1.94-33.48-.87-9.07-1.94-18.65-3-27.55-.5-4.2-1-8.24-1.47-12-.14-1.07-.27-2.1-.4-3.12h0l0-.24c-.29-2.21-.56-4.31-.81-6.25,0-.3-.08-.59-.11-.87q-.33-2.41-.6-4.47h0c-.77-5.78-1.27-9.33-1.27-9.33l49.8-123.64,59.63,15.82.08,0s1,1.07,2.78,3.07c6.87,7.89,24.57,30.12,32,57.19,3.28,11.93,5.29,27.4,6.54,43.61.63,8.24,1.06,16.66,1.35,24.9.18,4.8.3,9.54.4,14.14C5983.23,727.69,5983.27,736.24,5983.27,743.7Z" transform="translate(-4870.95 -265)"/><path class="cls-10" d="M5983.27,743.7c-15.93,2.72-48.92,8-72.18,9.69-26,1.86-61.2-3.91-72.95-6-.87-9.07-1.94-18.65-3-27.55,5.91,2.16,37.48,12.76,78.22,8.68,32.41-3.24,57.85-7.64,69.7-9.88C5983.23,727.69,5983.27,736.24,5983.27,743.7Z" transform="translate(-4870.95 -265)"/><path class="cls-10" d="M5982.66,704.47c-15.46,2.65-49.47,8.18-73.26,9.88-28.6,2-68.26-5.14-75.73-6.55l-1.24-.24V680.39a141.74,141.74,0,0,0,22.84,6.26l1.47.29a192.41,192.41,0,0,0,54.92,2.51c32.35-3.25,57.78-7.64,69.65-9.88C5981.94,687.81,5982.37,696.23,5982.66,704.47Z" transform="translate(-4870.95 -265)"/><path class="cls-16" d="M5782.41,642.76s-67.83,67-78.21,86.18-.79,36.71,8,50.28,55.07,67.83,80.87,89.77c21.27,18.1,28.73,27.93,28.73,27.93s7.49,18.78,12.77,29.53c3.54,7.22,24.73,16,24.73,16s5.59-1.07,8.07-5.68c0,0,6,.71,9.93-6.74,0,0,6.74-1.77,8.87-6.73,0,0,7.8-.36,9.58-7.45s-1.07-24.83-2.13-28-5.68-6-5.68-6-4.25-9.22-8.86-12.77-32.28-6.78-32.28-6.78S5788,760.06,5776,751.29l58.26-55.86Z" transform="translate(-4870.95 -265)"/><path class="cls-17" d="M5887.92,883.55a1.78,1.78,0,0,1-.71-.15l-13.65-5.89a1.79,1.79,0,1,1,1.42-3.29l13.65,5.89a1.8,1.8,0,0,1,.94,2.36A1.78,1.78,0,0,1,5887.92,883.55Z" transform="translate(-4870.95 -265)"/><path class="cls-17" d="M5886.15,925.05a1.79,1.79,0,0,1-1.67-1.15l-5.85-15.12a1.79,1.79,0,0,1,3.34-1.29l5.85,15.12a1.79,1.79,0,0,1-1,2.32A1.91,1.91,0,0,1,5886.15,925.05Z" transform="translate(-4870.95 -265)"/><path class="cls-17" d="M5877.28,931.79a1.8,1.8,0,0,1-1.44-.73l-9.39-12.63a1.79,1.79,0,1,1,2.87-2.14l9.4,12.63a1.79,1.79,0,0,1-.37,2.51A1.77,1.77,0,0,1,5877.28,931.79Z" transform="translate(-4870.95 -265)"/><path class="cls-17" d="M5867.35,938.53a1.8,1.8,0,0,1-1.29-.55l-10.82-11.22a1.79,1.79,0,0,1,2.58-2.49l10.82,11.22a1.8,1.8,0,0,1-1.29,3Z" transform="translate(-4870.95 -265)"/><path class="cls-17" d="M5776,753.08a1.8,1.8,0,0,1-1.53-.85c-6.56-10.63-20.67-9.24-20.81-9.22a1.8,1.8,0,0,1-.4-3.57c.67-.07,16.5-1.67,24.26,10.9a1.8,1.8,0,0,1-.58,2.47A1.82,1.82,0,0,1,5776,753.08Z" transform="translate(-4870.95 -265)"/><path class="cls-16" d="M5943.07,531.56l-1.93,26.82-1.46,20.15s-6.8,4.52-25.47,1.69-34-20.37-34-20.37c5.66-13,10.75-45.84,10.75-45.84l2-.46,7.65-1.8Z" transform="translate(-4870.95 -265)"/><path class="cls-17" d="M5943.07,531.56l-1.93,26.82c-5.77-.86-20.18-3.5-28.63-9.28-8-5.46-15.95-25.54-19.53-35.55l7.65-1.8Z" transform="translate(-4870.95 -265)"/><path class="cls-19" d="M5880.25,559.85s-45,13.58-64.23,31.69-54.89,62.82-54.89,62.82,7.36,15.84,29.43,39.61c19.13,20.6,35.65,15.85,35.65,15.85s75-53.76,81.77-70.74S5880.25,559.85,5880.25,559.85Z" transform="translate(-4870.95 -265)"/><path class="cls-20" d="M5826.21,711.58a1.76,1.76,0,0,1-1.06-3.17c.59-.44,58.54-44,65.07-60.36a1.76,1.76,0,1,1,3.27,1.3c-6.89,17.24-63.8,60.06-66.22,61.88A1.82,1.82,0,0,1,5826.21,711.58Z" transform="translate(-4870.95 -265)"/><path class="cls-16" d="M5965.71,437.05s3.39,11.88,4,20.94-2.83,14.14-1.7,19.24,8.49,13.58,8.49,13.58-2.83,6.79-7.36,9.05c0,0-1.13,33.39-6.79,40.75s-28.86,4.53-39.61.57-23.2-26.89-23.2-26.89-4.81,2.55-8.49-.28c-5.48-4.21-15.85-29.43-3.4-31.69s10.75,2.26,10.75,2.26l.57-53.76Z" transform="translate(-4870.95 -265)"/><path class="cls-17" d="M5899.49,511.28a1.8,1.8,0,0,1-1.74-1.4c-.38-1.64-1.62-6.31-2.86-8.17-1-1.56-4.29-3.58-6.1-4.49a1.79,1.79,0,0,1,1.6-3.2c.57.28,5.58,2.84,7.48,5.7s3.22,8.7,3.37,9.37a1.79,1.79,0,0,1-1.35,2.14A1.75,1.75,0,0,1,5899.49,511.28Z" transform="translate(-4870.95 -265)"/><path class="cls-17" d="M5893.46,505.76l-1.6-.8-1.64-.73c.62-1.39,3-3.6,7.79-3a1.79,1.79,0,1,1-.42,3.56C5894.3,504.37,5893.49,505.7,5893.46,505.76Z" transform="translate(-4870.95 -265)"/><path class="cls-17" d="M5964.86,501.09a14.67,14.67,0,0,1-6.27-1.37c-2.8-1.6-2.88-5.12-2.88-5.52a1.79,1.79,0,0,1,3.58,0c0,.48.22,1.93,1.08,2.42a11.37,11.37,0,0,0,4.49.9,1.79,1.79,0,0,1,0,3.58Zm-5.57-6.89h0Z" transform="translate(-4870.95 -265)"/><path class="cls-21" d="M5930.06,463.93s2.82-6.79,7.07-7.64,17.83-.85,17.83-.85-.85,5.66-1.7,6.79-7.64.85-11.6.85S5930.06,463.93,5930.06,463.93Z" transform="translate(-4870.95 -265)"/><path class="cls-17" d="M5955.18,514a31.91,31.91,0,0,1-4.48-.22,16,16,0,0,1-7.13-3.55,1.8,1.8,0,0,1,2.4-2.67,12.19,12.19,0,0,0,5.32,2.68c2.62.44,12.85-.07,16.57-.3a1.79,1.79,0,1,1,.22,3.58C5967.06,513.6,5960.2,514,5955.18,514Z" transform="translate(-4870.95 -265)"/><path class="cls-17" d="M5943.93,513.26a1.82,1.82,0,0,1-1.66-1.09c-1.29-3,2.17-6.25,2.88-6.87a1.79,1.79,0,1,1,2.35,2.7h0c-1.13,1-2,2.36-1.93,2.77a1.79,1.79,0,0,1-.94,2.35A1.75,1.75,0,0,1,5943.93,513.26Z" transform="translate(-4870.95 -265)"/><path class="cls-22" d="M5914.21,488.55c-5.7,6.51,19.24,15.28,20.94,10.18S5918.17,484,5914.21,488.55Z" transform="translate(-4870.95 -265)"/><path class="cls-23" d="M5944.83,467.56c6.24-.32,4.68,12.14.39,12.75S5938.54,467.89,5944.83,467.56Z" transform="translate(-4870.95 -265)"/><path class="cls-21" d="M5906.93,439.31s3.29,8.49,11.49,6.79,10.39-6.22,16.95-4.52,8.75,4,11.49,2.26,8.75-5.66,15.31-5.66,13.13-2.83,11.48-9.06,2.19-17.54-7.1-24.33-12-9.62-19.15-12.45-17.5,3.4-27.34,1.13-28.44,1.13-36.09,6.23-4.93,9.62-8.75,14.15-17.5,7.92-17,18.1,2.19,13,1.64,15.85-6,15.28-4.37,23.77.54,14.15,6.56,16.41,7.11,10.75,7.66,16.41-2.19,6.79,7.11,10.19,12.57,7.92,14.22,6.22,2.66-5.47,2.66-5.47-13.6-14.62-7.59-28.48c4.45-10.25,14.77-2.27,14.77-2.27a24,24,0,0,0,4.37-10.75c1.1-6.79.55-2.83-1.64-10.18s.28-10.47.82-12.45S5901.19,443,5906.93,439.31Z" transform="translate(-4870.95 -265)"/><path class="cls-24" d="M5933,430.2a1.79,1.79,0,0,1-1-.3c-2.09-1.37-4.5-2.81-6.75-2.39a11.9,11.9,0,0,0-2.7,1c-1.83.87-3.91,1.86-6.26,1.16-2.07-.61-3.41-2.3-4.59-3.79-1.31-1.65-2-2.41-2.84-2.28a1.79,1.79,0,0,1-.57-3.54c3-.48,4.77,1.78,6.21,3.59.9,1.13,1.82,2.29,2.81,2.59s2.27-.28,3.7-1a14.13,14.13,0,0,1,3.59-1.33c3.39-.63,6.51,1,9.37,2.92a1.79,1.79,0,0,1-1,3.29Z" transform="translate(-4870.95 -265)"/><path class="cls-24" d="M5966.25,427.54a1.79,1.79,0,0,1-.89-.23c-3.31-1.89-6.92-4.23-7.9-8.2a14.35,14.35,0,0,1-.3-1.84,10,10,0,0,0-.2-1.34c-.75-3.2-4.59-5-7.94-5.66a1.78,1.78,0,0,1-1.42-2.09,1.8,1.8,0,0,1,2.1-1.43c5.76,1.1,9.78,4.22,10.75,8.36a14.63,14.63,0,0,1,.27,1.75,12.68,12.68,0,0,0,.22,1.39c.64,2.59,3.41,4.36,6.2,5.95a1.79,1.79,0,0,1-.89,3.34Z" transform="translate(-4870.95 -265)"/><path class="cls-24" d="M5888.88,469.4a2.74,2.74,0,0,1-1.14-.26,3.11,3.11,0,0,1-1.81-2.5,4.94,4.94,0,0,1,1.15-3.29l.16-.23c1.48-2.08,3-4.24,3.15-6.49.12-2-.85-4-1.87-6.12a31.31,31.31,0,0,1-1.72-4.06,15.38,15.38,0,0,1,3.28-14.69,1.79,1.79,0,0,1,2.65,2.42,11.68,11.68,0,0,0-2.5,11.2,25,25,0,0,0,1.52,3.57c1.18,2.44,2.4,5,2.22,7.9-.2,3.28-2.12,6-3.81,8.34l-.16.23-.21.31a1.79,1.79,0,0,1,.58,3.18A2.53,2.53,0,0,1,5888.88,469.4Z" transform="translate(-4870.95 -265)"/><path class="cls-24" d="M5876.67,488.65a1.83,1.83,0,0,1-1.35-.61,18.23,18.23,0,0,1,2-25.12c.68-.56,1.41-1.08,2.11-1.59,1.79-1.28,3.49-2.49,4.06-4.18a1.79,1.79,0,1,1,3.39,1.14c-.93,2.79-3.29,4.47-5.36,6-.68.49-1.33.95-1.91,1.43a14.64,14.64,0,0,0-1.61,20,1.79,1.79,0,0,1-.17,2.53A1.77,1.77,0,0,1,5876.67,488.65Z" transform="translate(-4870.95 -265)"/><path class="cls-7" d="M5008.92,1597.93c-18.95,2.17-44.52,15.38-35.87,32.37,34.48,16.88,74.55,16.46,112.94,15.69l535.16-10.74c12.72-.26,29.08-3.47,31.1-16,2.46-15.33-18.6-22-34.11-22.5C5417.52,1590.52,5208.47,1575.09,5008.92,1597.93Z" transform="translate(-4870.95 -265)"/><path class="cls-25" d="M5427.87,894.58s-158.62,16.45-173.77,8c-9.85-5.47-141.77-105-141.77-105-8.42-9.26-23.43-28.7-19.36-57.22,5.05-35.34,50.49-39.55,65.63-21.87,6.37,7.42,128.31,121,128.31,121L5427,855.89Z" transform="translate(-4870.95 -265)"/><path class="cls-26" d="M5212.25,769.07c-15.06,28.19-46.83,55.24-59.8,61.13-16.15-17.33-40.12-32.61-40.12-32.61-8.42-9.26-23.43-28.7-19.36-57.22,5.05-35.34,47.93-37,65.63-21.87C5175,732.53,5184.34,741.83,5212.25,769.07Z" transform="translate(-4870.95 -265)"/><path class="cls-21" d="M5277.66,855.66a1.84,1.84,0,0,0,1.07-.34c.26-.19,6.41-4.67,9.93-15.22a1.84,1.84,0,1,0-3.49-1.16c-3.12,9.33-8.53,13.35-8.59,13.39a1.84,1.84,0,0,0,1.08,3.33Z" transform="translate(-4870.95 -265)"/><path class="cls-25" d="M5428,859.89s3.53-8.87,7.83-12.52c12.26-10.44,40.27-16.79,40.27-16.79l-4.69,8.61,10.59-2.78,18.78,6.26s4.17,5.22,2.61,11c0,0,5.22,4.17,1,11.47,0,0,3.13,6.26,0,11.48,0,0,1.57,3.13-1.56,9.39s-16.52,8.35-16.52,8.35l-2.09-7s-22.09,14.27-33,15.83-22.44-7.31-22.44-7.31Z" transform="translate(-4870.95 -265)"/><polygon class="cls-15" points="569.15 510.59 514.52 617.54 505.22 610.57 561.02 508.27 569.15 510.59"/><polygon class="cls-15" points="452.57 1130.63 480.03 1130.63 609.04 798.56 581.58 798.56 452.57 1130.63"/><path class="cls-13" d="M5444.33,768.51l-74,138.76,56.4,122.71,27.4-.29-41.63-117.55,49-120.38A18.73,18.73,0,0,0,5458,772l-4.31-4.7A5.78,5.78,0,0,0,5444.33,768.51Z" transform="translate(-4870.95 -265)"/><polygon class="cls-15" points="644.9 510.59 590.26 617.54 580.96 610.57 636.76 508.27 644.9 510.59"/><path class="cls-13" d="M5520.07,768.51l-74,138.76,56.4,122.71,27.39-.29-41.63-117.55,49.05-120.38a18.75,18.75,0,0,0-3.54-19.73l-4.31-4.7A5.78,5.78,0,0,0,5520.07,768.51Z" transform="translate(-4870.95 -265)"/><path class="cls-27" d="M5351,1397.47a1.84,1.84,0,0,0,1.72-1.18l128.94-332.07a1.84,1.84,0,0,0-3.43-1.33L5349.27,1395a1.83,1.83,0,0,0,1,2.38A1.72,1.72,0,0,0,5351,1397.47Z" transform="translate(-4870.95 -265)"/><path class="cls-13" d="M5529.86,1029.69s-22,42.28-59.61,37.85-43.53-37.56-43.53-37.56h27.4s7.71,19,28.53,13.2,19.82-13.2,19.82-13.2Z" transform="translate(-4870.95 -265)"/><path class="cls-25" d="M5145.51,683.28c-1.49,7.48.66,16.73,1.37,21.65,0,0-19,2-33.05-2.14s-26-12.82-26-12.82,16.09-19.1,24.37-54.24c.2-.83,3.11,1.42,3.11,1.42l24.21,11,10.75,15.73S5147.52,673.17,5145.51,683.28Z" transform="translate(-4870.95 -265)"/><path class="cls-21" d="M5150.25,663.88s-2.73,9.29-4.74,19.4c-8.76-3.51-22.47-12.14-25.05-17.74s-4.41-21.24-5.17-28.39l24.21,11Z" transform="translate(-4870.95 -265)"/><path class="cls-28" d="M5087.91,551.4s-12.88-23.54-25-23.54-44.15,18.76-40.84,67.33-27.59,125.82-21,142.38,32,51.88,25.39,64l-6.62,12.14s14.35,2.21,24.28-3.31,22.07-28.7,26.49-58.5,2.21-65.12-1.1-89.41,2.2-75,3.31-79.47,8-5,8-5Z" transform="translate(-4870.95 -265)"/><path class="cls-29" d="M5031.21,659.54a1.32,1.32,0,0,0,1.22-.83c5.1-13,4.59-27.29,4.1-41.11-.49-13.61-1-27.69,4-40.22,2.14-5.4,5.29-10.46,8.33-15.35,1.64-2.63,3.49-5.6,6.29-7.09,4.71-2.5,10.63-.25,15.82,2a1.31,1.31,0,0,0,1.07-2.39c-6.18-2.75-12.65-4.89-18.12-2-3.42,1.82-5.56,5.26-7.28,8-3.11,5-6.32,10.15-8.55,15.76-5.17,13.05-4.66,27.4-4.16,41.28.48,13.55,1,27.56-3.92,40.06a1.32,1.32,0,0,0,.74,1.7A1.36,1.36,0,0,0,5031.21,659.54Z" transform="translate(-4870.95 -265)"/><path class="cls-29" d="M5038.29,776.53a1.32,1.32,0,0,0,1.23-.86c2.47-6.62.2-13.5-2-20.15-.28-.86-.57-1.72-.84-2.58a87.42,87.42,0,0,1-1.31-47.63,1.31,1.31,0,0,0-2.54-.65,90.07,90.07,0,0,0,1.35,49.08c.28.86.56,1.73.85,2.61,2.06,6.21,4.18,12.65,2,18.41a1.31,1.31,0,0,0,.77,1.68A1.25,1.25,0,0,0,5038.29,776.53Z" transform="translate(-4870.95 -265)"/><path class="cls-29" d="M5037.43,725.13l.22,0a1.31,1.31,0,0,0,1.07-1.51c-2-11.7,1.06-23.11,4.27-35.19,2.72-10.23,5.53-20.82,4.95-31.5a1.31,1.31,0,1,0-2.62.14c.56,10.27-2.2,20.65-4.86,30.69-3.14,11.82-6.39,24-4.32,36.3A1.31,1.31,0,0,0,5037.43,725.13Z" transform="translate(-4870.95 -265)"/><path class="cls-30" d="M5096,554s-5.89-3.31-8.1-2.58c-4.41,1.48-9.2,11-10.3,13.62s-2.21,12.87-.74,13.61,7,.37,7,.37Z" transform="translate(-4870.95 -265)"/><path class="cls-28" d="M5194.24,571.45s5.79-15.72,4.14-20.69-36.42-25.66-44.7-29-39.74,7.45-48.84,15.72-24,35.6-24,40.57,2.21,47.92,6.35,58.68,13.61,16.56,19.31,15.82c7.11-.92,13.06-20.23,13.06-20.23Z" transform="translate(-4870.95 -265)"/><path class="cls-29" d="M5098.29,618.31a1.31,1.31,0,0,0,.7-2.42c-1.93-1.23-2.63-4-3.05-6.51a104.05,104.05,0,0,1-1.1-24.87,1.31,1.31,0,0,0-2.62-.2,106.72,106.72,0,0,0,1.14,25.5c.51,3.11,1.42,6.52,4.23,8.3A1.38,1.38,0,0,0,5098.29,618.31Z" transform="translate(-4870.95 -265)"/><path class="cls-29" d="M5157.09,564a1.29,1.29,0,0,0,1-.46c3.91-4.58,2.14-11.68-1.73-15.64s-9.56-5.74-14.11-7.16a1.31,1.31,0,1,0-.78,2.5c4.49,1.4,9.58,3,13,6.5,3.08,3.14,4.46,8.75,1.61,12.1a1.31,1.31,0,0,0,.15,1.85A1.29,1.29,0,0,0,5157.09,564Z" transform="translate(-4870.95 -265)"/><path class="cls-29" d="M5101.17,587.92a1.22,1.22,0,0,0,.32,0,1.32,1.32,0,0,0,.95-1.59,48.86,48.86,0,0,1,0-23.64,1.31,1.31,0,1,0-2.54-.63,51.46,51.46,0,0,0,0,24.91A1.31,1.31,0,0,0,5101.17,587.92Z" transform="translate(-4870.95 -265)"/><path class="cls-25" d="M5137.76,569.9a34.21,34.21,0,0,1,.56,22.07c-3.87,11.59-14,12.31-14,12.31s-7.17-5.52-13.8,0-2.2,27,1.66,31.45,7.73,3.87,7.73,3.87,1.65,14.35,8.27,20.42,29.8,19.86,43.6,15.45c8.16-2.61,18.77-33.65,19.87-38.62,0,0,8.86-2.67,10-6s-8.64-13-8.64-21.26,4.74-15.82,3.64-24.1-6.63-22.62-6.63-22.62-8.83,5-17.1,1.65c0,0-11.8,9.63-21.19,8.53S5137.76,569.9,5137.76,569.9Z" transform="translate(-4870.95 -265)"/><path class="cls-21" d="M5121,634.43a1.72,1.72,0,0,0,1.68-1.31c.11-.43.59-2.92-.81-9.09a25.77,25.77,0,0,0-4.5-10.11,1.76,1.76,0,0,0-2.47-.22,1.73,1.73,0,0,0-.22,2.45,22.9,22.9,0,0,1,3.78,8.66c1.22,5.4.83,7.48.82,7.5a1.77,1.77,0,0,0,1.33,2.07A1.74,1.74,0,0,0,5121,634.43Z" transform="translate(-4870.95 -265)"/><path class="cls-21" d="M5121,629.2a1.78,1.78,0,0,0,1-.33,1.74,1.74,0,0,0,.38-2.44c-2.83-3.9-9.41-2.24-10.15-2a1.75,1.75,0,1,0,.92,3.37h0c1.6-.43,5.28-.82,6.41.72A1.73,1.73,0,0,0,5121,629.2Z" transform="translate(-4870.95 -265)"/><path class="cls-21" d="M5186.33,637.6a1.75,1.75,0,0,0,0-3.49c-1.57,0-4-.61-4.4-1.6-.68-1.58.06-4.48.37-5.38A1.74,1.74,0,0,0,5179,626c-.17.48-1.63,4.8-.29,7.92,1.5,3.51,6.94,3.7,7.55,3.71Z" transform="translate(-4870.95 -265)"/><path class="cls-23" d="M5172.27,602.07c4.71,0,4.22,13.78-.94,13C5166.51,614.28,5166.64,602.07,5172.27,602.07Z" transform="translate(-4870.95 -265)"/><path class="cls-28" d="M5159.35,596.77s2.42-4,5.82-5.09c4.41-1.47,20.29,1.47,20.29,1.47a6.62,6.62,0,0,1-3,4.25c-2.5,1.44-12.72,0-14.64-.33C5162.05,596.05,5159.35,596.77,5159.35,596.77Z" transform="translate(-4870.95 -265)"/><path class="cls-31" d="M5142,625.25c-3.95,4.74,8.83,14.35,13.25,11S5144.74,621.94,5142,625.25Z" transform="translate(-4870.95 -265)"/><path class="cls-21" d="M5185.22,649.82a1.75,1.75,0,0,0,1-3.22c-1.51-1-4.16-.86-8.35-.54-1.63.12-3.31.25-4.76.25-3.09,0-7.13-2.71-8.42-3.75a1.75,1.75,0,0,0-2.2,2.72c.23.18,5.65,4.53,10.62,4.53,1.58,0,3.33-.14,5-.26,2.16-.17,5.43-.42,6.17,0A1.72,1.72,0,0,0,5185.22,649.82Z" transform="translate(-4870.95 -265)"/><path class="cls-23" d="M5165.16,607a1.35,1.35,0,0,0,.78-.26c.07-.05,7.31-5.25,10.61-1.07a1.31,1.31,0,1,0,2.06-1.62c-4.87-6.17-13.84.3-14.22.58a1.31,1.31,0,0,0,.77,2.37Z" transform="translate(-4870.95 -265)"/><path class="cls-30" d="M5321.67,1275.91l-63.35-1.74c2.32-29.64-3.74-130.64,13-172.58,0,0-126.42-12.85-145.6-21.57S5138,963.2,5138,963.2s206.37,57.67,219.75,74.21C5377.84,1062.31,5327.78,1240.8,5321.67,1275.91Z" transform="translate(-4870.95 -265)"/><path class="cls-32" d="M5271.35,1103.43a1.85,1.85,0,0,0,1.82-1.59c1.57-11.53,15.55-17.07,15.69-17.13a1.84,1.84,0,1,0-1.32-3.43c-.66.25-16.15,6.36-18,20.06a1.85,1.85,0,0,0,1.58,2.08Z" transform="translate(-4870.95 -265)"/><path class="cls-25" d="M5322.46,1270.8s-11.69,34.88-11.77,61c0,0-11.73-.59-19,3.73s-6.28,9.37-6.28,9.37c-15.64,3.07-27.71-9.65-27.71-9.65l2.37-15.18-1.27-57.52C5278.3,1279.09,5322.46,1270.8,5322.46,1270.8Z" transform="translate(-4870.95 -265)"/><path class="cls-26" d="M5372.89,1401.07a15.52,15.52,0,0,1-4.85,10c-9,3.25-19.22,6.13-29.58,4.84-18.2-2.3-35.85-11.91-41-15.35-3-1.71-5.33-9.39-11.57-11.64a7.48,7.48,0,0,0-1.33-.35c-5.55-.94-10.29,4.69-10.52,5v0a50.21,50.21,0,0,1-8.59-2.54,62.16,62.16,0,0,1-24.39-17.67,64.49,64.49,0,0,1,4-13.81,149.55,149.55,0,0,1,12.62-24.28s12.07,12.72,27.71,9.65c0,0-1-5,6.28-9.37s19-3.73,19-3.73c3.7,24.8,34.71,39.31,57.88,53.91C5372.43,1392,5373.3,1397.09,5372.89,1401.07Z" transform="translate(-4870.95 -265)"/><path class="cls-33" d="M5307.41,1376.08a1.84,1.84,0,0,0,.94-3.43c-16.84-9.93-21.11-28-21.15-28.15a1.84,1.84,0,1,0-3.59.82c.18.8,4.68,19.78,22.87,30.5A1.9,1.9,0,0,0,5307.41,1376.08Z" transform="translate(-4870.95 -265)"/><path class="cls-33" d="M5292.19,1354.7a1.82,1.82,0,0,0,.92-.25c.15-.09,14.73-8.5,22.85-8.5h0a1.84,1.84,0,0,0,0-3.68H5316c-9.11,0-24.06,8.63-24.7,9a1.85,1.85,0,0,0,.93,3.44Z" transform="translate(-4870.95 -265)"/><path class="cls-33" d="M5298.08,1364a1.76,1.76,0,0,0,1.09-.36c.12-.08,11.42-8.41,22.1-10a1.84,1.84,0,0,0-.53-3.65c-11.61,1.69-23.27,10.29-23.76,10.66a1.84,1.84,0,0,0,1.1,3.31Z" transform="translate(-4870.95 -265)"/><path class="cls-33" d="M5306.32,1370.49a1.82,1.82,0,0,0,1.1-.37c3.66-2.74,14.4-9.8,20.09-9.61a1.84,1.84,0,1,0,.12-3.68c-8.14-.26-21.84,9.91-22.42,10.35a1.84,1.84,0,0,0-.37,2.57A1.87,1.87,0,0,0,5306.32,1370.49Z" transform="translate(-4870.95 -265)"/><path class="cls-3" d="M5368,1411.06c-9,3.25-19.22,6.13-29.58,4.84,0-5.1.4-14.77,4.62-19.66a30.27,30.27,0,0,1,25.49-10.52C5378.79,1402.28,5368,1411.06,5368,1411.06Z" transform="translate(-4870.95 -265)"/><path class="cls-3" d="M5274.08,1393.54v0a50.21,50.21,0,0,1-8.59-2.54c2-8.16,5.86-26.9.34-32.11-6.95-6.55-14.26-13-14.26-13l3.45-6.09s15.91,11.08,20.86,17.08C5282.4,1364.85,5274.27,1392.87,5274.08,1393.54Z" transform="translate(-4870.95 -265)"/><path class="cls-33" d="M5284.6,1388.56c-5.55-.94-10.29,4.69-10.52,5v0a50.21,50.21,0,0,1-8.59-2.54,62.16,62.16,0,0,1-24.39-17.67,64.49,64.49,0,0,1,4-13.81C5245.81,1360.38,5266.39,1383.43,5284.6,1388.56Z" transform="translate(-4870.95 -265)"/><path class="cls-33" d="M5372.89,1401.07a15.52,15.52,0,0,1-4.85,10c-9,3.25-19.22,6.13-29.58,4.84-18.2-2.3-35.85-11.91-41-15.35-3-1.71-5.33-9.39-11.57-11.64,18.86,4.41,42.65,17.73,60.8,17C5361.48,1405.43,5370.15,1402.24,5372.89,1401.07Z" transform="translate(-4870.95 -265)"/><polygon class="cls-15" points="264.88 1130.63 237.42 1130.63 134.93 828.53 162.39 828.53 264.88 1130.63"/><path class="cls-15" d="M5107,1087.58h-135.8a7,7,0,0,0-7,7c0,5.1,1.14,11.48,6.4,13.73,9.28,4,132.37,0,132.37,0Z" transform="translate(-4870.95 -265)"/><path class="cls-10" d="M5096.15,1069.7H4950a9.26,9.26,0,0,0-9.27,9.25c0,6.71,1.5,15.1,8.42,18.07,10.47,4.49,123.69,1.28,155.77.27a6.63,6.63,0,0,0,6.19-8.39l-2.74-9.91A12.67,12.67,0,0,0,5096.15,1069.7Z" transform="translate(-4870.95 -265)"/><path class="cls-25" d="M5201.15,806.46c0,18.6-38.36,58.12-38.36,58.12s-1.05,7.42-2.81,18.47c-2.43,15.36-6.2,37.71-10.36,56.93-.79,3.61-1.58,7.1-2.38,10.43-.22.9-.42,1.81-.62,2.72-37.24,5.7-90.62,13.55-90.62,13.55l-35.9-27.82c5.33-7.2,10.31-13.84,14.82-22.36,4.15-7.81,7.91-17.2,11.19-30a150.27,150.27,0,0,0,3.54-22.78c3.14-34.18,1.36-82.15,6.93-110.9,7-36,35.16-70.33,35.16-70.33l1.29.81c20.3,12.65,36.28,13.62,44.88,12.78a29.84,29.84,0,0,0,7-1.38c.27,1.67.64,3.37,1.09,5.12C5155.28,735.9,5201.15,788.71,5201.15,806.46Z" transform="translate(-4870.95 -265)"/><circle class="cls-8" cx="5128.36" cy="1478.45" r="21.59" transform="translate(-5046.35 1810.08) rotate(-22.5)"/><circle class="cls-8" cx="5193.14" cy="1489.41" r="13.31" transform="translate(-2320.52 5936.43) rotate(-76.72)"/><path class="cls-13" d="M5067.15,1408.18l-18.57,31.51a38.71,38.71,0,0,0-4,29.8l35.82,131.89h320.84l31.68-126a38.68,38.68,0,0,0-2.55-26l-15.21-32.1a38.73,38.73,0,0,0-34.15-22.13l-279.69-6A38.74,38.74,0,0,0,5067.15,1408.18Z" transform="translate(-4870.95 -265)"/><path class="cls-15" d="M5400.66,1469.25H5232.1L5217,1443.67h164.44a19.23,19.23,0,0,1,19.23,19.24Z" transform="translate(-4870.95 -265)"/><polygon class="cls-15" points="537.69 1222.85 432.01 1222.85 425.78 1212.26 540.94 1212.26 537.69 1222.85"/><path class="cls-14" d="M5094.71,1567.86h289.1a1.84,1.84,0,0,0,0-3.68H5097.49l-28.68-101.63a1.84,1.84,0,1,0-3.54,1Z" transform="translate(-4870.95 -265)"/><polygon class="cls-10" points="297.22 1238.15 225.15 1191.65 233.29 1171.89 310.01 1217.23 297.22 1238.15"/><path class="cls-15" d="M5469.6,1608.35H5017.86v-7.53a22.85,22.85,0,0,1,22.85-22.85h406a22.85,22.85,0,0,1,22.85,22.85Z" transform="translate(-4870.95 -265)"/><circle class="cls-13" cx="192.89" cy="1345.97" r="25.28"/><circle class="cls-8" cx="5063.84" cy="1610.97" r="14" transform="translate(-2538.42 5904.22) rotate(-76.72)"/><circle class="cls-13" cx="546.86" cy="1345.97" r="25.28"/><circle class="cls-8" cx="5418.39" cy="1610.97" r="14" transform="translate(-4423.07 4038.22) rotate(-45)"/><path class="cls-25" d="M5188.64,1340.42s-18.58,32.63-23.81,58.79c0,0-11.62-2.9-19.77,0s-8.13,8.14-8.13,8.14c-16.27,0-25.86-15.12-25.86-15.12l6-13.17,9.46-59.43C5142.77,1340,5188.64,1340.42,5188.64,1340.42Z" transform="translate(-4870.95 -265)"/><path class="cls-26" d="M5213.49,1480.82a15.85,15.85,0,0,1-6.82,9.06c-9.69,1.47-20.45,2.35-30.58-1-17.78-5.89-33.56-19-38-23.43-2.71-2.32-3.49-10.46-9.3-14a6.88,6.88,0,0,0-1.26-.6c-5.37-2-11.23,2.66-11.52,2.91h0a50.44,50.44,0,0,1-8.11-4.23,63.3,63.3,0,0,1-20.94-22.5,65.41,65.41,0,0,1,6.7-13,152.75,152.75,0,0,1,17.42-21.83s9.59,15.12,25.86,15.12c0,0,0-5.24,8.13-8.14s19.77,0,19.77,0c-1.17,25.57,27,46.2,47.37,65.39C5214.83,1471.6,5214.69,1476.92,5213.49,1480.82Z" transform="translate(-4870.95 -265)"/><path class="cls-33" d="M5153.2,1442.9a1.84,1.84,0,0,0,1.22-3.22c-14.88-13.23-15.65-32.2-15.65-32.39a1.84,1.84,0,0,0-3.68.11c0,.84.79,20.72,16.89,35A1.85,1.85,0,0,0,5153.2,1442.9Z" transform="translate(-4870.95 -265)"/><path class="cls-33" d="M5142.16,1418.49a2.09,2.09,0,0,0,.6-.1c.16-.06,16.48-5.63,24.61-4a1.84,1.84,0,1,0,.72-3.61c-9.1-1.82-25.82,3.89-26.53,4.14a1.84,1.84,0,0,0,.6,3.58Z" transform="translate(-4870.95 -265)"/><path class="cls-33" d="M5146.23,1429a1.82,1.82,0,0,0,.79-.18c.13-.06,13.1-6.19,24.11-5.64a1.84,1.84,0,1,0,.18-3.67c-11.94-.6-25.31,5.72-25.88,6a1.84,1.84,0,0,0,.8,3.5Z" transform="translate(-4870.95 -265)"/><path class="cls-33" d="M5153.2,1437.09a1.77,1.77,0,0,0,.8-.19c4.21-2,16.36-7,22-5.67a1.84,1.84,0,0,0,.83-3.59c-8.1-1.87-23.8,5.63-24.47,5.95a1.84,1.84,0,0,0,.8,3.5Z" transform="translate(-4870.95 -265)"/><path class="cls-3" d="M5206.67,1489.88c-9.69,1.47-20.45,2.35-30.58-1,1-5.11,3.31-14.72,8.5-18.78a30.92,30.92,0,0,1,27.61-5.52C5219.17,1483.2,5206.67,1489.88,5206.67,1489.88Z" transform="translate(-4870.95 -265)"/><path class="cls-3" d="M5116,1453.83h0a50.44,50.44,0,0,1-8.11-4.23c3.63-7.78,11.17-25.79,6.67-32.09-5.67-7.93-11.73-15.79-11.73-15.79l4.65-5.42s13.76,14.23,17.53,21.21C5130,1426.73,5116.33,1453.2,5116,1453.83Z" transform="translate(-4870.95 -265)"/><path class="cls-33" d="M5127.53,1450.92c-5.37-2-11.23,2.66-11.52,2.91h0a50.44,50.44,0,0,1-8.11-4.23,63.3,63.3,0,0,1-20.94-22.5,65.41,65.41,0,0,1,6.7-13C5094.23,1415.05,5110.3,1442.19,5127.53,1450.92Z" transform="translate(-4870.95 -265)"/><path class="cls-33" d="M5213.49,1480.82a15.85,15.85,0,0,1-6.82,9.06c-9.69,1.47-20.45,2.35-30.58-1-17.78-5.89-33.56-19-38-23.43-2.71-2.32-3.49-10.46-9.3-14,18,8.14,39.23,26.16,57.55,29.06C5201.21,1482.94,5210.52,1481.46,5213.49,1480.82Z" transform="translate(-4870.95 -265)"/><path class="cls-32" d="M5253.75,1152.19c-1.56,14.84-39.81,125.34-65.11,188.23-34.75,2-53.61-11.72-62.16-20.79,3.66-27.12,6-56.06,10.45-75,8.13-34.87,17.44-75.56,17.44-75.56s-139.65-87.27-154.76-107-16.3-56.41-2.33-86c14.18-30,27.15-39.69,37.64-59.48l1.89-2.13s38.94,45.25,112.81,25.61c-.78,3.61-1.58,7.1-2.38,10.43-8.13,33.71-8.42,66.84-8.42,66.84S5256.08,1130.1,5253.75,1152.19Z" transform="translate(-4870.95 -265)"/><path class="cls-34" d="M5143.7,1332.12c.25-1.35,25.62-135,31.34-155.58,2.9-10.46,7.87-13.25,11.5-15.29,3.25-1.82,6.93-3.89,4.74-10.47-2.77-8.3-10.64-6.54-16.39-5.25a23.31,23.31,0,0,1-6.57.9c1-.74,2.51-1.65,3.63-2.34,4.66-2.86,9.94-6.1,10.19-10.53.12-2.18-1-4.18-3.25-6-3.9-3-18.94-12.67-38-24.86-32-20.48-75.78-48.53-87.47-58.75-11.47-10-29.06-30.59-18-55.46,9.18-20.66,26.54-57.71,26.72-58.08l-4.17-2c-.17.37-17.55,37.45-26.75,58.16-8.95,20.13-2,42.29,19.18,60.79,11.95,10.45,55.91,38.61,88,59.16,18.2,11.66,33.91,21.72,37.64,24.62.7.54,1.52,1.34,1.48,2.06-.11,2-5.05,5.06-8,6.87-3.95,2.42-6.81,4.17-6.8,6.77a3.54,3.54,0,0,0,1.92,3.06c3.09,1.85,7.23.92,11.24,0,6.65-1.49,9.7-1.73,11,2.22,1,3,.58,3.2-2.62,5-4.09,2.29-10.27,5.76-13.68,18.07-5.78,20.77-30.39,150.44-31.43,156Z" transform="translate(-4870.95 -265)"/><path class="cls-30" d="M5112.5,964.1c22.19,0,32.68-5.08,33.25-5.36a1.84,1.84,0,0,0-1.65-3.3c-.17.09-17.52,8.39-54.73,3.31-37.05-5-56.94-33.79-57.13-34.08a1.84,1.84,0,0,0-3.05,2.07c.84,1.23,21,30.38,59.69,35.66A174.39,174.39,0,0,0,5112.5,964.1Z" transform="translate(-4870.95 -265)"/><path class="cls-30" d="M5188.64,1342.26a1.85,1.85,0,0,0,1.73-1.21c2.68-7.4,65.68-181.32,64.5-195.51s-97.27-110.67-108.58-122c-51.22-62.84-80.71-57.78-81.94-57.53a1.84,1.84,0,0,0,.71,3.61c.37-.07,29-4.41,78.44,56.31l.12.14c42.8,42.8,106.77,110,107.58,119.75.92,11.11-46.1,143.77-64.29,193.94a1.83,1.83,0,0,0,1.1,2.36A2,2,0,0,0,5188.64,1342.26Z" transform="translate(-4870.95 -265)"/><path class="cls-30" d="M5154.37,1170.89a1.84,1.84,0,0,0,1.73-1.23c5.32-14.9,19.87-16.17,20.49-16.22a1.84,1.84,0,0,0-.27-3.67c-.71,0-17.54,1.45-23.69,18.66a1.84,1.84,0,0,0,1.12,2.35A1.88,1.88,0,0,0,5154.37,1170.89Z" transform="translate(-4870.95 -265)"/><circle class="cls-15" cx="5128.36" cy="1478.45" r="9.59" transform="translate(-5046.35 1810.08) rotate(-22.5)"/><path class="cls-26" d="M5201.15,806.46c0,18.6-38.36,58.12-38.36,58.12s-1.05,7.42-2.81,18.47c-53.54,10.42-91.73-7.3-110.33-19.36,3.14-34.18,1.36-82.15,6.93-110.9,7-36,35.16-70.33,35.16-70.33l1.29.81c20.3,12.65,36.28,13.62,44.88,12.78a29.84,29.84,0,0,0,7-1.38c.27,1.67.64,3.37,1.09,5.12C5155.28,735.9,5201.15,788.71,5201.15,806.46Z" transform="translate(-4870.95 -265)"/><path class="cls-33" d="M5131.91,710.11c12.38,0,15.94-2.14,16.66-2.71A2.14,2.14,0,0,0,5146,704c-.28.16-6.38,3.49-31.65.77a49.71,49.71,0,0,1-28.61-13,2.14,2.14,0,0,0-3.11,3A53.35,53.35,0,0,0,5113.89,709,168.49,168.49,0,0,0,5131.91,710.11Z" transform="translate(-4870.95 -265)"/><path class="cls-33" d="M5091.9,698.79a2.13,2.13,0,0,0,1.86-1.08l3.81-6.63a2.14,2.14,0,0,0-3.72-2.13l-3.8,6.62a2.14,2.14,0,0,0,.79,2.93A2,2,0,0,0,5091.9,698.79Z" transform="translate(-4870.95 -265)"/><path class="cls-33" d="M5100.81,699.16a2.15,2.15,0,0,0,2-1.35l2.77-6.95a2.15,2.15,0,0,0-4-1.59l-2.76,7A2.14,2.14,0,0,0,5100,699,2.22,2.22,0,0,0,5100.81,699.16Z" transform="translate(-4870.95 -265)"/><path class="cls-33" d="M5107.36,701.47a2.14,2.14,0,0,0,2.06-1.55,32.55,32.55,0,0,0,1.25-7.9,2.15,2.15,0,1,0-4.29-.13,27.42,27.42,0,0,1-1.08,6.84,2.14,2.14,0,0,0,1.47,2.65A2.06,2.06,0,0,0,5107.36,701.47Z" transform="translate(-4870.95 -265)"/><path class="cls-33" d="M5114.19,706.86a2.14,2.14,0,0,0,2.09-1.7l2.07-9.65a2.14,2.14,0,1,0-4.19-.9l-2.07,9.66a2.14,2.14,0,0,0,1.65,2.54A2.3,2.3,0,0,0,5114.19,706.86Z" transform="translate(-4870.95 -265)"/><path class="cls-33" d="M5121.67,702.23a2.14,2.14,0,0,0,2.05-1.53,12.93,12.93,0,0,0,.46-5.1,2.14,2.14,0,0,0-4.26.46,9,9,0,0,1-.31,3.42,2.14,2.14,0,0,0,1.44,2.66A2.21,2.21,0,0,0,5121.67,702.23Z" transform="translate(-4870.95 -265)"/><path class="cls-33" d="M5127.05,709.21a2.15,2.15,0,0,0,2.14-2l.93-10.44a2.14,2.14,0,1,0-4.27-.39l-.93,10.45a2.14,2.14,0,0,0,1.94,2.33Z" transform="translate(-4870.95 -265)"/><path class="cls-33" d="M5137.94,703a2.05,2.05,0,0,0,1-.25,2.14,2.14,0,0,0,.91-2.89,5.35,5.35,0,0,1-.53-3.31,2.14,2.14,0,1,0-4.23-.7,9.62,9.62,0,0,0,1,6A2.13,2.13,0,0,0,5137.94,703Z" transform="translate(-4870.95 -265)"/><path class="cls-33" d="M5145.31,708.44a2.17,2.17,0,0,0,1.18-.36,2.13,2.13,0,0,0,.6-3,11.25,11.25,0,0,1-1.83-6.17,2.14,2.14,0,0,0-2.13-2.15h0a2.15,2.15,0,0,0-2.14,2.13,15.5,15.5,0,0,0,2.55,8.56A2.14,2.14,0,0,0,5145.31,708.44Z" transform="translate(-4870.95 -265)"/><path class="cls-33" d="M5153,858.82a2.14,2.14,0,0,0,.15-4.28c-18-1.24-26.86-11-26.95-11.13a2.14,2.14,0,1,0-3.2,2.85c.4.45,10.17,11.2,29.85,12.55Z" transform="translate(-4870.95 -265)"/><path class="cls-33" d="M5186.67,775.87a2.1,2.1,0,0,0,1.28-.43,2.14,2.14,0,0,0,.43-3c-8.76-11.69-30.49-53.11-30.71-53.53a2.14,2.14,0,0,0-3.8,2c.9,1.72,22.11,42.15,31.08,54.11A2.15,2.15,0,0,0,5186.67,775.87Z" transform="translate(-4870.95 -265)"/><path class="cls-25" d="M5357.45,905.94s-130.58,25-146.27,16.28c-10.21-5.67-56.61-54.55-87.76-88-16.73-18-29.07-31.45-29.07-31.45-8.72-9.59-24.27-29.74-20.05-59.29,5.23-36.62,52.31-41,68-22.67,6.6,7.7,25.85,33,45.93,59.68,27.67,36.81,57,76.33,57,76.33l111.4,9Z" transform="translate(-4870.95 -265)"/><path class="cls-21" d="M5356.58,867.68a1.84,1.84,0,0,0,.15-3.67l-110.57-8.94c-4-5.38-31.06-41.89-56.46-75.67a1.84,1.84,0,1,0-2.94,2.21c27.35,36.38,56.65,75.92,56.94,76.32l.5.67,112.23,9.08Z" transform="translate(-4870.95 -265)"/><path class="cls-26" d="M5188.23,780.5c-15.6,29.21-51.37,47.63-64.81,53.73-16.73-18-29.07-31.45-29.07-31.45-8.72-9.59-24.27-29.74-20.05-59.29,5.23-36.62,52.31-41,68-22.67C5148.9,728.52,5168.15,753.8,5188.23,780.5Z" transform="translate(-4870.95 -265)"/><path class="cls-21" d="M5235.59,873.49a1.84,1.84,0,0,0,1.07-.34c.27-.19,6.63-4.83,10.26-15.74a1.84,1.84,0,0,0-3.49-1.16c-3.26,9.78-8.85,13.86-8.91,13.9a1.84,1.84,0,0,0,1.07,3.34Z" transform="translate(-4870.95 -265)"/><path class="cls-25" d="M5354.71,868.33s3.66-9.19,8.11-13c12.7-10.81,34.33-16.49,34.33-16.49l-4.87,8.92,18.38-3.78,19.46,6.49s4.33,5.4,2.71,11.35c0,0,5.4,4.32,1.08,11.89,0,0,3.24,6.49,0,11.89,0,0,1.62,3.25-1.62,9.74s-17.12,8.64-17.12,8.64l-2.17-7.2s-22.88,14.77-34.23,16.39-23.25-7.57-23.25-7.57Z" transform="translate(-4870.95 -265)"/><path class="cls-21" d="M5354.7,870.17a1.83,1.83,0,0,0,1.71-1.16c0-.09,3.55-8.81,7.6-12.26,12.23-10.41,33.39-16,33.6-16.11a1.84,1.84,0,1,0-.93-3.56c-.9.24-22.18,5.91-35.05,16.87-4.75,4-8.48,13.31-8.63,13.7a1.84,1.84,0,0,0,1,2.39A1.86,1.86,0,0,0,5354.7,870.17Z" transform="translate(-4870.95 -265)"/><path class="cls-21" d="M5415.16,905.85a1.43,1.43,0,0,0,.29,0c1.52-.23,14.92-2.51,18.48-9.64,2.63-5.27,2.37-8.75,2-10.37,2.41-4.78.86-9.94.05-12,2.91-5.81.92-10.36-1.1-12.59,1.1-6.31-3.1-11.66-3.29-11.89a1.84,1.84,0,0,0-2.88,2.29c.08.1,3.71,4.81,2.37,9.72l-.32,1.17,1,.76c.41.34,4,3.6.63,9.54l-.49.85.44.88c0,.06,2.74,5.68.07,10.13l-.52.86.45.91h0s1.07,2.7-1.62,8.08c-2.31,4.62-12.16,7.09-15.76,7.66a1.84,1.84,0,0,0,.28,3.66Z" transform="translate(-4870.95 -265)"/><path class="cls-21" d="M5432.83,863.68a1.84,1.84,0,0,0,.67-3.56l-15.14-5.94a1.84,1.84,0,0,0-1.34,3.42l15.13,5.95A1.79,1.79,0,0,0,5432.83,863.68Z" transform="translate(-4870.95 -265)"/><path class="cls-21" d="M5433.91,875.57a1.84,1.84,0,0,0,.53-3.6l-16.22-4.87a1.84,1.84,0,0,0-1.06,3.53l16.22,4.86A1.59,1.59,0,0,0,5433.91,875.57Z" transform="translate(-4870.95 -265)"/><path class="cls-21" d="M5433.91,887.47a1.84,1.84,0,0,0,.58-3.59l-16.22-5.41a1.84,1.84,0,1,0-1.16,3.49l16.22,5.41A1.91,1.91,0,0,0,5433.91,887.47Z" transform="translate(-4870.95 -265)"/><path class="cls-21" d="M5412,898.64c-.68-.23-2.27-.78-3.72-8a1.84,1.84,0,1,1,3.61-.72,32,32,0,0,0,1.31,4.7,67.33,67.33,0,0,1,9.2-3,1.84,1.84,0,0,1,.95,3.56c-3.78,1-8.35,2.48-9.11,3.06a2.28,2.28,0,0,1-2.24.45Zm-.17-3.24Z" transform="translate(-4870.95 -265)"/><path class="cls-33" d="M5123.42,836.37a2.08,2.08,0,0,0,.88-.19c14.54-6.59,50.05-25.12,65.82-54.67a2.12,2.12,0,0,0-.17-2.29c-24.82-33-40.3-53.12-46-59.79a2.15,2.15,0,0,0-3.26,2.79c5.52,6.43,21.08,26.64,45,58.47-15,26.81-47.08,44.13-61.76,50.95-16-17.19-27.87-30.18-28-30.31-15.91-17.48-22.47-36.84-19.52-57.54a2.14,2.14,0,1,0-4.24-.6c-3.15,22,3.78,42.55,20.59,61,.13.14,12.53,13.71,29.08,31.47A2.12,2.12,0,0,0,5123.42,836.37Z" transform="translate(-4870.95 -265)"/></g></svg>