<svg id="_01" data-name="01" xmlns="http://www.w3.org/2000/svg" viewBox="0 0 3138.76 2600"><defs><style>.cls-1{fill:#f5f5f7;}.cls-2{fill:#7a8db0;}.cls-3{fill:#40947e;}.cls-4{fill:#244f47;}.cls-5{fill:#6fc183;}.cls-6{opacity:0.83;}.cls-7{fill:#527eb2;}.cls-8{fill:#98b7e5;opacity:0.76;}.cls-9{fill:#1d2f59;}.cls-10{fill:#476b9e;}.cls-11{fill:#585858;}.cls-12{fill:#99b1da;}.cls-13{fill:#2a477f;}.cls-14{fill:#d1dbed;}.cls-15{fill:#b5cae8;}.cls-16{fill:#2e4ea4;}.cls-17{fill:#f4aea2;}.cls-18{fill:#adadad;}.cls-19{fill:#f18d98;}.cls-20{fill:#3d5891;}.cls-21{fill:#2f4171;}.cls-22{fill:#6ec88d;}.cls-23,.cls-29{opacity:0.1;}.cls-24{opacity:0.6;}.cls-25{fill:#414141;}.cls-26{fill:#1f1f1f;}.cls-27{fill:#c6666a;}.cls-28{fill:#202020;}.cls-30{fill:#facc88;}.cls-31{fill:#f4a471;}.cls-32{fill:#f7dbb5;}.cls-33{opacity:0.44;}.cls-34{fill:#fff;}.cls-35{fill:#93493a;}.cls-36{opacity:0.26;}</style></defs><path class="cls-1" d="M3122.42,2223.73c-403.16-1.92-995.17-23.16-1393.12-18-389.68,5.1-568.06-338.55-568-871.07,0-395.93,336.45-1090.94,1095.79-1035.92,192.89,14,328.16,107.29,475.63,225.69,65.7,52.75,134.57,100.08,213.57,128.87,106.76,38.92,214.34,34,325.2,41.39C3423.59,704.82,3561.71,797.9,3652.81,921c293.91,397.06,243.32,1068-259.55,1256.25C3306.67,2209.65,3214.38,2224.16,3122.42,2223.73Z" transform="translate(-770.62 -260)"/><ellipse class="cls-2" cx="1602.31" cy="2004.19" rx="1220.7" ry="228.3"/><path class="cls-3" d="M1534.65,2324.35l-.2.13a288.3,288.3,0,0,0-158.37-87c-42.38-7.74-92.34-9.06-117.75-43.84-21.23-29.07-15.31-68.81-13.73-104.77,4.74-108.64-109.31-112.49-187.76-145.46-87.11-36.61-158.19-93-175.62-190.81-24.15-135.56,103.18-117.37,192.19-89.82,86.73,26.85,204.5-17.63,248.46,83.67,21.46,49.45,34.71,103.33,90,125.55,30,12,63.29,11.16,95.37,15,52.78,6.28,95.22,31.73,97.43,89.5,1.1,28.93-6.37,57.5-7.58,86.42-2.71,65,28.56,130.42,80.81,169.13Z" transform="translate(-770.62 -260)"/><path class="cls-4" d="M1624.71,2265.86q-61.56-82.89-130.85-159.43a1932.39,1932.39,0,0,0-146.15-145c-51.38-45.46-105-88.34-161.36-127.28-28.14-19.5-56.91-38.08-86.4-55.42q-22.08-13.07-44.76-25c-15.12-8-30.39-15.65-46.08-22.41,15.39,7.39,30.32,15.69,45.07,24.24s29.28,17.5,43.58,26.78c28.66,18.45,56.52,38.11,83.7,58.63,54.42,41,105.88,85.69,154.91,132.77A1912.34,1912.34,0,0,1,1475,2122.88q65.23,78.16,122.51,162.32Z" transform="translate(-770.62 -260)"/><path class="cls-5" d="M1638.05,2245.89h-.26a309.08,309.08,0,0,0-87.54-172.75c-32.82-32.49-76.24-63.87-77.68-110-1.21-38.57,28.08-70.16,51.22-101,69.92-93.26-28.68-165.66-78.16-242.29-54.94-85.09-83.72-178-40-275.09,60.64-134.56,162.31-41.44,224.41,36.79,60.51,76.21,191.63,108.09,169.25,224.32-10.92,56.75-31.79,112.44,3.69,165.55,19.23,28.79,49.25,48.16,75.33,71,42.9,37.48,65.06,85.67,32.07,138.14-16.52,26.26-40.41,47-59,71.88-41.7,55.85-53.62,132.69-30.8,198.55Z" transform="translate(-770.62 -260)"/><path class="cls-4" d="M1753.11,2248.62q-4.32-110.6-19.35-220.24a2069.51,2069.51,0,0,0-41.58-216.76c-18-71.3-39.48-141.7-65.79-210.24-13.11-34.28-27.33-68.13-42.94-101.3q-11.62-24.93-24.45-49.24c-8.57-16.19-17.43-32.25-27.22-47.71,9.15,15.85,17.33,32.22,25.22,48.71s15.31,33.19,22.36,50.06c14.2,33.67,27,67.91,38.61,102.51,23.37,69.18,41.85,139.87,56.76,211.19a2047.49,2047.49,0,0,1,32.37,215.92q10.44,108.61,10.22,217.74Z" transform="translate(-770.62 -260)"/><path class="cls-3" d="M3273.36,2179.54l.2.13A279.26,279.26,0,0,1,3427,2095.41c41.06-7.5,89.47-8.78,114.09-42.48,20.57-28.16,14.83-66.67,13.31-101.51-4.6-105.27,105.91-109,181.92-140.94,84.4-35.48,153.27-90.12,170.16-184.88,23.4-131.35-100-113.72-186.22-87-84,26-198.14-17.09-240.73,81.06-20.79,47.91-33.64,100.12-87.2,121.65-29,11.67-61.32,10.82-92.41,14.52-51.13,6.09-92.25,30.74-94.39,86.73-1.07,28,6.17,55.7,7.34,83.72,2.63,63-27.67,126.37-78.3,163.88Z" transform="translate(-770.62 -260)"/><path class="cls-4" d="M3186.1,2122.87q59.64-80.31,126.79-154.48a1869.9,1869.9,0,0,1,141.6-140.53c49.78-44,101.74-85.61,156.34-123.33,27.27-18.9,55.14-36.9,83.72-53.69q21.39-12.67,43.36-24.28c14.66-7.71,29.46-15.17,44.65-21.71-14.91,7.16-29.37,15.2-43.67,23.48s-28.36,17-42.22,26c-27.77,17.88-54.77,36.92-81.1,56.8-52.73,39.7-102.58,83-150.09,128.65a1849.59,1849.59,0,0,0-134.29,144.61q-63.21,75.72-118.71,157.27Z" transform="translate(-770.62 -260)"/><path class="cls-5" d="M3173.18,2103.52h.25a299.4,299.4,0,0,1,84.82-167.38c31.79-31.48,73.86-61.89,75.26-106.61,1.17-37.36-27.2-68-49.63-97.88-67.74-90.36,27.79-160.51,75.73-234.76,53.23-82.45,81.12-172.46,38.75-266.54C3339.61,1100,3241.1,1190.2,3180.93,1266c-58.63,73.84-185.68,104.73-164,217.35,10.59,55,30.81,108.94-3.57,160.4-18.63,27.89-47.72,46.66-73,68.74-41.57,36.32-63,83-31.07,133.85,16,25.44,39.16,45.56,57.14,69.65,40.41,54.11,52,128.56,29.84,192.37Z" transform="translate(-770.62 -260)"/><path class="cls-4" d="M3061.69,2106.16q4.18-107.14,18.74-213.39a2005.46,2005.46,0,0,1,40.3-210c17.41-69.09,38.25-137.29,63.74-203.71,12.7-33.21,26.48-66,41.61-98.15q11.27-24.15,23.69-47.71c8.3-15.69,16.89-31.24,26.37-46.23-8.86,15.36-16.79,31.22-24.43,47.2s-14.84,32.16-21.67,48.5c-13.76,32.62-26.13,65.8-37.41,99.33-22.64,67-40.55,135.52-55,204.63a1983.42,1983.42,0,0,0-31.37,209.2q-10.11,105.24-9.9,211Z" transform="translate(-770.62 -260)"/><g class="cls-6"><path class="cls-7" d="M2900.56,434.58V866c-75.87-5.72-154.31-8.72-234.62-8.72s-158.77,3-234.64,8.72V434.58c75.87,5.73,154.32,8.73,234.64,8.73S2824.69,440.31,2900.56,434.58Z" transform="translate(-770.62 -260)"/><path class="cls-7" d="M1753.11,282.84c163.16,73.1,386.59,126.34,641.29,148.73V869c-254.7,22.39-478.13,75.62-641.29,148.72Z" transform="translate(-770.62 -260)"/><path class="cls-7" d="M3578.76,282.85v734.9c-163.17-73.09-386.59-126.32-641.3-148.71V431.57C3192.17,409.18,3415.59,356,3578.76,282.85Z" transform="translate(-770.62 -260)"/></g><path class="cls-8" d="M2876.58,411V840.3c-75.49-5.7-153.55-8.68-233.46-8.68s-158,3-233.47,8.68V411c75.48,5.7,153.55,8.68,233.47,8.68S2801.09,416.69,2876.58,411Z" transform="translate(-770.62 -260)"/><path class="cls-7" d="M2723.81,629.65a69.62,69.62,0,1,1-63.13-99v69.61S2706.53,622.08,2723.81,629.65Z" transform="translate(-770.62 -260)"/><path class="cls-7" d="M2723.81,629.65a69.62,69.62,0,1,1-63.13-99v69.61S2706.53,622.08,2723.81,629.65Z" transform="translate(-770.62 -260)"/><path class="cls-7" d="M2672.64,511.49v-9.62h9.9a2.41,2.41,0,0,0,2.41-2.42v-16.9a2.41,2.41,0,0,0-2.41-2.41h-43.75a2.41,2.41,0,0,0-2.42,2.41v16.9a2.42,2.42,0,0,0,2.42,2.42h9.9v9.62A89.26,89.26,0,0,0,2603,531.67l-4.33-4.35,4.65-4.63a1.6,1.6,0,0,0,0-2.26l-7.9-7.95a1.62,1.62,0,0,0-2.27,0l-20.55,20.46a1.6,1.6,0,0,0,0,2.26l7.91,7.95a1.6,1.6,0,0,0,2.26,0l4.65-4.63,4.37,4.39a89.68,89.68,0,1,0,80.83-31.42Zm-12,168.09a79.31,79.31,0,1,1,79.3-79.3A79.4,79.4,0,0,1,2660.66,679.58Z" transform="translate(-770.62 -260)"/><path class="cls-7" d="M2527.11,745.8a36.21,36.21,0,0,1,2.34-13.14,21.33,21.33,0,0,1,7.08-9.83,18.43,18.43,0,0,1,11.71-3.74,19.12,19.12,0,0,1,9.42,2.2,20.6,20.6,0,0,1,6.73,5.93,26.83,26.83,0,0,1,3.94,8.58,39.26,39.26,0,0,1,1.25,10,35.09,35.09,0,0,1-2.33,12.94,22.54,22.54,0,0,1-7.22,9.83,20.37,20.37,0,0,1-23.5,0,21.38,21.38,0,0,1-7.08-9.76A35.82,35.82,0,0,1,2527.11,745.8Zm12,0a28.82,28.82,0,0,0,.87,7,15.06,15.06,0,0,0,3,5.93,6.56,6.56,0,0,0,5.26,2.34,6.89,6.89,0,0,0,5.51-2.34,16,16,0,0,0,3-5.93,29.49,29.49,0,0,0,.84-7,31.23,31.23,0,0,0-.84-7.21,16,16,0,0,0-3-5.93,6.89,6.89,0,0,0-5.51-2.34,6.56,6.56,0,0,0-5.26,2.34,15.06,15.06,0,0,0-3,5.93A29.66,29.66,0,0,0,2539.11,745.8Z" transform="translate(-770.62 -260)"/><path class="cls-7" d="M2568.12,745.8a36.21,36.21,0,0,1,2.34-13.14,21.24,21.24,0,0,1,7.07-9.83,18.46,18.46,0,0,1,11.72-3.74,19.12,19.12,0,0,1,9.42,2.2,20.81,20.81,0,0,1,6.73,5.93,27,27,0,0,1,3.94,8.58,39.71,39.71,0,0,1,1.25,10,35.1,35.1,0,0,1-2.34,12.94,22.52,22.52,0,0,1-7.21,9.83,20.39,20.39,0,0,1-23.51,0,21.29,21.29,0,0,1-7.07-9.76A35.82,35.82,0,0,1,2568.12,745.8Zm12,0a28.82,28.82,0,0,0,.87,7,15.06,15.06,0,0,0,3,5.93,6.56,6.56,0,0,0,5.26,2.34,6.9,6.9,0,0,0,5.51-2.34,16.17,16.17,0,0,0,3-5.93,29.49,29.49,0,0,0,.84-7,31.23,31.23,0,0,0-.84-7.21,16.17,16.17,0,0,0-3-5.93,6.9,6.9,0,0,0-5.51-2.34,6.56,6.56,0,0,0-5.26,2.34,15.06,15.06,0,0,0-3,5.93A29.66,29.66,0,0,0,2580.12,745.8Z" transform="translate(-770.62 -260)"/><path class="cls-7" d="M2617.77,749.92a6,6,0,0,1-4.36-1.88,5.72,5.72,0,0,1-1.77-4.24,5.93,5.93,0,0,1,1.77-4.42,6.25,6.25,0,0,1,10.64,4.42,5.83,5.83,0,0,1-1.87,4.26A6,6,0,0,1,2617.77,749.92Zm0,22.52a6.13,6.13,0,0,1-4.36-1.84,6,6,0,0,1-1.77-4.43,6.21,6.21,0,0,1,10.56-4.36,6.13,6.13,0,0,1,1.85,4.36,6.3,6.3,0,0,1-6.28,6.27Z" transform="translate(-770.62 -260)"/><path class="cls-7" d="M2645.71,723.73q2.45-3.76,7.5-3.76a11.46,11.46,0,0,1,4.64,1,8.39,8.39,0,0,1,3.34,2.93,7.88,7.88,0,0,1,1.22,4.43v21.79h2.19q6,0,6,5.13a5.12,5.12,0,0,1-1.36,3.8,6,6,0,0,1-4.36,1.43h-2.47v5.13a6,6,0,0,1-1.57,4.42,5.56,5.56,0,0,1-4.13,1.57,4.91,4.91,0,0,1-3.93-1.64,6.07,6.07,0,0,1-1.5-4.22v-5.26h-19a6.26,6.26,0,0,1-4.3-1.29,4.09,4.09,0,0,1-1.57-3.35,8,8,0,0,1,1.43-4.43Zm-5.24,26.36h10.81V732h-.14Z" transform="translate(-770.62 -260)"/><path class="cls-7" d="M2674.12,725.65a7.6,7.6,0,0,1,1.43-4c.77-.91,2.24-1.36,4.43-1.36h17.85a4.84,4.84,0,0,1,3.87,1.56,5.8,5.8,0,0,1,1.43,3.84,5.65,5.65,0,0,1-1.43,3.73,5,5,0,0,1-4,1.57h-13.63l-.87,6.28a28.58,28.58,0,0,1,5.16-.63,14.6,14.6,0,0,1,8.12,2.27,15.68,15.68,0,0,1,5.3,6.13,19.48,19.48,0,0,1,1.78,8.44,18.75,18.75,0,0,1-.64,5,18.31,18.31,0,0,1-1.94,4.52,17.46,17.46,0,0,1-6.83,6.86,18.68,18.68,0,0,1-9.45,2.51,27.9,27.9,0,0,1-7.15-1,16.54,16.54,0,0,1-6.49-3.2,7.78,7.78,0,0,1-2.93-5.58,5.26,5.26,0,0,1,1.5-3.84,4.63,4.63,0,0,1,3.67-1.57,7.81,7.81,0,0,1,3.76,1.19,14.07,14.07,0,0,0,7.36,2.93,7.51,7.51,0,0,0,3.33-.89,6.74,6.74,0,0,0,2.39-2.53,10.82,10.82,0,0,0,1-4.22,8.86,8.86,0,0,0-1.61-5.33A5.21,5.21,0,0,0,2685,746a6.69,6.69,0,0,0-2,.28c-.26.1-1.05.43-2.37,1s-2.13,1-2.2,1a8.39,8.39,0,0,1-1.92.42c-2.95-.21-4.43-1.84-4.43-4.91q.11-2.79.42-5.58.32-2.58.81-6.07C2673.63,730,2673.91,727.81,2674.12,725.65Z" transform="translate(-770.62 -260)"/><path class="cls-7" d="M2718.93,749.92a6,6,0,0,1-4.36-1.88,5.69,5.69,0,0,1-1.78-4.24,5.9,5.9,0,0,1,1.78-4.42,6,6,0,0,1,4.36-1.87,6.35,6.35,0,0,1,6.28,6.29,5.87,5.87,0,0,1-1.87,4.26A6,6,0,0,1,2718.93,749.92Zm0,22.52a6.12,6.12,0,0,1-4.36-1.84,6,6,0,0,1-1.78-4.43,6.08,6.08,0,0,1,6.14-6.14,6,6,0,0,1,4.43,1.78,6.13,6.13,0,0,1,1.85,4.36,6.3,6.3,0,0,1-6.28,6.27Z" transform="translate(-770.62 -260)"/><path class="cls-7" d="M2736.78,765.44V731h-3.66a4.89,4.89,0,0,1-3.83-1.5,5.72,5.72,0,0,1,0-7.57,4.69,4.69,0,0,1,3.83-1.63h9.52q5.71,0,5.72,5.85v39.34a6.14,6.14,0,0,1-1.57,4.56,5.39,5.39,0,0,1-4.15,1.57,5.69,5.69,0,0,1-4.22-1.57A6,6,0,0,1,2736.78,765.44Z" transform="translate(-770.62 -260)"/><path class="cls-7" d="M2760.63,725.65a7.6,7.6,0,0,1,1.43-4c.77-.91,2.24-1.36,4.43-1.36h17.85a4.84,4.84,0,0,1,3.87,1.56,5.8,5.8,0,0,1,1.43,3.84,5.65,5.65,0,0,1-1.43,3.73,5,5,0,0,1-4,1.57h-13.63l-.87,6.28a28.58,28.58,0,0,1,5.16-.63,14.57,14.57,0,0,1,8.12,2.27,15.68,15.68,0,0,1,5.3,6.13,19.48,19.48,0,0,1,1.78,8.44,18.75,18.75,0,0,1-.64,5,18.31,18.31,0,0,1-1.94,4.52,17.46,17.46,0,0,1-6.83,6.86,18.68,18.68,0,0,1-9.45,2.51,27.9,27.9,0,0,1-7.15-1,16.54,16.54,0,0,1-6.49-3.2,7.78,7.78,0,0,1-2.93-5.58,5.26,5.26,0,0,1,1.5-3.84,4.63,4.63,0,0,1,3.67-1.57,7.81,7.81,0,0,1,3.76,1.19,14.07,14.07,0,0,0,7.36,2.93,7.51,7.51,0,0,0,3.33-.89,6.74,6.74,0,0,0,2.39-2.53,10.82,10.82,0,0,0,1-4.22,8.86,8.86,0,0,0-1.61-5.33,5.21,5.21,0,0,0-4.56-2.24,6.69,6.69,0,0,0-2,.28c-.26.1-1,.43-2.37,1s-2.13,1-2.2,1a8.39,8.39,0,0,1-1.92.42c-2.95-.21-4.43-1.84-4.43-4.91q.1-2.79.42-5.58.32-2.58.81-6.07C2760.14,730,2760.42,727.81,2760.63,725.65Z" transform="translate(-770.62 -260)"/><path class="cls-8" d="M1734.82,260c162.35,72.74,384.67,125.71,638.11,148V843.3c-253.44,22.28-475.76,75.24-638.11,148Z" transform="translate(-770.62 -260)"/><g id="Heart"><path class="cls-7" d="M2050.2,674.78h0l-19.72-14.53a393.77,393.77,0,0,1-55-45.61c-24-24.18-46.26-51.9-46.17-90.35a59.38,59.38,0,0,1,16.31-41l.27-.4c12-12.28,25-17.73,43.5-17.44,33.14.44,47.28,18.6,56.62,36.28l4,7.49,4-6.94c9.29-16.41,23.38-32.62,56.53-28.51,18.51,2.25,31.56,9.49,43.56,23.41l.27.44a68,68,0,0,1,16.43,43.24c.18,38.46-22,63.14-45.94,84-15.56,13.58-33.65,26.14-54.92,38.06l-19.69,11.82Z" transform="translate(-770.62 -260)"/></g><path class="cls-7" d="M1922.93,776.11l-.06-38.1-4.13.37a5.24,5.24,0,0,1-4.34-1.27,5.61,5.61,0,0,1-1.62-4.06,6.58,6.58,0,0,1,1.61-4.3,5.9,5.9,0,0,1,4.33-2.2l10.76-.95q6.45-.58,6.47,5.89L1936,775a7.3,7.3,0,0,1-1.77,5.2,6.75,6.75,0,0,1-4.68,2.15,5.62,5.62,0,0,1-6.63-6.19Z" transform="translate(-770.62 -260)"/><path class="cls-7" d="M1962.92,743.12q4.92-1.71,4.91-5.71a3.11,3.11,0,0,0-1.54-2.93,7.46,7.46,0,0,0-4.37-.63,9.28,9.28,0,0,0-4,2.32c-2.23,2.05-3.49,3.21-3.78,3.5a7.5,7.5,0,0,1-4,2,4.64,4.64,0,0,1-3.71-1.33,5.6,5.6,0,0,1-1.7-4.13,14,14,0,0,1,3.38-7.31,22.06,22.06,0,0,1,6.85-5.27,26.26,26.26,0,0,1,8.86-2.37,17.68,17.68,0,0,1,8.24,1.47,14,14,0,0,1,6.15,5,13.36,13.36,0,0,1,2.18,7.7,13.58,13.58,0,0,1-1.61,6.35,15.1,15.1,0,0,1-4.64,5.38,12.45,12.45,0,0,1,7,5.08,14.65,14.65,0,0,1,2.26,8.16,17,17,0,0,1-2.63,9.29,20.8,20.8,0,0,1-7.2,7,24.21,24.21,0,0,1-9.69,3.33,28.78,28.78,0,0,1-9.65-.95,17.24,17.24,0,0,1-8.08-4.53,11.06,11.06,0,0,1-2.45-3.52,10.51,10.51,0,0,1-.8-4.12,6.28,6.28,0,0,1,1.77-4.44,6.18,6.18,0,0,1,4.21-2.11,5.81,5.81,0,0,1,5.72,2.58q2.73,4.53,6.86,4.74a6.61,6.61,0,0,1,1.78.15,7.44,7.44,0,0,0,4.84-2.47,6.87,6.87,0,0,0,1.77-4.89,5.18,5.18,0,0,0-6-5.44c-.89.05-2.08,0-3.55,0a6.35,6.35,0,0,1-2.24-1q-1.74-1.12-2.1-4.48a5.46,5.46,0,0,1,2.08-4A18.17,18.17,0,0,1,1962.92,743.12Z" transform="translate(-770.62 -260)"/><path class="cls-7" d="M1996.15,725.65a9,9,0,0,1,1.61-4.62q1.29-1.6,5-1.94l20.17-1.79a5.14,5.14,0,0,1,4.38,1.34,5.82,5.82,0,0,1,1.62,4.1,6.79,6.79,0,0,1-1.61,4.26,6.27,6.27,0,0,1-4.53,2.14l-15.4,1.36-1,7a34.85,34.85,0,0,1,5.83-1.22,16,16,0,0,1,9.18,1.69,15.5,15.5,0,0,1,6,6.25,20,20,0,0,1,2,9.15,21.22,21.22,0,0,1-.72,5.55,24.23,24.23,0,0,1-9.9,13.46,23.14,23.14,0,0,1-10.67,3.72,31.72,31.72,0,0,1-8.08-.4,17.35,17.35,0,0,1-7.33-2.89,7.68,7.68,0,0,1-3.32-5.87,6.26,6.26,0,0,1,1.69-4.39,5.74,5.74,0,0,1,4.13-2.1,8.51,8.51,0,0,1,4.26.93,14.94,14.94,0,0,0,8.32,2.5,9.27,9.27,0,0,0,3.76-1.32,8.38,8.38,0,0,0,2.69-3,12.3,12.3,0,0,0,1.14-4.77,9,9,0,0,0-1.82-5.73,5.43,5.43,0,0,0-5.17-2,7.84,7.84,0,0,0-2.24.5c-.29.13-1.18.58-2.68,1.36s-2.4,1.3-2.48,1.34a10.12,10.12,0,0,1-2.17.65c-3.33.07-5-1.6-5-5,.08-2.06.23-4.13.47-6.2s.53-4.18.89-6.79C1995.6,730.49,1995.92,728.06,1996.15,725.65Z" transform="translate(-770.62 -260)"/><path class="cls-7" d="M2060,764.08l.09-48.2a6.67,6.67,0,0,1,1.93-4.91,6.58,6.58,0,0,1,4.38-2.12,5.87,5.87,0,0,1,4.43,1.41,6.23,6.23,0,0,1,1.87,4.89l0,25.81,12-13c1.87-1.8,3.59-2.78,5.16-2.92a5.76,5.76,0,0,1,4.53,1.33,4.9,4.9,0,0,1,1.78,3.81,6.78,6.78,0,0,1-2.31,4.52L2085,744.3l11.8,13.59a5.18,5.18,0,0,1-.34,8.09,8.56,8.56,0,0,1-5,1.94,5.38,5.38,0,0,1-2.88-.74,15.12,15.12,0,0,1-2.92-2.75l-12.86-15.19h-.16l0,13.56a7,7,0,0,1-1.93,5.14,6.87,6.87,0,0,1-4.55,2.22,5.56,5.56,0,0,1-4.36-1.33A6,6,0,0,1,2060,764.08Z" transform="translate(-770.62 -260)"/><path class="cls-7" d="M2104,730.13q6.39-7.65,17.19-8.61a30.19,30.19,0,0,1,6.31.44,11.77,11.77,0,0,1,5.17,2.08,5.24,5.24,0,0,1,2.26,4.62,6,6,0,0,1-1.3,3.89,5.11,5.11,0,0,1-3.46,2,2.72,2.72,0,0,0-.63.21,20.67,20.67,0,0,1-4.18-.71,12.76,12.76,0,0,0-4.61-.63,9.32,9.32,0,0,0-6.79,3.53,12.22,12.22,0,0,0-2.5,7.85q0,7.2,5.18,9.1a17.6,17.6,0,0,0,3.63.48,27.25,27.25,0,0,0,6-1.72l.28-.12a2.68,2.68,0,0,1,.39-.15l.4-.15.55-.27a7,7,0,0,1,1.69-.57,4.74,4.74,0,0,1,2.76.56,4.39,4.39,0,0,1,1.93,1.8,5.31,5.31,0,0,1,.72,2.71q0,5.31-9.58,8.55a38.83,38.83,0,0,1-5.75,1.17,18,18,0,0,1-14.88-5.3,22.14,22.14,0,0,1-4.35-6.75,21.88,21.88,0,0,1-1.71-8.2,31.5,31.5,0,0,1,1.53-8.81A21.29,21.29,0,0,1,2104,730.13Z" transform="translate(-770.62 -260)"/><path class="cls-7" d="M2139.2,730.09a28.62,28.62,0,0,1,3-4.37,20.76,20.76,0,0,1,3.68-3.43,19.45,19.45,0,0,1,9-3.77,16,16,0,0,1,6.88.62,14.61,14.61,0,0,1,4.7,3.17,7.38,7.38,0,0,1,2.31-3.14,7,7,0,0,1,3.46-1.27,5.54,5.54,0,0,1,6.29,5.92l0,30a6.9,6.9,0,0,1-1.52,4.34,6.15,6.15,0,0,1-4.08,2.48,6.69,6.69,0,0,1-4.37-.85,5.82,5.82,0,0,1-2.08-2.43,14.5,14.5,0,0,1-10.76,5.62,15.94,15.94,0,0,1-10.27-2.25,17.76,17.76,0,0,1-6.79-7.68,25.8,25.8,0,0,1-2.66-10.59A28.1,28.1,0,0,1,2139.2,730.09Zm18.06.13a8.29,8.29,0,0,0-6.19,3.55,13,13,0,0,0-2.44,7.61,11.15,11.15,0,0,0,2.38,7.15,6.84,6.84,0,0,0,6.28,2.45,9.74,9.74,0,0,0,4.78-1.77,10.28,10.28,0,0,0,3-4,14.48,14.48,0,0,0,.94-5.36,10.89,10.89,0,0,0-2.26-7.2A7.13,7.13,0,0,0,2157.26,730.22Z" transform="translate(-770.62 -260)"/><path class="cls-7" d="M2184,753.39l-.07-48.5a6.85,6.85,0,0,1,1.77-4.72,6.56,6.56,0,0,1,4.49-2.23,5.76,5.76,0,0,1,4.53,1.41,5.83,5.83,0,0,1,1.78,4.42l.07,48.5a6.58,6.58,0,0,1-1.77,4.67,6.86,6.86,0,0,1-4.52,2.21,5.34,5.34,0,0,1-4.5-1.41A5.53,5.53,0,0,1,2184,753.39Z" transform="translate(-770.62 -260)"/><path class="cls-8" d="M3551.42,260V991.27c-162.36-72.73-384.67-125.69-638.12-148V408C3166.75,385.71,3389.06,332.75,3551.42,260Z" transform="translate(-770.62 -260)"/><path class="cls-7" d="M3231.25,698.43,3215,619.65l40.19,21.29-14-88.13,46.94,118.79L3242,657.78l21.2,45s35.92,2.78,55.19-24.29,30-69.09,7.44-106.64c-7,40.46-43.3.37-42.25-25s1.57-93.63-48.14-122.41c14.13,17.77,10,79.31-10.9,88.92s-27.35-15.42-18.36-27.32c-20.1,1.43-27.27,17-25.78,40.68s21.76,49.16,11.41,67.78-28.05-10.69-22.64-34.1c-20.72,19.63-18.18,74.13,3.34,99.8S3218.73,696.74,3231.25,698.43Z" transform="translate(-770.62 -260)"/><path class="cls-7" d="M3121.22,778.42l.66-39.39-3.8-.51a5.56,5.56,0,0,1-3.95-2.25,7.57,7.57,0,0,1-1.42-4.54,6.09,6.09,0,0,1,1.56-4.11,4.21,4.21,0,0,1,4-1.33l9.88,1.33c4,.54,5.91,3,5.83,7.5l-.75,44.93c0,2.28-.61,4-1.72,5a4.79,4.79,0,0,1-4.34,1.21,6.41,6.41,0,0,1-4.35-2.38A8.08,8.08,0,0,1,3121.22,778.42Z" transform="translate(-770.62 -260)"/><path class="cls-7" d="M3158.53,753q4.56-.71,4.62-4.85a4.16,4.16,0,0,0-1.36-3.36,7.39,7.39,0,0,0-4-1.6,6.54,6.54,0,0,0-3.73,1.54c-2.08,1.63-3.26,2.57-3.53,2.79a5.26,5.26,0,0,1-3.69,1.22,5.05,5.05,0,0,1-3.37-2.17,7.45,7.45,0,0,1-1.49-4.63,12.16,12.16,0,0,1,3.24-6.83,15.3,15.3,0,0,1,6.38-4,19.75,19.75,0,0,1,8.18-.53,17.35,17.35,0,0,1,7.53,3.29,18.14,18.14,0,0,1,5.56,6.5,17.65,17.65,0,0,1,1.85,8.43,13.51,13.51,0,0,1-1.59,6.21,11.3,11.3,0,0,1-4.36,4.57,15.92,15.92,0,0,1,6.35,6.76,19.27,19.27,0,0,1,1.92,8.92,16.45,16.45,0,0,1-2.59,9,15,15,0,0,1-6.73,5.72,17.66,17.66,0,0,1-9,1.35,26.79,26.79,0,0,1-8.84-3.07,21.07,21.07,0,0,1-7.34-6.42,15.58,15.58,0,0,1-2.18-4.16,13.57,13.57,0,0,1-.65-4.44,5.62,5.62,0,0,1,1.71-4.2,4.31,4.31,0,0,1,3.9-1.27,6.63,6.63,0,0,1,5.2,3.89q2.42,5.28,6.21,6.39a6,6,0,0,1,1.62.54,5.36,5.36,0,0,0,4.5-1.51,6.36,6.36,0,0,0,1.71-4.68,7.24,7.24,0,0,0-1.34-4.5,6,6,0,0,0-4.07-2.42,29.22,29.22,0,0,1-3.25-.8,7,7,0,0,1-2-1.47q-1.58-1.53-1.84-5.08c.25-1.83.91-3,2-3.64A12.25,12.25,0,0,1,3158.53,753Z" transform="translate(-770.62 -260)"/><path class="cls-7" d="M3189.36,742.06a8.28,8.28,0,0,1,1.56-4.42q1.22-1.39,4.62-.93l18.55,2.5a5.5,5.5,0,0,1,4,2.33,7.81,7.81,0,0,1,1.41,4.59,6.16,6.16,0,0,1-1.56,4.06,4.51,4.51,0,0,1-4.19,1.23l-14.16-1.91-1,7a26.33,26.33,0,0,1,5.37,0,15.93,15.93,0,0,1,8.4,3.73,20.89,20.89,0,0,1,5.39,7.75,25.85,25.85,0,0,1,1.68,9.89,22.66,22.66,0,0,1-.76,5.59,19.4,19.4,0,0,1-2.1,4.88,16.17,16.17,0,0,1-7.23,6.89,16.87,16.87,0,0,1-9.86,1.55,28.74,28.74,0,0,1-7.41-2.16,19.56,19.56,0,0,1-6.67-4.57,10.38,10.38,0,0,1-2.94-6.79,5.69,5.69,0,0,1,1.63-4.17,4.11,4.11,0,0,1,3.83-1.28,8.67,8.67,0,0,1,3.89,1.88,15.84,15.84,0,0,0,7.59,4.38,6.74,6.74,0,0,0,3.48-.55,6.17,6.17,0,0,0,2.52-2.55,12.3,12.3,0,0,0,1.14-4.68,11.9,11.9,0,0,0-1.57-6.32,6.47,6.47,0,0,0-6.77-3.15c-.27.07-1.09.35-2.48.83s-2.23.83-2.3.84a7.31,7.31,0,0,1-2,.21q-4.61-1-4.51-6.23c.11-2.12.29-4.22.54-6.32.25-1.93.57-4.21,1-6.82C3188.77,747,3189.1,744.5,3189.36,742.06Z" transform="translate(-770.62 -260)"/><path class="cls-7" d="M3247.27,795.58l1-49.81a6,6,0,0,1,1.86-4.66,4.71,4.71,0,0,1,4.06-1.25,6.42,6.42,0,0,1,4,2.42,8.23,8.23,0,0,1,1.62,5.45l-.45,26.69,11.26-10.82c1.74-1.47,3.34-2.1,4.78-1.91a6.19,6.19,0,0,1,4.14,2.36,6.58,6.58,0,0,1,1.56,4.32,5.77,5.77,0,0,1-2.21,4.17l-8.38,8,10.58,16.59a6.9,6.9,0,0,1,1.56,4.48,4.4,4.4,0,0,1-2,3.8,6.2,6.2,0,0,1-4.63.94,5.63,5.63,0,0,1-2.63-1.4,19.81,19.81,0,0,1-2.63-3.46L3259.24,783l-.15,0-.23,14a6.32,6.32,0,0,1-1.87,4.89,4.87,4.87,0,0,1-4.21,1.31,5.93,5.93,0,0,1-4-2.31A8,8,0,0,1,3247.27,795.58Z" transform="translate(-770.62 -260)"/><path class="cls-7" d="M3288.21,770q6-6.53,15.94-5.19a28,28,0,0,1,5.78,1.82,13.35,13.35,0,0,1,4.71,3.26,7,7,0,0,1,2,5.26,5.68,5.68,0,0,1-1.26,3.75,3.65,3.65,0,0,1-3.22,1.36,1.7,1.7,0,0,0-.58.08,20.78,20.78,0,0,1-3.82-1.63,12.11,12.11,0,0,0-4.22-1.65,6.62,6.62,0,0,0-6.3,2.18c-1.57,1.82-2.38,4.34-2.43,7.58q-.14,7.46,4.58,10.52a16.39,16.39,0,0,0,3.32,1.28,19.73,19.73,0,0,0,5.52-.49l.26-.06a2.3,2.3,0,0,1,.36-.07l.37-.07.51-.16a4.82,4.82,0,0,1,1.56-.22,4.72,4.72,0,0,1,2.52,1.17,5.81,5.81,0,0,1,1.74,2.28,7.09,7.09,0,0,1,.61,2.95q-.09,5.51-8.95,6.78a28.73,28.73,0,0,1-5.3,0,18,18,0,0,1-7.55-2.81,23.82,23.82,0,0,1-6-5.88,30.65,30.65,0,0,1-3.86-7.91,28.1,28.1,0,0,1-1.42-8.85,33.49,33.49,0,0,1,1.57-8.77A17.81,17.81,0,0,1,3288.21,770Z" transform="translate(-770.62 -260)"/><path class="cls-7" d="M3320.54,777.52a23.36,23.36,0,0,1,2.84-3.87,14.92,14.92,0,0,1,3.45-2.75,13.87,13.87,0,0,1,8.35-1.95,15.1,15.1,0,0,1,6.29,2.13,18.46,18.46,0,0,1,4.26,4.29,5.58,5.58,0,0,1,2.18-2.74,5,5,0,0,1,3.19-.57,6.17,6.17,0,0,1,4.05,2.34,7.8,7.8,0,0,1,1.62,5.13l-.52,31.07a6.45,6.45,0,0,1-1.48,4.15,4.32,4.32,0,0,1-3.8,1.68,6.74,6.74,0,0,1-4-1.81,7.94,7.94,0,0,1-1.87-3q-3.6,4.35-10,3.49a16.36,16.36,0,0,1-9.38-4.54,24.14,24.14,0,0,1-6.09-9.41,33.52,33.52,0,0,1-2.24-11.52A27.64,27.64,0,0,1,3320.54,777.52Zm16.57,4a5.89,5.89,0,0,0-5.75,2.34,12.41,12.41,0,0,0-2.38,7.34,14.79,14.79,0,0,0,2.05,7.9,7.67,7.67,0,0,0,5.72,3.89,7.1,7.1,0,0,0,4.42-.8,7.8,7.8,0,0,0,2.82-3.49,15.35,15.35,0,0,0,1-5.34,14.31,14.31,0,0,0-1.95-7.93A7.93,7.93,0,0,0,3337.11,781.55Z" transform="translate(-770.62 -260)"/><path class="cls-7" d="M3361.17,811.26l.84-50.15a6.26,6.26,0,0,1,1.71-4.5,4.67,4.67,0,0,1,4.16-1.33,6.21,6.21,0,0,1,4.14,2.43,7.86,7.86,0,0,1,1.55,5l-.84,50.15a6,6,0,0,1-1.71,4.44,4.86,4.86,0,0,1-4.2,1.31,5.76,5.76,0,0,1-4.1-2.43A7.43,7.43,0,0,1,3361.17,811.26Z" transform="translate(-770.62 -260)"/><rect class="cls-9" x="1920.75" y="1129.76" width="54.74" height="549.31"/><rect class="cls-10" x="1893.38" y="1129.76" width="54.74" height="549.31"/><rect class="cls-9" x="1481.24" y="1129.76" width="54.74" height="549.31"/><rect class="cls-10" x="1453.87" y="1129.76" width="54.74" height="549.31"/><polygon class="cls-11" points="2068.72 1805.13 2068.72 1652.34 92.62 2477.35 92.62 2600 2068.72 1805.13"/><polygon class="cls-9" points="2068.72 1805.12 1777.05 2438.23 1702.52 2600 138.69 2600 447.32 2398.1 1353.78 1805.12 2068.72 1805.12"/><polygon class="cls-12" points="1688.63 2477.35 92.62 2477.35 1353.77 1652.34 2068.72 1652.34 1688.63 2477.35"/><polygon class="cls-13" points="326.37 2407.68 1411.92 1652.34 2011.16 1652.34 1644.02 2407.68 326.37 2407.68"/><path class="cls-10" d="M2585.16,2705.38v107.33a47.28,47.28,0,0,1-47.28,47.29H817.9a47.28,47.28,0,0,1-47.28-47.29V2705.38a47.28,47.28,0,0,1,47.28-47.28h1720a47.29,47.29,0,0,1,46.74,40.13A48.34,48.34,0,0,1,2585.16,2705.38Z" transform="translate(-770.62 -260)"/><polygon class="cls-9" points="2194.89 748.15 1470.67 748.15 1240.58 1156.9 1204.79 1172.22 1204.79 1220.46 2138.84 1220.46 2307.52 748.15 2307.52 699.91 2194.89 748.15"/><polygon class="cls-7" points="2138.84 1172.22 1204.79 1172.22 1470.67 699.91 2307.52 699.91 2138.84 1172.22"/><polygon class="cls-14" points="1287.9 1123.64 1499.07 748.5 2238.58 748.5 2104.6 1123.64 1287.9 1123.64"/><polygon class="cls-15" points="1738.98 1075.05 1859.36 797.09 2169.63 797.09 2070.36 1075.05 1738.98 1075.05"/><rect class="cls-16" x="1204.79" y="1172.22" width="934.14" height="48.24"/><path class="cls-10" d="M2708.65,1194.92l-33.43,15.9c2.13,16.45,6.48,40.67,28.46,29.32C2725.32,1229,2708.65,1194.92,2708.65,1194.92ZM2661.78,1152c2.76,19.76,12.56,39.43,12.56,39.43l33.43-15.9c1.53-15.22,6.07-31.44,8.74-41.38,3.83-14.32,6.13-50.86-22.21-47.59S2659,1132.25,2661.78,1152Z" transform="translate(-770.62 -260)"/><path class="cls-10" d="M2780.78,1262.51c22.47-5.54,22.54-31.45,21.81-48.43l-34,9.71S2758.65,1268,2780.78,1262.51Zm-16.65-150.8c-27.09,17.8-18.89,50.34-12.92,60.94,4.14,7.35,11.09,19.2,15,32.33l34-9.71s5.92-25.65,5.24-46.19S2791.23,1093.9,2764.13,1111.71Z" transform="translate(-770.62 -260)"/><path class="cls-10" d="M2626.15,1312.12l7-27-2.69.07a2.58,2.58,0,0,1-2.5-1.1,3.8,3.8,0,0,1-.28-2.94,6.3,6.3,0,0,1,1.82-3,4.53,4.53,0,0,1,3.15-1.35l7-.18q4.18-.11,3,4.47l-8,30.77a6.88,6.88,0,0,1-2.08,3.61,5.09,5.09,0,0,1-3.37,1.3,3,3,0,0,1-2.77-1.14A4.12,4.12,0,0,1,2626.15,1312.12Z" transform="translate(-770.62 -260)"/><path class="cls-10" d="M2644.1,1296.4a37.5,37.5,0,0,1,4.4-10.32,25,25,0,0,1,7.2-7.83,16.56,16.56,0,0,1,9.36-3.14,10.83,10.83,0,0,1,6.46,1.54,10.06,10.06,0,0,1,3.72,4.51,16.94,16.94,0,0,1,1.14,6.63,32.85,32.85,0,0,1-1.12,7.81,36.42,36.42,0,0,1-4.36,10.16,26.38,26.38,0,0,1-7.3,7.83,16.75,16.75,0,0,1-9.41,3.15q-5.1.12-7.83-2.7a11.71,11.71,0,0,1-3.2-7.51A28.47,28.47,0,0,1,2644.1,1296.4Zm8.8-.22a24.16,24.16,0,0,0-.79,5.46,9.3,9.3,0,0,0,1,4.58,3.41,3.41,0,0,0,3.38,1.73A6.62,6.62,0,0,0,2661,1306a18.77,18.77,0,0,0,3.41-4.7,30.24,30.24,0,0,0,2.05-5.49,26.78,26.78,0,0,0,.86-5.64,10.1,10.1,0,0,0-1-4.58,3.63,3.63,0,0,0-3.57-1.72,6.33,6.33,0,0,0-4.34,1.93,17.78,17.78,0,0,0-3.41,4.69A30,30,0,0,0,2652.9,1296.18Z" transform="translate(-770.62 -260)"/><path class="cls-10" d="M2675.11,1316.19a3.17,3.17,0,0,1-2.83-1.3,3.92,3.92,0,0,1-.42-3.37,6.69,6.69,0,0,1,2.21-3.49,5.77,5.77,0,0,1,3.58-1.55,3.19,3.19,0,0,1,2.87,1.39,4,4,0,0,1,.45,3.42,6.87,6.87,0,0,1-2.24,3.43A5.76,5.76,0,0,1,2675.11,1316.19Z" transform="translate(-770.62 -260)"/><path class="cls-10" d="M2686.23,1306.69l2.1-1.88,2.38-2.13q1.64-1.47,2.37-2.16l2.41-2.21c1.62-1.49,2.78-2.57,3.47-3.26a67.47,67.47,0,0,0,4.62-5.34,11,11,0,0,0,1.84-3.46,3.12,3.12,0,0,0-.18-2.51,2.51,2.51,0,0,0-2.22-.86,3.88,3.88,0,0,0-2.68,1,15.62,15.62,0,0,0-2.3,3.06,18.74,18.74,0,0,1-2.33,3.18,4.29,4.29,0,0,1-2.75,1.28,3,3,0,0,1-2.66-1.09,3.51,3.51,0,0,1-.45-2.94,16.61,16.61,0,0,1,3.43-6.57,20.48,20.48,0,0,1,5.84-4.82,15.3,15.3,0,0,1,6.69-1.86,10.14,10.14,0,0,1,4.28.73,7.59,7.59,0,0,1,3.19,2.36,8,8,0,0,1,1.6,3.78,11.7,11.7,0,0,1-.31,4.83,17.29,17.29,0,0,1-2.64,5.73,30.61,30.61,0,0,1-3.82,4.59q-2.16,2.17-5.49,5.16a65.69,65.69,0,0,0-5.23,5.07l8.9-.24a2.56,2.56,0,0,1,2.52,1.16,4,4,0,0,1,.27,3,6.36,6.36,0,0,1-1.82,3,4.72,4.72,0,0,1-3.26,1.3l-16.75.44a4.66,4.66,0,0,1-3.51-1,2.88,2.88,0,0,1-.62-2.8A10.29,10.29,0,0,1,2686.23,1306.69Z" transform="translate(-770.62 -260)"/><path class="cls-10" d="M2729.19,1309.57l9-34.13a6.31,6.31,0,0,1,2.14-3.39,5,5,0,0,1,3.16-1.3,2.92,2.92,0,0,1,2.54,1.2,4.23,4.23,0,0,1,.28,3.55l-4.78,18.27,10-8.63a7.09,7.09,0,0,1,3.8-1.83,2.88,2.88,0,0,1,2.63,1.15,3.23,3.23,0,0,1,.41,2.78,6.55,6.55,0,0,1-2.3,3.1l-7.43,6.37,4.94,10.16a3.41,3.41,0,0,1,.39,2.89,4.88,4.88,0,0,1-2.11,2.82,6.25,6.25,0,0,1-3.53,1.15,2.69,2.69,0,0,1-1.68-.66,7.65,7.65,0,0,1-1.34-2.08l-5.32-11.35h-.1l-2.51,9.6a6.58,6.58,0,0,1-2.17,3.56,5.25,5.25,0,0,1-3.29,1.35,2.76,2.76,0,0,1-2.52-1.14A4.09,4.09,0,0,1,2729.19,1309.57Z" transform="translate(-770.62 -260)"/><path class="cls-10" d="M2755.35,1309.1l5.59-21.38a6.47,6.47,0,0,1,2-3.27,5,5,0,0,1,3.22-1.42,3.23,3.23,0,0,1,2.47.77,3.07,3.07,0,0,1,.88,2,10.72,10.72,0,0,1,3.65-2.62,11.69,11.69,0,0,1,4.32-1c3.31-.08,5.53,1.06,6.65,3.44.62-.4,1.43-.94,2.44-1.64a17.43,17.43,0,0,1,3.23-1.57,12.25,12.25,0,0,1,3.85-.64,8.74,8.74,0,0,1,4.48,1,5.44,5.44,0,0,1,2.52,3.26,10,10,0,0,1-.19,5.7l-4.24,16.26a6.12,6.12,0,0,1-2,3.22,5,5,0,0,1-3.27,1.36,2.77,2.77,0,0,1-2.58-1.21,3.7,3.7,0,0,1-.32-3.16l3.61-13.83a5.75,5.75,0,0,0-.12-3.74,2.53,2.53,0,0,0-2.6-1.42,4.77,4.77,0,0,0-3.38,1.58,8.82,8.82,0,0,0-2.09,3.79l-3.61,13.83a6.17,6.17,0,0,1-2,3.22,5,5,0,0,1-3.28,1.36,2.75,2.75,0,0,1-2.58-1.21,3.73,3.73,0,0,1-.32-3.16l3.61-13.83a5.83,5.83,0,0,0-.11-3.74,2.56,2.56,0,0,0-2.61-1.42,5,5,0,0,0-3.43,1.58,8.8,8.8,0,0,0-2.08,3.79l-3.62,13.83a6.13,6.13,0,0,1-2,3.22,5,5,0,0,1-3.28,1.36,2.78,2.78,0,0,1-2.58-1.2A3.76,3.76,0,0,1,2755.35,1309.1Z" transform="translate(-770.62 -260)"/><path class="cls-17" d="M2240.07,863.21c-41-11.9-99.3,5.54-153.78,74.54-57.5,72.84-104.22,212.12-45.2,227.34s346.36,42.34,346.36,42.34l-9.72-73.61s-176.62-91.41-280.46-54.16C2222.8,1030.16,2350.93,895.34,2240.07,863.21Z" transform="translate(-770.62 -260)"/><path class="cls-17" d="M2342.61,1120.88c-14.51,16.11-30.05,32.13-43.73,49.31-5,6.32-9.79,12.8-14.17,19.51a142.19,142.19,0,0,0-12.48,24c-5.89,14.31-9.91,29.53-13.32,44.82-2,8.78-3.73,17.6-5.55,26.3q-1.14,5.52-2.34,11c-4.76,21.56-10.92,43.88-14.5,66.12-1.14,7.16-2,14.31-2.51,21.41-.82,11.94-47.54-32.25-125.83-62.73q-5.86-2.29-12-4.47c-41.94-14.9-92.08-25.25-148.44-21.46.9-.06,2.19-1.16,3.69-2.9,5.61-6.52,14.17-22.06,16.49-25.5q10.88-16.21,20.74-33.06a555.07,555.07,0,0,0,34.65-69.83q2.55-6.21,4.78-12.44a448.52,448.52,0,0,0,15.4-54.67q1.41-6.26,2.72-12.53l1.59-7.68c4.19-20.58,8.05-41.32,13.07-62.19,11.32-47.16,29.5-93,56.82-133.21,0,0,57.5-75.4,117.56-67.73S2343.9,910,2360.51,967.53,2377.12,1082.54,2342.61,1120.88Z" transform="translate(-770.62 -260)"/><path class="cls-17" d="M2504.09,1143.41c8.07-6.65,6.88-19.19-1.38-25.11,12.17-14.22-3.05-23.45-3.05-23.45s-30.42-22-60.31-4.16c-24.48,14.64-45.26,38.57-45.26,38.57h0l-16.36,4.55s-6.66,8.47-7.33,23.06c-1.3,28,12.84,46.34,14.54,49.43h0c1.22,2.22,13.29,1.24,13.29,1.24h0l28.21-5.29c23-3.84,29.66-17.6,29.66-17.6s19.33,5.27,29.76-.42a16.94,16.94,0,0,0,8.94-16.54c14.38-8.62,7.85-23.2,7.85-23.2C2503.16,1144.15,2503.64,1143.78,2504.09,1143.41Z" transform="translate(-770.62 -260)"/><path class="cls-17" d="M2431.83,1117.25l66.41-12.94s8.12,17.82-8.65,23.71a340.74,340.74,0,0,0-33.69,14.35s4.9,33.23-31,39.45Z" transform="translate(-770.62 -260)"/><path class="cls-17" d="M2431.83,1117.25l66.41-12.94s8.12,17.82-8.65,23.71a340.74,340.74,0,0,0-33.69,14.35s5.4,26.12-20.22,35.85Z" transform="translate(-770.62 -260)"/><path class="cls-18" d="M2489.48,1147.66c5.47,0,10.4-.55,13.68-2.06a1.22,1.22,0,1,0-1-2.21c-11.23,5.16-45.64-2.14-46-2.22a1.22,1.22,0,1,0-.51,2.39C2456.69,1143.78,2475,1147.66,2489.48,1147.66Z" transform="translate(-770.62 -260)"/><path class="cls-18" d="M2484.81,1169.89a51.08,51.08,0,0,0,10.23-1,1.22,1.22,0,0,0-.49-2.39c-19.25,4-40-6-40.21-6.09a1.21,1.21,0,0,0-1.63.56,1.23,1.23,0,0,0,.56,1.63C2454,1163,2468.44,1169.89,2484.81,1169.89Z" transform="translate(-770.62 -260)"/><path class="cls-18" d="M2456.1,1185.88a1.22,1.22,0,0,0,.63-2.27c-4.13-2.49-10.58-7.59-10.27-10.63a1.23,1.23,0,0,0-1.1-1.33,1.21,1.21,0,0,0-1.33,1.09c-.56,5.55,10.21,12.22,11.44,13A1.23,1.23,0,0,0,2456.1,1185.88Z" transform="translate(-770.62 -260)"/><path class="cls-17" d="M2502.26,1144.94s6.52,14.59-7.85,23.21a16.94,16.94,0,0,1-8.94,16.54c-10.44,5.69-29.76.41-29.76.41s-11.34-6.83-10.86-11.78c14.56-11.64,10.65-30.51,10.65-30.51a340,340,0,0,1,33.7-14.34c7-2.45,9.64-7,10.38-11.4l1,.58c9.82,5.3,11.77,19.11,3.15,26.21Q2503,1144.42,2502.26,1144.94Z" transform="translate(-770.62 -260)"/><path class="cls-19" d="M2489.08,1148.11c5.48,0,10.41-.55,13.69-2.06a1.22,1.22,0,1,0-1-2.21c-11.23,5.16-45.64-2.14-46-2.22a1.22,1.22,0,1,0-.51,2.38C2456.3,1144.23,2474.57,1148.11,2489.08,1148.11Z" transform="translate(-770.62 -260)"/><path class="cls-19" d="M2484.41,1170.34a50.41,50.41,0,0,0,10.24-1,1.22,1.22,0,1,0-.49-2.39c-19.25,4-40-6-40.21-6.09a1.22,1.22,0,0,0-1.07,2.2C2453.61,1163.41,2468.05,1170.34,2484.41,1170.34Z" transform="translate(-770.62 -260)"/><path class="cls-19" d="M2455.3,1186.23l-.31-.14c-1.22-.74-12-7.42-11.41-13l.05-.51.41-.32c13.8-11,10.33-29.11,10.29-29.29l-.19-.92.84-.41a343.09,343.09,0,0,1,33.87-14.32c5.54-1.93,8.77-5.44,9.61-10.43l.3-1.77,2.45,1.48a17.67,17.67,0,0,1,9.15,13.9,16.27,16.27,0,0,1-5.87,14.34c-.24.2-.49.39-.75.58,1.16,3.47,4.13,15.63-8.11,23.39a18.22,18.22,0,0,1-9.66,16.94c-3.86,2.09-8.78,2.77-13.55,2.77A72.43,72.43,0,0,1,2455.3,1186.23Zm45.45-41.66.84-.57q.72-.49,1.35-1a13.81,13.81,0,0,0,5-12.22,15.28,15.28,0,0,0-7.45-11.74c-1.4,5-5.11,8.63-10.82,10.63a337.7,337.7,0,0,0-32.79,13.81c.54,4,1.76,19.93-10.86,30.37.32,3,6.18,7.68,10.1,10.09,1.86.48,19.28,4.82,28.7-.28a15.62,15.62,0,0,0,8.35-15.29l-.11-.79.69-.42c13.27-7.91,7.67-21.09,7.42-21.64Z" transform="translate(-770.62 -260)"/><path class="cls-19" d="M2435.68,1179.44a1.14,1.14,0,0,0,.44-.08c23.48-8.92,21.79-31.41,21.12-36.3a340.17,340.17,0,0,1,32.76-13.89c5-1.76,8.41-4.71,10.14-8.77,3.24-7.59-.62-16.23-.79-16.59l-.4-.88-59.9,11.83-16.72,6.83a1.21,1.21,0,0,0-.66,1.59,1.22,1.22,0,0,0,1.59.67l16.6-6.79,57.62-11.35c.83,2.26,2.68,8.45.42,13.74-1.46,3.4-4.39,5.9-8.71,7.42a346,346,0,0,0-33.84,14.4l-.84.42.19.92c.21,1,4.87,25.23-19.45,34.47a1.22,1.22,0,0,0,.43,2.36Z" transform="translate(-770.62 -260)"/><path class="cls-20" d="M1734.76,1535.06s-1.08,118.44,264,204.51C1951.66,1647.35,1826,1498.36,1734.76,1535.06Z" transform="translate(-770.62 -260)"/><path class="cls-21" d="M2403,2344.75a107.28,107.28,0,0,1-8.21,31.1c-18.63,43.27-48.16,41.07-63,70.11s-47.68,81.61-84.92,81.61-56.42,2.2-58.07-7.67c-.55-3.38,4.85-18.76-.51-36.53-15.33-50.79,3.74-85.64,12-99.3,12.6-20.82,59.7-35.06,59.7-35.06s71.21-42.72,85.45-56.42,35.06-29.57,43.83-14.25C2395.9,2289.88,2406.21,2314.73,2403,2344.75Z" transform="translate(-770.62 -260)"/><path d="M2403,2344.75a107.28,107.28,0,0,1-8.21,31.1c-18.63,43.27-48.16,41.07-63,70.11s-47.68,81.61-84.92,81.61-60.13,1.45-61.77-8.42c-.56-3.38-2.59-27.15,3.19-35.78,16.24,2.71,45.09,9.52,61,3.09,44.32-17.89,48.5-61.32,64.93-69C2328.85,2410.68,2382.62,2381.46,2403,2344.75Z" transform="translate(-770.62 -260)"/><path class="cls-17" d="M1991.1,1660.3s-1.52,2.24-4.31,6.32c-7.91,11.56-26,37.84-48.7,69.53-51.37,71.74-126.21,171.18-159.26,190.26-52.82,30.46-154.59-1.43-221.62-18.7s-263.06-31.5-289.46-29.46c5.08-105.62,98.72-130.61,109.89-127.56,11.17,10.16,77.19,36.56,139.14,28.44s177.75-10.15,193,5.08c18.42-51.27,55.37-124.48,88.26-185.82,14.17-26.41,27.58-50.62,38.45-69.93,2.74-4.87,5.31-9.44,7.71-13.65,11-19.4,17.93-31.24,17.93-31.24Z" transform="translate(-770.62 -260)"/><path class="cls-19" d="M1986.79,1666.62c-7.91,11.56-26,37.84-48.7,69.53-24.49-16.09-82.45-56.57-96.32-87.77-13-29.14-33.61-44.07-43.75-50,14.17-26.41,27.58-50.62,38.45-69.93,2.74-4.87,5.31-9.44,7.71-13.65C1879.66,1550.92,1973.58,1650.74,1986.79,1666.62Z" transform="translate(-770.62 -260)"/><path class="cls-17" d="M2228.82,2409.26c-40.53-4.38-33.88-52.71-38.27-91.05s-31.84-87.52-46.08-158.73c-2-10-3.39-19.42-4.34-28.35-5.83-54.7,5-89.74-4.43-108.58-6.59-12-12.8-24.36-18.64-36.92-34.83-75.07-56.27-157.23-67.83-210.92-7.7-35.76-11-58.89-11-58.89l207-43.82s1,28.42,2.73,73.63c6.29,167.59,21.63,565.81,26.66,601.18C2281,2391.73,2269.35,2413.65,2228.82,2409.26Z" transform="translate(-770.62 -260)"/><path class="cls-19" d="M2248,1745.63c-77.8,25.22-159.13,29-198.75,29.08-7.7-35.76-11-58.89-11-58.89l207-43.82S2246.29,1700.42,2248,1745.63Z" transform="translate(-770.62 -260)"/><path class="cls-21" d="M1409.52,1657.94c-2.18,12.44-4.5,23-6.82,32.06-9,35.12-18.08,48.29-20,64-9.76,5.1-85.16,37-110,125.51,0,0-86.71.67-169.87,60.55s-138.38,121.75-225.53,81.83S957.12,1775,1003,1763.73s232.85-89.82,277.43-125.75,101.78-75.17,113.09-71.18S1420.17,1597.4,1409.52,1657.94Z" transform="translate(-770.62 -260)"/><path class="cls-16" d="M1409.52,1657.94c-2.18,12.44-4.5,23-6.82,32.06-12.59,16-39.4,39.91-94.53,58.65-91.36,31-138.38,65.64-166.76,105.56s-106.18,150.72-220.3,156.52,295.7-317.08,295.7-317.08l176.74-126.85C1404.86,1570.79,1420.17,1597.4,1409.52,1657.94Z" transform="translate(-770.62 -260)"/><path d="M854.6,1973.37c3.18,30.32,36.3,41.52,66.51,37.36,20.31-2.79,47.1-12.24,81.92-34.11,107.33-67.42,117.09-175.64,176.52-204.91s267.45-118,214-204.91c-20.62-33.71-142.15-24-196.26,31.93s-67.41,89.6-147.25,111.77C974.45,1731.5,836.14,1797.4,854.6,1973.37Z" transform="translate(-770.62 -260)"/><path class="cls-16" d="M2118.89,1295.91c-3.61,7.82-7.18,16.07-10.71,24.68-58.92,144-104,389.1-109.49,419.48-.38,2-.56,3.13-.56,3.13l-2.82-2c-17.92-13.17-116.09-86.3-139-125.76-25.19-43.46-75.58-80.33-121.59-80.33,88.46-164.68,168.64-222.86,216.7-243.3,29.31-12.46,46.67-10.9,46.67-10.9a542.28,542.28,0,0,1,61,3.3,362,362,0,0,1,45.65,7.81C2109.59,1293.15,2114.32,1294.46,2118.89,1295.91Z" transform="translate(-770.62 -260)"/><path class="cls-16" d="M2236.49,1364.59S2203.63,1570.12,2300,1683c-62.44,42.72-236.9,73-278.53,56.62-17.53-41.63-87.36-149.74-52.31-282.29s124.27-167.77,124.27-167.77S2199.24,1310.24,2236.49,1364.59Z" transform="translate(-770.62 -260)"/><path class="cls-22" d="M2342.61,1120.88c-14.51,16.11-30.05,32.13-43.73,49.31-72-77.89-182.07-88.81-252.64-86.46,4.84-23.1,9-46.39,14.66-69.87,11.32-47.16,29.5-93,56.82-133.21,0,0,57.5-75.4,117.56-67.73S2343.9,910,2360.51,967.53,2377.12,1082.54,2342.61,1120.88Z" transform="translate(-770.62 -260)"/><path class="cls-23" d="M2176.5,1079.56c4.54,22.47,71.86,102.1,95.73,134.16-5.89,14.31-9.91,29.53-13.32,44.82-36.34-23.72-161.39-117.35-168.67-136.38-8.29-21.73-46.63-72.2-19.8-95.21s217.83-65.16,217.83-65.16,12.61,31.3-39.78,71.8C2211.27,1062.36,2170.76,1051.11,2176.5,1079.56Z" transform="translate(-770.62 -260)"/><path d="M2278.22,553.08a88,88,0,0,1-3,21.1S2254.45,743,2253.5,746.75c-.57,2.29,10.71-33.22,2.88-21.34-5.19,7.91-55.76,26.2-55.76,26.2s-19.06,7.21-32.64,34-26-8.73-25.34-19.2c-.64,23.79-96.4,23.89-96.4,23.89,3.2-24.91,5.45-40-11.15-64.93s-3.2-67.28,15.33-87.13c-19.81,17.84-43.67-12.95-37.27-22.84,24.91,11.81,91.79,25.61,121.18-51.7S2229.53,496,2259,512.62C2275.06,521.66,2278.46,539.08,2278.22,553.08Z" transform="translate(-770.62 -260)"/><g class="cls-24"><path class="cls-25" d="M2278.22,553.08a88,88,0,0,1-3,21.1S2254.45,743,2253.5,746.75c-.57,2.29-10.5,17.66-18.33,29.54l-8,2.28-2.64-39.19s-89.44-22.56-53.71-120.49c20.8-57,76.75-43.73,79-43.24h.07A67.34,67.34,0,0,1,2267,559.21,72.6,72.6,0,0,1,2278.22,553.08Z" transform="translate(-770.62 -260)"/></g><path d="M2430.19,727.07c-4.7,3.91-9.69,7.6-14.7,11.19-2.77,2-5.55,4-8.29,5.9-14.09,10-67.47,7.11-84,12.11l-16,4.52-62.86,17.78-2.63-39.19s-89.44-22.55-53.71-120.49c20.8-57,76.75-43.74,79-43.24l.07,0a67.37,67.37,0,0,1,17.22-16.46,76.93,76.93,0,0,1,49.63-12.4c25.28,2.48,48.63,17.35,63.4,38s51.44,37.83,58.11,82.86C2458.65,689.6,2447.22,712.91,2430.19,727.07Z" transform="translate(-770.62 -260)"/><path class="cls-26" d="M2369.31,733.34a159,159,0,0,1-46.14,22.93l-16,4.52c-3.75-7.19-4.66-17.36-1.48-29.71,9.68-37.63,61-72.84,61-72.84s13.49-13.17,21-5.58C2408.51,673.53,2372.06,731.39,2369.31,733.34Z" transform="translate(-770.62 -260)"/><path d="M2367.62,627.86c57.76-5.36,86,46,50.05,97.75-39.44,56.78-93.6,16.49-93.6,16.49Z" transform="translate(-770.62 -260)"/><path class="cls-17" d="M2255.46,703.91l-53,111.52s24.92,20.12,54.27,30.39c35.36,12.38,45,10.42,45,10.42l2.36-7.56,11.84-36.39,10-30.62,11.8-37.7Z" transform="translate(-770.62 -260)"/><path class="cls-17" d="M2291.56,594.93l-39.18,156.28a17.9,17.9,0,0,0,6.64,18.62l57.66,43a18,18,0,0,0,17.07,2.34l40.68-15.71a17.8,17.8,0,0,0,10.89-12.26l1.33-5.37,15.66-62.51,9.12-36.27a56.44,56.44,0,0,0-41-68.42Z" transform="translate(-770.62 -260)"/><g class="cls-24"><path class="cls-19" d="M2373.21,742.09a34.15,34.15,0,0,0,13.44,39.77l15.66-62.51A34.07,34.07,0,0,0,2373.21,742.09Z" transform="translate(-770.62 -260)"/></g><path class="cls-27" d="M2359.41,751.09a2.34,2.34,0,0,1,.64-4.53l14.18-1.49V713.88a2.34,2.34,0,1,1,4.68,0v33.37a2.34,2.34,0,0,1-2.15,2.34l-16.35,1.66A2.43,2.43,0,0,1,2359.41,751.09Z" transform="translate(-770.62 -260)"/><path d="M2265.39,685a2.19,2.19,0,0,1,1.11-4.21c38.76,6.11,68.45.41,88.27-16.94,26.38-23.1,25.84-59.45,25.83-59.81a2.19,2.19,0,0,1,4.38-.11c0,1.57.63,38.7-27.29,63.18-20.84,18.27-51.75,24.33-91.87,18A2.7,2.7,0,0,1,2265.39,685Z" transform="translate(-770.62 -260)"/><path d="M2252.17,680.41s102,13.16,131.91-61.2l.13-22-111.63-23.64Z" transform="translate(-770.62 -260)"/><g class="cls-24"><path class="cls-25" d="M2257.34,666.92l-.57-5c.66-.08,66.79-8.44,105.42-72.54l4.28,2.58C2326.54,658.26,2258,666.84,2257.34,666.92Z" transform="translate(-770.62 -260)"/></g><path class="cls-17" d="M2281.45,715.57a32.75,32.75,0,1,1-23.81-39.72A32.76,32.76,0,0,1,2281.45,715.57Z" transform="translate(-770.62 -260)"/><path d="M2419,683.35c-4.2,5.52-25.4-4.35-22.6-10.16C2401,663.55,2425.64,674.59,2419,683.35Z" transform="translate(-770.62 -260)"/><path class="cls-28" d="M2315.52,658c1.51,6.77,24.9,6.62,24.77.17C2340.09,647.49,2313.12,647.28,2315.52,658Z" transform="translate(-770.62 -260)"/><g class="cls-24"><path class="cls-19" d="M2268.3,714.13a34.16,34.16,0,1,0,43.52-21A34.15,34.15,0,0,0,2268.3,714.13Z" transform="translate(-770.62 -260)"/></g><path d="M2328.39,703.64c-1.5,6,.11,11.53,3.59,12.4s7.51-3.27,9-9.24-.11-11.52-3.59-12.39S2329.89,697.67,2328.39,703.64Z" transform="translate(-770.62 -260)"/><path d="M2387,718.32c-1.49,6,.11,11.53,3.59,12.4s7.52-3.26,9-9.24-.11-11.52-3.59-12.39S2388.47,712.35,2387,718.32Z" transform="translate(-770.62 -260)"/><path class="cls-19" d="M2242.38,720.31c3.06-5.22,5.47-10.38,6.06-15.87s-.49-11.05-2-16.93l1.73-.86a24.66,24.66,0,0,1-4.31,34.94Z" transform="translate(-770.62 -260)"/><path class="cls-27" d="M2349.69,775.84c-10.1-3.77-14.67-16.21-14.86-16.74a2.34,2.34,0,1,1,4.41-1.59h0c0,.11,4.17,11.28,12.5,14.09,4.17,1.4,8.85.44,13.91-2.84a2.34,2.34,0,1,1,2.55,3.93c-6.33,4.1-12.38,5.23-18,3.34Z" transform="translate(-770.62 -260)"/><path class="cls-19" d="M2259,769.83s8.42,56,45.07,78.85l11.84-36.39Z" transform="translate(-770.62 -260)"/><g class="cls-24"><path class="cls-25" d="M2342.22,572.23s-73.4-2.4-88.68,53.17c0,0,28.65-2.62,47.32-13.13,0,0-28.68,34.93-71.16,36.12,0,0,59.75,16.34,103.49-48.9l-34.51-1.81S2316.22,578.7,2342.22,572.23Z" transform="translate(-770.62 -260)"/></g><g class="cls-29"><path d="M2104.93,1292q-1.2,4-2.66,7.93c-16.49,44.19-51.95,77.89-78.24,116.12-14.11,20.53-26.18,43.25-31.11,67.86-5.67,28.32.38,54.66,6.55,82.15,11.15,49.66,19.08,103.19,6.58,153.79-.32,1.28-7.86,23.37-7.92,23.33-17.92-13.17-118.91-88.35-141.78-127.81-25.19-43.46-75.58-80.33-121.59-80.33,88.46-164.68,168.64-222.86,216.7-243.3,5.61-6.52,14.17-22.06,16.49-25.5q10.88-16.21,20.74-33.06a555.07,555.07,0,0,0,34.65-69.83q2.55-6.21,4.78-12.44a448.52,448.52,0,0,0,15.4-54.67q1.41-6.26,2.72-12.53l1.59-7.68c18.76-14.5,30.1-23.24,30.1-23.24a547.48,547.48,0,0,1,33,148.9C2113.13,1230.93,2113.56,1263.41,2104.93,1292Z" transform="translate(-770.62 -260)"/></g><path class="cls-17" d="M2321.53,1325l-47.91,48.87S1989.93,1107.45,1972.69,1049c-14.9-50.5,92-119.49,173.69-159.06h0c12.86-6.23,25.11-11.74,36.16-16.32a146.51,146.51,0,0,1,24.55-7.88c53.75-11.85,103.29,34.47,93.18,88.57-13.59,72.7-124.34,90.1-172.36,104.28,66.35,54.42,146.63,185.41,179,240.9C2316.19,1315.33,2321.53,1325,2321.53,1325Z" transform="translate(-770.62 -260)"/><path class="cls-17" d="M2315.79,1321.92s64,31,90.4,61.23,34.4,48.24,24.17,50.37-14.9,0-14.9,0-3.41,10.65-11.93,11.07c0,0-6.81,11.08-22.15,6,0,0-5.54,9.24-22.15,6.53s-61.76-44.44-85.61-83.2S2315.79,1321.92,2315.79,1321.92Z" transform="translate(-770.62 -260)"/><path class="cls-17" d="M2324.73,1330.93s48.56,6.54,61.66,15.48,20.76,43.35,20.76,43.35Z" transform="translate(-770.62 -260)"/><path class="cls-19" d="M2415.46,1433.52s-21.73-14.59-31-35.35C2384.47,1403.6,2387.34,1428.94,2415.46,1433.52Z" transform="translate(-770.62 -260)"/><path class="cls-19" d="M2403.61,1444.7s-21-11.06-31.33-28.89C2372.8,1420.71,2377.83,1443.28,2403.61,1444.7Z" transform="translate(-770.62 -260)"/><path class="cls-19" d="M2381.35,1450.56s-13.59-5.8-20.92-16.34C2361,1437.23,2365.27,1451,2381.35,1450.56Z" transform="translate(-770.62 -260)"/><path class="cls-19" d="M2321.53,1325l-47.91,48.87S1989.93,1107.45,1972.69,1049c-14.9-50.5,92-119.49,173.69-159.06-2.21,1.28-146.18,84.43-141.11,149.47,5.11,65.54,209.71,253.4,230.65,265.31,30.24,17.2,57.71-2.16,71-5.24C2316.19,1315.33,2321.53,1325,2321.53,1325Z" transform="translate(-770.62 -260)"/><path class="cls-3" d="M2320.05,1328.32l-41.16,42a11.66,11.66,0,0,1-16.79-.13l-1.1-1.16-2.46-2.58-2.86-3-2-2.15c-.14-.15-.28-.29-.4-.44a11.7,11.7,0,0,1,.26-15.49l42.08-45.87a11.67,11.67,0,0,1,16-1.18,11.48,11.48,0,0,1,2.38,2.66c.1.15.2.3.29.46l1.93,3.24,1.87,3.19,3.74,6.31A11.61,11.61,0,0,1,2320.05,1328.32Z" transform="translate(-770.62 -260)"/><path class="cls-22" d="M2313.92,1301l-58.24,62.47-2-2.15c-.14-.15-.28-.29-.4-.44l58.3-62.54A11.48,11.48,0,0,1,2313.92,1301Z" transform="translate(-770.62 -260)"/><polygon class="cls-22" points="1547.4 1047.91 1490.38 1109.07 1487.92 1106.49 1545.52 1044.72 1547.4 1047.91"/><path class="cls-19" d="M2292.78,924.09s23,81.14-122,115C2205.25,1023.12,2270.42,991.17,2292.78,924.09Z" transform="translate(-770.62 -260)"/><path class="cls-19" d="M1709.76,1784.21s38.52,17.59,40.18,51.7C1756.76,1797.74,1721.73,1777.09,1709.76,1784.21Z" transform="translate(-770.62 -260)"/><path class="cls-19" d="M2139,2039.63s14.29-29.4,51.45-29.4C2163,1992.46,2138,2024.59,2139,2039.63Z" transform="translate(-770.62 -260)"/><path class="cls-9" d="M3280.07,2149.44a137,137,0,0,1-103.23,132.72,132.24,132.24,0,0,1-33.76,4.26,137,137,0,0,1,0-274,131.8,131.8,0,0,1,33.76,4.27A136.94,136.94,0,0,1,3280.07,2149.44Z" transform="translate(-770.62 -260)"/><ellipse class="cls-10" cx="2406.22" cy="1889.44" rx="103.22" ry="132.72"/><rect class="cls-20" x="2372.46" y="1842.6" width="293.05" height="85.37" rx="42.68"/><path class="cls-9" d="M3579.48,2149.44a137,137,0,0,1-103.23,132.72,132.24,132.24,0,0,1-33.76,4.26,137,137,0,1,1,0-274,131.8,131.8,0,0,1,33.76,4.27A136.94,136.94,0,0,1,3579.48,2149.44Z" transform="translate(-770.62 -260)"/><ellipse class="cls-10" cx="2705.63" cy="1889.44" rx="103.22" ry="132.72"/><rect class="cls-30" x="544.21" y="175.13" width="200.26" height="120.16"/><rect class="cls-31" x="477.46" y="79" width="333.77" height="133.51"/><rect class="cls-30" x="517.18" y="96.69" width="18.02" height="98.13"/><rect class="cls-30" x="576.25" y="96.69" width="18.02" height="98.13"/><rect class="cls-30" x="635.33" y="96.69" width="18.02" height="98.13"/><rect class="cls-30" x="694.41" y="96.69" width="18.02" height="98.13"/><rect class="cls-30" x="753.48" y="96.69" width="18.02" height="98.13"/><rect class="cls-30" x="1007.87" y="570.47" width="132.54" height="116.37" transform="translate(-921.15 590.38) rotate(-40.6)"/><rect class="cls-32" x="913.18" y="525.54" width="220.9" height="88.36" transform="translate(-894.95 543.32) rotate(-40.6)"/><polygon class="cls-31" points="219.3 381.38 206.38 389.14 164.12 339.83 177.03 332.07 219.3 381.38"/><rect class="cls-31" x="984.12" y="562.69" width="11.93" height="64.94" transform="translate(-919.59 527.59) rotate(-40.6)"/><polygon class="cls-31" points="278.67 330.49 265.76 338.25 223.49 288.94 236.4 281.18 278.67 330.49"/><polygon class="cls-31" points="304.5 305.04 299.3 312.81 257.03 263.5 262.24 255.73 304.5 305.04"/><polygon class="cls-31" points="334.19 279.6 328.99 287.36 286.72 238.05 291.92 230.29 334.19 279.6"/><rect class="cls-30" x="1689.51" y="570.47" width="132.54" height="116.37" transform="translate(1909.12 1988.6) rotate(-139.4)"/><rect class="cls-32" x="1695.84" y="525.54" width="220.9" height="88.36" transform="translate(2036.35 1917.79) rotate(-139.4)"/><rect class="cls-31" x="1859.7" y="588.13" width="11.93" height="64.94" transform="translate(2107.67 2045.97) rotate(-139.4)"/><polygon class="cls-31" points="1039.7 355.93 1044.9 363.7 1087.17 314.39 1081.96 306.62 1039.7 355.93"/><polygon class="cls-31" points="1010.01 330.49 1015.22 338.25 1057.48 288.94 1052.28 281.18 1010.01 330.49"/><polygon class="cls-31" points="980.33 305.04 985.53 312.81 1027.79 263.5 1022.59 255.73 980.33 305.04"/><rect class="cls-31" x="1737.1" y="486.35" width="11.93" height="64.94" transform="translate(1958.22 1787.12) rotate(-139.4)"/><circle class="cls-31" cx="1414.96" cy="1022.45" r="484.47" transform="translate(-1079.17 1040) rotate(-45)"/><g class="cls-33"><path class="cls-34" d="M1791.84,796.58a6.18,6.18,0,0,1-5.49-3.33c-23.14-44.41-59-85.22-106.47-121.29s-100.76-62.8-141.81-82a6.18,6.18,0,1,1,5.25-11.2c41.6,19.49,95.57,46.57,144,83.38,49,37.18,86,79.38,110,125.43a6.18,6.18,0,0,1-5.48,9Z" transform="translate(-770.62 -260)"/></g><circle class="cls-30" cx="1414.96" cy="1022.45" r="414.11" transform="translate(-1079.17 1040) rotate(-45)"/><circle class="cls-34" cx="1414.96" cy="1022.45" r="390.56" transform="translate(-1079.17 1040) rotate(-45)"/><path class="cls-31" d="M1224.75,1344.35a7.77,7.77,0,0,0,10.62-2.84l15.58-27a7.78,7.78,0,0,0-13.47-7.78l-15.58,27A7.77,7.77,0,0,0,1224.75,1344.35Z" transform="translate(-770.62 -260)"/><path class="cls-31" d="M1410.91,1395.32a7.77,7.77,0,0,0,7.78-7.77v-31.17a7.78,7.78,0,0,0-15.55,0v31.17A7.77,7.77,0,0,0,1410.91,1395.32Z" transform="translate(-770.62 -260)"/><path class="cls-31" d="M1597.62,1346.38a7.77,7.77,0,0,0,2.84-10.62l-15.58-27a7.78,7.78,0,1,0-13.47,7.78l15.59,27A7.77,7.77,0,0,0,1597.62,1346.38Z" transform="translate(-770.62 -260)"/><path class="cls-31" d="M1415,704.37l44,311.45a44.49,44.49,0,0,1-88.1,12.46,46,46,0,0,1,0-12.46Z" transform="translate(-770.62 -260)"/><path class="cls-30" d="M1606.17,1101l-201.51-41.4a37.9,37.9,0,0,1,15.25-74.25,38.46,38.46,0,0,1,12.73,5.16Z" transform="translate(-770.62 -260)"/><path class="cls-35" d="M1442.07,1022.45a29.13,29.13,0,1,1-29.13-29.12A29.13,29.13,0,0,1,1442.07,1022.45Z" transform="translate(-770.62 -260)"/><path class="cls-31" d="M1415,649.58a7.78,7.78,0,0,0-7.78,7.78v31.16a7.78,7.78,0,1,0,15.55,0V657.36A7.77,7.77,0,0,0,1415,649.58Z" transform="translate(-770.62 -260)"/><path class="cls-31" d="M1228.26,698.52a7.78,7.78,0,0,0-2.84,10.63l15.58,27a7.78,7.78,0,0,0,13.47-7.78l-15.59-27A7.78,7.78,0,0,0,1228.26,698.52Z" transform="translate(-770.62 -260)"/><path class="cls-31" d="M1091,834.26a7.77,7.77,0,0,0,2.85,10.62l27,15.59a7.78,7.78,0,0,0,7.77-13.47l-27-15.59A7.78,7.78,0,0,0,1091,834.26Z" transform="translate(-770.62 -260)"/><path class="cls-31" d="M1040.07,1020.42a7.78,7.78,0,0,0,7.78,7.78H1079a7.78,7.78,0,1,0,0-15.55h-31.16A7.77,7.77,0,0,0,1040.07,1020.42Z" transform="translate(-770.62 -260)"/><path class="cls-31" d="M1089,1207.13a7.78,7.78,0,0,0,10.62,2.85l27-15.59a7.77,7.77,0,1,0-7.77-13.46l-27,15.58A7.77,7.77,0,0,0,1089,1207.13Z" transform="translate(-770.62 -260)"/><path class="cls-31" d="M1734.84,1210.65A7.78,7.78,0,0,0,1732,1200l-27-15.58a7.78,7.78,0,1,0-7.77,13.47l27,15.58A7.78,7.78,0,0,0,1734.84,1210.65Z" transform="translate(-770.62 -260)"/><path class="cls-31" d="M1785.81,1024.48a7.77,7.77,0,0,0-7.78-7.77h-31.16a7.78,7.78,0,1,0,0,15.55H1778A7.78,7.78,0,0,0,1785.81,1024.48Z" transform="translate(-770.62 -260)"/><path class="cls-31" d="M1736.87,837.78a7.77,7.77,0,0,0-10.62-2.85l-27,15.58A7.78,7.78,0,1,0,1707,864l27-15.58A7.77,7.77,0,0,0,1736.87,837.78Z" transform="translate(-770.62 -260)"/><path class="cls-31" d="M1601.13,700.55a7.78,7.78,0,0,0-10.62,2.85l-15.58,27a7.78,7.78,0,1,0,13.47,7.77l15.58-27A7.77,7.77,0,0,0,1601.13,700.55Z" transform="translate(-770.62 -260)"/><g id="Water"><path class="cls-31" d="M3127.08,2119.26c-.07,18.33-.76,36.65-.82,54.19l-.55,140.73c0,.46,0,.94,0,1.4s0,.93-.06,1.39v.05c0,.41-.05.82-.08,1.22a2.28,2.28,0,0,1,0,.26c0,.43-.07.86-.12,1.3s-.1.88-.15,1.33-.13,1-.21,1.5c-.14.92-.3,1.85-.49,2.76-.08.39-.16.78-.25,1.17-.3,1.37-.66,2.74-1.07,4.11-.1.38-.22.77-.35,1.15s-.18.59-.27.87-.26.75-.39,1.11-.32.87-.48,1.3-.35.93-.54,1.38c0,0-28.31,24.29-165.37,24.29-131.12,0-166.38-24.29-166.38-24.29-.35-.81-.67-1.64-1-2.46l-.3-.81c-.13-.36-.25-.72-.37-1.08s-.26-.78-.39-1.17a59.12,59.12,0,0,1-2.68-13.88c0-.28,0-.56-.06-.84s0-.54,0-.81,0-.7,0-1,0-.9,0-1.35v-.26l.75-194.58c.1-24.49,1.34-49.07,6.53-72,5.39-23.6,17.82-48.75,28-70.75,1.19-2.56,2.46-5.12,3.79-7.7,22.28-43.33,22.46-94.75-1.12-137.38-.76-1.36-1.5-2.73-2.24-4.09-14.61-27-20.81-50.19-20.62-80.84.1-23.39,15.68-58.23,46.65-75.93a153,153,0,0,1,21.46-10.22,36.49,36.49,0,0,0,23.43-33.67l.16-41.77,133.74.52-.16,41.77a36.48,36.48,0,0,0,23.17,33.85,153.2,153.2,0,0,1,21.38,10.38c30.83,17.95,46.14,52.91,46,76.29,0,30.66-6.43,53.77-21.24,80.69q-1.2,2.18-2.43,4.37c-23.79,42.38-23.93,93.7-2,137.06,1.31,2.58,2.57,5.16,3.75,7.74,10.05,22.07,22.2,47.32,27.48,71C3126.22,2070.34,3127.18,2094.85,3127.08,2119.26Z" transform="translate(-770.62 -260)"/><g class="cls-36"><path class="cls-35" d="M3091.93,1831.73c.82-1.45,1.63-2.91,2.42-4.36,12.76-23.16,19.23-43.53,20.82-68.28a125.6,125.6,0,0,1-12.68,27.64c-15.33,24.82-37.67,44.43-60.27,62.87-22.91,18.71-48.38,40-51.22,69.41-2.76,28.49,17.33,54.38,40.2,71.61s49.61,29.35,70.16,49.28c9,8.68,16.42,18.67,23.3,29.1-.86-7.28-1.92-14.48-3.47-21.5-5.28-23.64-17.43-48.89-27.48-71-1.18-2.57-2.44-5.15-3.75-7.74C3068,1925.44,3068.14,1874.12,3091.93,1831.73Z" transform="translate(-770.62 -260)"/></g><path class="cls-30" d="M2087.25,1324.92h195.93a0,0,0,0,1,0,0v30.91a36.84,36.84,0,0,1-36.84,36.84H2124.1a36.84,36.84,0,0,1-36.84-36.84v-30.91A0,0,0,0,1,2087.25,1324.92Z"/><ellipse class="cls-31" cx="2185.22" cy="1324.92" rx="97.97" ry="17.65"/><path class="cls-30" d="M2990.74,1536.71v45.77a11.69,11.69,0,0,1-11.69,11.69h-52.2a11.69,11.69,0,0,1-11.69-11.69v-45.77c0-4,16.92-7.35,37.79-7.35S2990.74,1532.66,2990.74,1536.71Z" transform="translate(-770.62 -260)"/><ellipse class="cls-31" cx="2182.33" cy="1276.71" rx="37.79" ry="7.35"/></g></svg>