<svg id="_1" data-name=" 1" xmlns="http://www.w3.org/2000/svg" viewBox="0 0 432.49 325.68"><defs><style>.cls-1{fill:#eeecef;}.cls-2{fill:#1253a4;}.cls-3{fill:#010e52;}.cls-4{fill:#ffd464;}.cls-5{fill:#f26964;}.cls-6{fill:#302953;}.cls-7{fill:#6f0e49;}.cls-8{fill:#fcbf7c;}.cls-9{fill:#dc5c59;}.cls-10{fill:#eca165;}.cls-11{fill:#ffede4;}.cls-12{fill:#154191;}</style></defs><path class="cls-1" d="M1100.56,417.42c-3.64-8.52-8.63-16.69-15.86-22.5-6.07-4.87-13.39-7.84-20.44-11.14a216,216,0,0,1-29.36-16.64c-6.91-4.67-13.65-9.84-18.63-16.53-5.1-6.85-8.17-15.05-13.47-21.75C988.69,311,961.9,308.21,940.19,315c-19,5.93-36.58,18-56.49,18.51-40,1-68.34-43.63-108.12-47.8-20.14-2.11-40.05,6.8-56.16,19.09-17,13-31.66,31.49-33.06,52.89-1,15.73,5.18,30.44,11.7,44.38,4.1,8.77,18.91,14.87,17.83,25-.57,5.38-5.2,9.25-9.13,13-7.55,7.14-13.87,16.44-14.27,26.82-.33,8.56,3.39,16.75,7.64,24.19,1.66,2.9,3.45,5.76,5.35,8.54v.94a54.69,54.69,0,0,0,54.69,54.69h245.69q3.28.12,6.57,0h.08c29.9-1.07,59.22-16.17,76.93-40.37C1109.65,487.26,1114,448.86,1100.56,417.42Z" transform="translate(-675.8 -253)"/><path class="cls-1" d="M885.54,327.79c5.37,0,10.59-1.8,15.49-4a82.16,82.16,0,0,0,8-4.11c2.8-1.64,5.87-4.25,5.26-7.43-.56-2.88-3.9-4.32-6.83-4.47a16.58,16.58,0,0,0-8.4,1.83c-5,2.62-8.89,7.9-14.54,8.55-3.22.38-11.49-1.72-11.4,3.91C873.17,326.88,882.07,327.81,885.54,327.79Z" transform="translate(-675.8 -253)"/><path class="cls-1" d="M700.44,415.71c2.85,2.15,4.87,5.8,4,9.27a13.34,13.34,0,0,1-2.26,4.36c-1.38,2-2.87,4-5,5.11a12.94,12.94,0,0,1-5.48,1.17c-4.92.2-10.38-.9-13.36-4.83-2.05-2.7-2.54-6.27-2.56-9.67a8.49,8.49,0,0,1,.6-3.75,7.76,7.76,0,0,1,3.8-3.38A19.59,19.59,0,0,1,700.44,415.71Z" transform="translate(-675.8 -253)"/><rect class="cls-2" x="256.86" y="147.29" width="145.98" height="1.34"/><path class="cls-3" d="M1051.25,400.57H960.59V351.71h90.66ZM961.17,400h89.5V352.29h-89.5Z" transform="translate(-675.8 -253)"/><path class="cls-3" d="M976.48,366.67a11.4,11.4,0,1,0,11.39,11.39A11.39,11.39,0,0,0,976.48,366.67Zm8.14,8.82-10.87,10.67a8.13,8.13,0,0,1-1.76-.84l11.83-11.61A8.15,8.15,0,0,1,984.62,375.49Zm-3.76-4.75-11.79,11.57a8.65,8.65,0,0,1-.76-1.73L979.15,370A8.84,8.84,0,0,1,980.86,370.74Zm-4.38-1.22a9.67,9.67,0,0,1,1.33.11L968,379.24a9,9,0,0,1-.09-1.18A8.54,8.54,0,0,1,976.48,369.52Zm-6.75,13.77,12.1-11.88a8.3,8.3,0,0,1,1.32,1.33L971,384.64A8.25,8.25,0,0,1,969.73,383.29Zm6.75,3.32a8,8,0,0,1-1.4-.13l9.84-9.66a8.49,8.49,0,0,1-8.44,9.79Z" transform="translate(-675.8 -253)"/><path class="cls-3" d="M1035.62,366.63A11.4,11.4,0,1,0,1047,378,11.39,11.39,0,0,0,1035.62,366.63Zm8.15,8.82-10.87,10.67a8.43,8.43,0,0,1-1.77-.83L1043,373.67A8.68,8.68,0,0,1,1043.77,375.45ZM1040,370.7l-11.79,11.58a8.91,8.91,0,0,1-.76-1.73l10.84-10.64A8.84,8.84,0,0,1,1040,370.7Zm-4.38-1.22a8.33,8.33,0,0,1,1.33.12l-9.79,9.61a9.23,9.23,0,0,1-.09-1.18A8.55,8.55,0,0,1,1035.62,369.48Zm-6.75,13.77,12.1-11.88a8.74,8.74,0,0,1,1.32,1.33l-12.12,11.9A7.91,7.91,0,0,1,1028.87,383.25Zm6.75,3.32a9.11,9.11,0,0,1-1.4-.12l9.84-9.67a8.49,8.49,0,0,1-8.44,9.79Z" transform="translate(-675.8 -253)"/><rect class="cls-4" x="289.28" y="103.63" width="5.21" height="2.8"/><rect class="cls-5" x="296.92" y="103.63" width="5.21" height="2.8"/><rect class="cls-3" x="304.56" y="103.63" width="5.21" height="2.8"/><rect class="cls-3" x="312.2" y="103.63" width="5.21" height="2.8"/><rect class="cls-3" x="319.84" y="103.63" width="5.21" height="2.8"/><rect class="cls-3" x="327.48" y="103.63" width="5.21" height="2.8"/><path class="cls-3" d="M1019.88,386.9H993.22V371.78h26.66Zm-26.08-.58h25.5v-14H993.8Z" transform="translate(-675.8 -253)"/><polygon class="cls-3" points="352.49 99 351.91 99 351.91 91.95 308.34 91.95 308.34 99 307.76 99 307.76 91.37 352.49 91.37 352.49 99"/><path class="cls-6" d="M964.53,316a2.85,2.85,0,0,1,2,.05s-.48-.85-.3-1.24c0,0-.81-.6-1.37,0l-.06-.05c-1.07,1.33-.79,3.7-.58,4.81a1.63,1.63,0,0,0-.69-.14c-.65,0-1.17.31-1.17.7s.52.71,1.17.71,1.16-.32,1.16-.71a.5.5,0,0,0-.08-.26A8.92,8.92,0,0,1,964.53,316Z" transform="translate(-675.8 -253)"/><path class="cls-6" d="M987.45,329.37a4.44,4.44,0,0,1,3.14.09s-.76-1.34-.47-1.95c0,0-1.27-.94-2.15-.08l-.09-.07c-1.68,2.08-1.24,5.79-.91,7.53a2.65,2.65,0,0,0-1.09-.22c-1,0-1.83.5-1.83,1.11s.82,1.1,1.83,1.1,1.83-.49,1.83-1.1a.74.74,0,0,0-.13-.41A14,14,0,0,1,987.45,329.37Z" transform="translate(-675.8 -253)"/><path class="cls-6" d="M977.81,321.31l-.07-.07,0-.07-.2-.06-.1-.08,0,.05c-1-.27-3.89-1-4.53-.34l-.09-.06c-1.5,1.85-1.11,5.17-.81,6.72a2.43,2.43,0,0,0-1-.19c-.91,0-1.64.44-1.64,1s.73,1,1.64,1,1.63-.44,1.63-1a.6.6,0,0,0-.12-.36,12.72,12.72,0,0,1-.13-5.3,13.59,13.59,0,0,1,4.24.19,12.3,12.3,0,0,0,0,5,2.24,2.24,0,0,0-1-.2c-.9,0-1.63.44-1.63,1s.73,1,1.63,1,1.63-.44,1.63-1a.66.66,0,0,0-.11-.36C977,327.07,976.26,323.24,977.81,321.31Z" transform="translate(-675.8 -253)"/><rect class="cls-3" x="319.84" y="123.49" width="21.43" height="0.58"/><rect class="cls-2" x="32.41" y="86.64" width="76.39" height="1.34"/><rect class="cls-3" x="91.75" y="68.87" width="9.43" height="0.58"/><path class="cls-2" d="M766.9,307.8a21.7,21.7,0,0,1,2.61-11c.63-1.14,1.61-2.33,2.91-2.31a3.48,3.48,0,0,1,2.55,1.76c2.62,3.84,2.53,8.86,2.33,13.5a1.64,1.64,0,0,1,2.13,1.16,4.74,4.74,0,0,1-.3,2.72l-.91,2.86a5.78,5.78,0,0,1-1.48,2.77c-.58.4-1.1.23-1.8.28a14.43,14.43,0,0,1-4.73-.21c-1-.33-1.19-1.35-1.51-2.26A29.51,29.51,0,0,1,766.9,307.8Z" transform="translate(-675.8 -253)"/><path class="cls-3" d="M778.74,339.93h-10L767,319.27h13.52Zm-9.41-.57h8.88l1.69-19.52H767.64Z" transform="translate(-675.8 -253)"/><path class="cls-3" d="M776.39,303l-.43-.39a16.86,16.86,0,0,0,1.46-1.82l.48.33A18.27,18.27,0,0,1,776.39,303Z" transform="translate(-675.8 -253)"/><path class="cls-3" d="M776.94,307.1l-.2-.54c.52-.2,1-.42,1.57-.64l.23.53C778,306.68,777.48,306.9,776.94,307.1Z" transform="translate(-675.8 -253)"/><path class="cls-3" d="M777,296.36l-.56-.16a10.92,10.92,0,0,1,.64-1.64l.52.25A10.79,10.79,0,0,0,777,296.36Z" transform="translate(-675.8 -253)"/><path class="cls-3" d="M769.14,295.61a4.37,4.37,0,0,0-.37-.81l-.5-.94.52-.27.48.92a4.7,4.7,0,0,1,.42.9Z" transform="translate(-675.8 -253)"/><path class="cls-3" d="M769.16,301c-.5-.55-1-1.07-1.58-1.57L768,299a22.52,22.52,0,0,1,1.63,1.61Z" transform="translate(-675.8 -253)"/><path class="cls-3" d="M770.61,307.74c-.53-.6-1.08-1.19-1.65-1.74l.41-.42c.58.57,1.14,1.17,1.67,1.78Z" transform="translate(-675.8 -253)"/><path class="cls-3" d="M773.48,313.32l-.51-.26a4.76,4.76,0,0,1,1.14-1.42l.37.44A4.3,4.3,0,0,0,773.48,313.32Z" transform="translate(-675.8 -253)"/><path class="cls-3" d="M772.66,317.58a6.39,6.39,0,0,1-1.81-1.08l.38-.44a5.81,5.81,0,0,0,1.64,1Z" transform="translate(-675.8 -253)"/><path class="cls-3" d="M777.18,316.28l-.3-.49A7.63,7.63,0,0,0,778,315l.38.44A8,8,0,0,1,777.18,316.28Z" transform="translate(-675.8 -253)"/><path class="cls-3" d="M767.83,311.12a.86.86,0,0,1-.4-.15l-1.78-1.09.3-.5,1.78,1.09a.48.48,0,0,0,.15.07Z" transform="translate(-675.8 -253)"/><path class="cls-3" d="M750.38,339.82h-19.7V313.47h19.7Zm-19.12-.58H749.8V314.05H731.26Z" transform="translate(-675.8 -253)"/><polygon class="cls-3" points="72.62 84.01 72.04 84.01 72.04 62.9 57.2 62.9 57.2 62.32 72.62 62.32 72.62 84.01"/><polygon class="cls-3" points="55.17 86.94 50.43 86.94 54.89 67.36 55.45 67.49 51.15 86.36 55.17 86.36 55.17 86.94"/><path class="cls-4" d="M735.58,326a1.92,1.92,0,0,1-.43-.76c-.28-1.07.77-2.18.42-3.22a5.08,5.08,0,0,0-.51-.87,2.78,2.78,0,0,1-.13-2.51,1.62,1.62,0,0,1,.8-.85,2.28,2.28,0,0,1,.9-.12,8.65,8.65,0,0,1,1.9.14,1.71,1.71,0,0,1,1.43,1.11,1.23,1.23,0,0,0,.08.33c.12.27.44.36.7.47a2.59,2.59,0,0,1,1.46,1.41,2.14,2.14,0,0,1-.21,2,4.39,4.39,0,0,0-.47.66,2.21,2.21,0,0,0,.1,1.36,1.51,1.51,0,0,1-.08,1.33c-.37.49-1,.36-1.57.45s-.79.26-1.21.32A3.63,3.63,0,0,1,735.58,326Z" transform="translate(-675.8 -253)"/><path class="cls-3" d="M742.53,337.31a8,8,0,0,1-2.64-.45,8.28,8.28,0,0,1-4.95-5.11h0a5,5,0,0,1,.86-4.57,8.68,8.68,0,0,1,1.45-1.26A5.39,5.39,0,0,0,739,324.2a5.23,5.23,0,0,0,.4-1.52,7.41,7.41,0,0,1,.31-1.36,3.56,3.56,0,0,1,2.24-2.06,2.92,2.92,0,0,1,2.53.31,6.81,6.81,0,0,1,1.57,6.86,5.19,5.19,0,0,1-1,1.11,3.64,3.64,0,0,0-1,1.28c-.36,1,.26,2,.92,3.07s1.43,2.3,1,3.55a2.48,2.48,0,0,1-1.33,1.46A5,5,0,0,1,742.53,337.31Zm-7-5.72a7.72,7.72,0,0,0,4.6,4.72,6.21,6.21,0,0,0,4.29.07,2,2,0,0,0,1-1.12c.33-1-.29-2-.95-3.06s-1.43-2.31-1-3.57a4.11,4.11,0,0,1,1.16-1.51,4.94,4.94,0,0,0,.87-1,4.52,4.52,0,0,0,.07-3.38,4.57,4.57,0,0,0-1.47-2.71,2.31,2.31,0,0,0-2-.24,2.93,2.93,0,0,0-1.87,1.71,6.17,6.17,0,0,0-.29,1.25,6,6,0,0,1-.45,1.69,5.81,5.81,0,0,1-1.89,1.93,8.39,8.39,0,0,0-1.34,1.17,4.41,4.41,0,0,0-.76,4Z" transform="translate(-675.8 -253)"/><path class="cls-7" d="M782.3,399c-1.59,4.51-4.82,8.2-7.78,12s-5.8,7.88-6.37,12.62c-1.14,9.64,7.24,17.8,8.92,27.36,1.53,8.71-2.64,17.29-4,26a42.16,42.16,0,0,0,4.11,25.72,14.62,14.62,0,0,0,4.05,5.27,13.05,13.05,0,0,0,6.13,2.18,24.28,24.28,0,0,0,12.1-1.57c8-3.26,13.89-10.91,15.85-19.34s.27-17.51-3.79-25.16c-2.71-5.12-6.41-9.65-9.15-14.75a45.56,45.56,0,0,1-4.76-28.92c.77-4.56,2.24-9.07,2-13.68-.28-5-2.58-9.63-5.06-14-1.66-2.91-6.55-10.95-10.67-7.47C780.79,387.86,783.59,395.4,782.3,399Z" transform="translate(-675.8 -253)"/><path class="cls-7" d="M779.21,498.74c-5.22-7.3-9.86-14.53-9.38-22.63a37.33,37.33,0,0,1,2.39-9.74c1.23-3.59,2.4-7,2.34-10.6-.08-5-2.43-9.34-4.92-14-2.13-4-4.34-8.06-5-12.55-1.07-7.64,2.54-16.05,9.91-23.06.64-.61,1.3-1.21,2-1.82,3.45-3.13,7-6.37,7.73-10.76l1.14.19c-.79,4.78-4.5,8.16-8.09,11.43-.65.6-1.31,1.2-1.94,1.8-7.1,6.75-10.58,14.79-9.56,22.05.6,4.29,2.76,8.3,4.84,12.17,2.44,4.55,5,9.26,5.06,14.5.06,3.81-1.19,7.47-2.4,11a36.28,36.28,0,0,0-2.33,9.43c-.46,7.72,4.07,14.76,9.16,21.89Z" transform="translate(-675.8 -253)"/><path class="cls-8" d="M805.55,347.83s-1.73-57.53-5.35-84.18c0,0,35.91,45.35,27.93,84Z" transform="translate(-675.8 -253)"/><path class="cls-8" d="M804.16,400.29s-.34,73.83-4,100.48c0,0,34.17-49.83,26.19-88.46Z" transform="translate(-675.8 -253)"/><path class="cls-5" d="M854,372.86c-.88-3.34-10.39-11.6-26.35-10.81,3.66-9.26,2.79-27.14,2.79-27.14-12.75-7.39-30.27,0-30.27,0l6.51,25.74s-4.07,10.55-2.69,28.27h0l-3.81,32s19.56,6.76,29.13-1L825,400.29c11.11,2.68,25.2,1,27.09-10.69C853.62,380.13,855.44,378.17,854,372.86Z" transform="translate(-675.8 -253)"/><path class="cls-8" d="M933.5,569.56l-9,7.41a1,1,0,0,0,.77,1.71h8.47a2.56,2.56,0,0,0,2.6-3.06s.4-2.27.65-6.06Z" transform="translate(-675.8 -253)"/><path class="cls-8" d="M797.7,568.31l-9,7.42a1,1,0,0,0,.77,1.7h8.47a2.54,2.54,0,0,0,2.6-3,59,59,0,0,0,.65-6.07Z" transform="translate(-675.8 -253)"/><path class="cls-2" d="M937,569.56h-3.47c-2.65-17-18.56-59.31-32.4-96.34-2.26-6-4.46-11.89-6.53-17.5-6.93-18.7-12.51-34.36-14.32-42.13a.57.57,0,0,0,0,.14c0,.06,0,.15,0,.24V414c0,.05,0,.12,0,.19a1.83,1.83,0,0,1,0,.21c-.4,4.28-2.51,24.63-11.72,51.34-.15.42-.29.84-.44,1.27s-.34,1-.52,1.47c-.26.73-.54,1.48-.81,2.22l-.42,1.13-.42,1.13h0c-1.26,3.31-2.63,6.71-4.14,10.19-2.11,4.87-4.48,9.9-7.15,15.05a251.64,251.64,0,0,1-24.48,38.25q-5.12,6.62-11,13.29c-5.46,6.19-11.41,12.39-17.93,18.56H797.7S818.58,498.05,838.41,433q2.45-8,4.84-15.84c2.35-7.67,4.66-15.18,6.88-22.4q.79-2.53,1.56-5s2.43-9.87,2.34-16.86c0,0,28.71-13.19,52,12.1a72.87,72.87,0,0,1,10.54,15.12,122.51,122.51,0,0,1,9.32,23.59c5,17.31,8.08,36.55,9.88,55.23h0c.56,5.75,1,11.44,1.34,17A594.46,594.46,0,0,1,937,569.56Z" transform="translate(-675.8 -253)"/><path class="cls-8" d="M808.61,379.85c0-4.47-4.33-7.87-4.33-7.87-.11,1.07-.11.64-.18,1.63-4.59.07-12.54-.71-12.54-.71l-.2,8.43,12.44,4.93c.11,1.74.21,2.66.21,2.66C807.58,386.25,808.61,383.86,808.61,379.85Z" transform="translate(-675.8 -253)"/><path class="cls-8" d="M795.69,257.19a3.85,3.85,0,0,1-.15-3,2.46,2.46,0,0,1,2.63-1.15,3.68,3.68,0,0,1,2.37,1.82,7.53,7.53,0,0,1,.87,2.94,17,17,0,0,1,0,4.33c-.35,2.75-.86,4.12-2.68,1.3A29.85,29.85,0,0,1,795.69,257.19Z" transform="translate(-675.8 -253)"/><path class="cls-8" d="M800,505.06a3.86,3.86,0,0,1-1.82,2.37,2.45,2.45,0,0,1-2.75-.83,3.67,3.67,0,0,1-.62-2.92,7.68,7.68,0,0,1,1.23-2.81,17.34,17.34,0,0,1,2.81-3.29c2.06-1.86,3.34-2.58,2.88.75A29.6,29.6,0,0,1,800,505.06Z" transform="translate(-675.8 -253)"/><path class="cls-9" d="M818.3,423.61s7.9-11.1,6.7-23.32L829.33,420A17,17,0,0,1,818.3,423.61Z" transform="translate(-675.8 -253)"/><polygon class="cls-10" points="125.78 132.38 118.51 129.5 122.13 120.41 125.78 132.38"/><path class="cls-8" d="M783.67,389.7c-1.72-.31-1.06-1.64-.36-2.57l-.23,0c-3.74.65-4.15-.5-6.59-3.41s-4.8-7.38-1.54-11.78c2.21-3,5.11-4.33,6.39-4.28.6,0,1.24.14,1.91.22-.78-1.05-1.07-2.13-.34-2.3a5.66,5.66,0,0,1,3.52.86s1.56,1.27,1.74,2.3c6.62-1.58,10.84,2.77,10.83,8.63,0,7.37-5.56,10.5-11,8.65C787.69,387.53,785.66,390.06,783.67,389.7Z" transform="translate(-675.8 -253)"/><path class="cls-3" d="M785.14,381.9c.65-.06-.8-.26-.84-.66s1.36-.86.71-.8-1.15.43-1.11.84S784.49,382,785.14,381.9Z" transform="translate(-675.8 -253)"/><path class="cls-3" d="M785.13,373c.66-.06-.71-.27-.75-.68s1.27-.85.62-.79-1.15.44-1.11.84S784.48,373.08,785.13,373Z" transform="translate(-675.8 -253)"/><path class="cls-3" d="M782.38,374.87s-2.37-2.64.51-3.95A4.09,4.09,0,0,0,782.38,374.87Z" transform="translate(-675.8 -253)"/><path class="cls-3" d="M782.05,378.93s-2.29,2.73.64,3.93A4.07,4.07,0,0,1,782.05,378.93Z" transform="translate(-675.8 -253)"/><path class="cls-7" d="M783.31,387.13s-1-4.85-10.78-9.86c0,0-1.46-.9-1.83,3.59S775.41,391.47,783.31,387.13Z" transform="translate(-675.8 -253)"/><path class="cls-7" d="M775,378.35a15.56,15.56,0,0,0,8.3-10.43,16.44,16.44,0,0,0-8-.77c-5,1-6.43,6.26-3.69,10.84C771.61,378,774.38,378.65,775,378.35Z" transform="translate(-675.8 -253)"/><path class="cls-3" d="M790.56,376.94a1.44,1.44,0,0,1-.5,1.14l-.12-.14c.8-.69.28-1.84.15-2.11l-1.73.34s-3.44.5-5.53-1.22l.12-.15c2,1.67,5.34,1.19,5.38,1.19l1.85-.37,0,.05A3,3,0,0,1,790.56,376.94Z" transform="translate(-675.8 -253)"/><path class="cls-11" d="M792.47,380.59s1.7-4.31-.34-7.69C792.13,372.9,801.36,377.1,792.47,380.59Z" transform="translate(-675.8 -253)"/><path class="cls-12" d="M880.24,413.59c-.25,2.48-1.57,25.5-14.41,59.4h0l-.05.09C877,436.21,869.1,403,869.1,403,872.41,409.48,878.87,412.93,880.24,413.59Z" transform="translate(-675.8 -253)"/><path class="cls-9" d="M829.69,383.81s7.49,2.22,1.21,13.07C830.9,396.88,842.29,388.92,829.69,383.81Z" transform="translate(-675.8 -253)"/><path class="cls-9" d="M830.66,377s6.34-5.83-.65-12.2C830,364.82,841.49,372.65,830.66,377Z" transform="translate(-675.8 -253)"/><path class="cls-4" d="M907.22,464.45a9.33,9.33,0,0,1-6.13,8.77c-2.26-6-4.46-11.89-6.53-17.5a9.15,9.15,0,0,1,3.32-.61A9.34,9.34,0,0,1,907.22,464.45Z" transform="translate(-675.8 -253)"/><path class="cls-4" d="M830.06,536.48q-5.12,6.62-11,13.29a9.35,9.35,0,0,1,8.28-13.69A9.22,9.22,0,0,1,830.06,536.48Z" transform="translate(-675.8 -253)"/><path class="cls-4" d="M916.58,400.08a9.22,9.22,0,0,1-4,.91A9.33,9.33,0,0,1,906,385,72.87,72.87,0,0,1,916.58,400.08Z" transform="translate(-675.8 -253)"/><path class="cls-4" d="M861.69,483.18c-2.11,4.87-4.48,9.9-7.15,15.05h-.24a9.34,9.34,0,1,1,7.39-15.06Z" transform="translate(-675.8 -253)"/><path class="cls-4" d="M937.12,495.92a9.34,9.34,0,1,1-4.46-17.55,9.17,9.17,0,0,1,3.12.53h0C936.34,484.66,936.78,490.35,937.12,495.92Z" transform="translate(-675.8 -253)"/><path class="cls-4" d="M854.3,426.34A9.34,9.34,0,0,1,838.41,433q2.45-8,4.84-15.84A8.88,8.88,0,0,1,845,417,9.34,9.34,0,0,1,854.3,426.34Z" transform="translate(-675.8 -253)"/><path class="cls-2" d="M1035.16,448.88a50.65,50.65,0,0,1-13-1.72,57.77,57.77,0,0,0-4.11,6.66c-2.24,4.05-4.56,8.24-8.33,11-.7.51-1.45,1-2.17,1.42a16.67,16.67,0,0,0-3.52,2.61,17,17,0,0,0-3,5.22l-1.57,3.75a9.57,9.57,0,0,0,2,1.52c2.51,1.48,4.69,1.13,7.28-.11,3.29-1.57,3.17-4.59,5.61-6.39a5.87,5.87,0,0,1,2.55-.6c2.53-.45,4.23-2.9,5-5.35s.93-5.08,1.9-7.46c1.91-4.65,6.58-7.53,11.17-9.58l2.37-1Q1036.26,448.88,1035.16,448.88Z" transform="translate(-675.8 -253)"/><path class="cls-2" d="M1045.47,434.46a38.31,38.31,0,0,1-7.35,3.76c-1.18.45-2.41.85-3.59,1.23a30.54,30.54,0,0,0-8.24,3.61,17.43,17.43,0,0,0-3.31,3.11,48.11,48.11,0,0,0,17.38,1.23,20,20,0,0,0,1.94-1.17,10.45,10.45,0,0,0,4.62-6.46A6.57,6.57,0,0,0,1045.47,434.46Z" transform="translate(-675.8 -253)"/><path class="cls-2" d="M1043.48,433.09a8.91,8.91,0,0,0-4.75,0c-8.55,1.68-17.15,5.26-22.56,12.1a67.49,67.49,0,0,0-4.28,6.54,36.89,36.89,0,0,0,1.37,7.77,60.15,60.15,0,0,0,3.81-6.27c2.29-4.12,4.65-8.39,8.56-11.15a31.44,31.44,0,0,1,8.54-3.76c1.17-.38,2.38-.77,3.54-1.21a37.47,37.47,0,0,0,6.86-3.48A4.52,4.52,0,0,0,1043.48,433.09Z" transform="translate(-675.8 -253)"/><path class="cls-2" d="M1010.85,453.41a21.31,21.31,0,0,1-5.38,6c-1.81,1.28-3.92,2.12-5.6,3.57a10.15,10.15,0,0,0-1.2,13.89l1.36-3.23a13.56,13.56,0,0,1,6.94-8.38c.7-.43,1.43-.88,2.1-1.37a18.13,18.13,0,0,0,3.32-3.23A37.23,37.23,0,0,1,1010.85,453.41Z" transform="translate(-675.8 -253)"/><path class="cls-2" d="M1001.05,438.87a26.81,26.81,0,0,0,.41-5.46c-.25-3.25-2.34-4.7-4.66-4.67a32.16,32.16,0,0,1-1.68,8.64,23.86,23.86,0,0,1-2.19,5.23A30.05,30.05,0,0,0,1001.05,438.87Z" transform="translate(-675.8 -253)"/><path class="cls-2" d="M991.88,444.12a24.69,24.69,0,0,1-2.31,2.37c-.53.49-1.08,1-1.58,1.53-3.22,3.41-5.16,8.33-5.75,14.62a23.06,23.06,0,0,0,.43,8.17c.22.87.53,1.75.83,2.6.16.44.32.89.46,1.35,2.11-1.23,3-4.1,3.4-6.63.66-4.37,1-9.26,4.27-12.23,2.14-1.93,5.22-2.69,7.07-4.9,2.2-2.64,1.94-6.25,2.08-9.46,0-.38.05-.77.09-1.15A34.75,34.75,0,0,1,991.88,444.12Z" transform="translate(-675.8 -253)"/><path class="cls-2" d="M981.55,471.11a24.4,24.4,0,0,1-.47-8.58,36.37,36.37,0,0,1,.59-4c0-.35.84-7.67-.83-12a18.9,18.9,0,0,0-1.8,2,23.69,23.69,0,0,0-3.77,8.59c-1.42,5.45-1.86,11.95,2,16,1.43,1.53,3.6,2.58,5.61,2.05q-.23-.69-.48-1.41C982.1,472.92,981.78,472,981.55,471.11Z" transform="translate(-675.8 -253)"/><path class="cls-2" d="M990.92,432.74c-.9,1.93-1.37,4.05-2.4,5.91-1.59,2.86-4.33,4.82-6.78,7a22.6,22.6,0,0,1,1.32,8.13,20.21,20.21,0,0,1,4.09-6.59c.52-.55,1.08-1.08,1.63-1.58a21.79,21.79,0,0,0,2.32-2.4A18.54,18.54,0,0,0,994,437a31,31,0,0,0,1.63-8.15A6.93,6.93,0,0,0,990.92,432.74Z" transform="translate(-675.8 -253)"/><path class="cls-3" d="M991.72,502l-.57-.07a58.19,58.19,0,0,1,8.91-24l.49.32A57.49,57.49,0,0,0,991.72,502Z" transform="translate(-675.8 -253)"/><path class="cls-3" d="M987.07,501.92a82.92,82.92,0,0,1-6-27.61l.57,0a82.53,82.53,0,0,0,6,27.42Z" transform="translate(-675.8 -253)"/><path class="cls-3" d="M1025.14,483.62a3,3,0,0,0-2.19-1.42,6.66,6.66,0,0,0-3.54.22,13.31,13.31,0,0,0-2.42,1.2c-.38.23-.76.45-1.14.65a18.27,18.27,0,0,1-3.94,1.43,13.25,13.25,0,0,1-3.58.48,17.56,17.56,0,0,1-3.4-.59c-1.84-.45-3.75-.91-5.59-.32a7.25,7.25,0,0,0-2.54,1.48,13,13,0,0,0-2.14,2.3,7.69,7.69,0,0,0-1.37,3.75c-.08,1.3,1,2,1.9,2.5l.1.05a12.73,12.73,0,0,0,2.2,1.06,13.21,13.21,0,0,0,6.52.69,24.82,24.82,0,0,0,2.45-.54l.91-.22c1.55-.37,3.16-.64,4.72-.89,1.27-.21,2.58-.43,3.86-.7a4.12,4.12,0,0,0,2.68-1.49l4.33-4.47a9.35,9.35,0,0,0,2.17-3A2.79,2.79,0,0,0,1025.14,483.62Zm-5.55-.65a6.09,6.09,0,0,1,3.25-.2,1.27,1.27,0,0,1,.24.07,18.19,18.19,0,0,1-7.83,5.58,14.75,14.75,0,0,0,1-1.43,4.88,4.88,0,0,0,.71-2.63h0l.42-.24A12.43,12.43,0,0,1,1019.59,483Zm-24.46,6.42a12.19,12.19,0,0,1,2-2.2,7,7,0,0,1,2.34-1.37c1.7-.54,3.44-.12,5.29.33a18.17,18.17,0,0,0,3.51.61,13.44,13.44,0,0,0,3.74-.5,18.23,18.23,0,0,0,4.07-1.48l.2-.11a4.5,4.5,0,0,1-.63,2,14.8,14.8,0,0,1-1.46,2.09,13.92,13.92,0,0,1-5.12.86c-.62,0-1.25-.14-1.86-.24l-1.07-.16c-.81-.1-1.61-.19-2.41-.24a9,9,0,0,0-1.37,0,12.17,12.17,0,0,0-6.38,1.65,10.86,10.86,0,0,0-2.08,1.62A7.4,7.4,0,0,1,995.13,489.39Zm12.1,6.39-.91.22c-.79.2-1.6.41-2.4.53a12.7,12.7,0,0,1-8.33-1.67l-.1-.06c-.75-.45-1.46-.88-1.6-1.6a8.89,8.89,0,0,1,2.42-2.08,12.41,12.41,0,0,1,7.44-1.53,11.92,11.92,0,0,1,8.34,5.27H1012C1010.43,495.13,1008.81,495.4,1007.23,495.78Zm15.31-7.39-4.33,4.47a3.53,3.53,0,0,1-2.38,1.32c-1,.22-2.09.4-3.13.58a12.29,12.29,0,0,0-5.46-4.76,17.94,17.94,0,0,0,1.83.22,15.51,15.51,0,0,0,6.3-1.23,18.63,18.63,0,0,0,8.29-6,1.94,1.94,0,0,1,1,.85,2.21,2.21,0,0,1,0,1.73A8.93,8.93,0,0,1,1022.54,488.39Z" transform="translate(-675.8 -253)"/><path class="cls-3" d="M982.73,484.92c0-.21-.07-.4-.1-.56a5.59,5.59,0,0,0-1.54-3.45,5.93,5.93,0,0,0-2-1,12.57,12.57,0,0,1-1.2-.49,9.55,9.55,0,0,1-2.14-1.76A11.43,11.43,0,0,0,973.9,476c-2.1-1.37-4.66-1.26-7.14-1.15a28.67,28.67,0,0,1-3.34,0c-.67,0-1.36-.16-2-.27a11,11,0,0,0-4.94,0,10.41,10.41,0,0,0-3.34,2,7.93,7.93,0,0,0-2.92,3.62l-.11,0,0,.19a3.27,3.27,0,0,0,0,1.25,4.39,4.39,0,0,0,1.5,2.48,8.18,8.18,0,0,0,7.17,1.9c.41-.09.83-.22,1.24-.34a6,6,0,0,1,2.86-.42,6.35,6.35,0,0,1,2.76,1.72l3.47,3.12c1.26,1.13,2.74,2.32,4.44,2.11.47-.06.88-.15,1.27-.23a4.36,4.36,0,0,1,2.63,0,7.9,7.9,0,0,1,1,.41,5,5,0,0,0,2.13.65,2.57,2.57,0,0,0,.84-.15C984,492.06,983.17,487.42,982.73,484.92Zm-15.94-9.46c2.49-.11,4.85-.22,6.8,1.05a11.56,11.56,0,0,1,1.75,1.54,10.26,10.26,0,0,0,2.28,1.86,11.89,11.89,0,0,0,1.28.53,5.41,5.41,0,0,1,1.81.91,5.12,5.12,0,0,1,1.35,3.1c0,.17.06.36.09.57.09.5.2,1.13.29,1.8-.26-.18-.56-.34-.85-.5l-.45-.24-2.91-1.77a15,15,0,0,0-3.4-1.69,8.61,8.61,0,0,0-1.22-.28h0c-.52-.09-1.05-.16-1.57-.22s-1.22-.13-1.81-.25a20.39,20.39,0,0,1-4.15-1.43,5.85,5.85,0,0,0-.81-2.8,14.54,14.54,0,0,0-1.73-2.15h0A27.44,27.44,0,0,0,966.79,475.46Zm-13.32,1.63a9.79,9.79,0,0,1,3.15-1.92,10.15,10.15,0,0,1,4.68,0l1.14.16a2.5,2.5,0,0,1,.66.51,14.9,14.9,0,0,1,1.67,2.06,5.34,5.34,0,0,1,.7,2.24l-.07,0a17.19,17.19,0,0,0-6.63-1.93,16.91,16.91,0,0,0-5.2,1l-2.69.82A8.2,8.2,0,0,1,953.47,477.09Zm6.37,8.12c-.4.12-.8.25-1.2.34a7.58,7.58,0,0,1-6.65-1.77,3.82,3.82,0,0,1-1.32-2.15,2.84,2.84,0,0,1,0-.92l3.06-.93a12.41,12.41,0,0,1,11.43.89,23.28,23.28,0,0,0,4.94,1.77l.62.1a10.69,10.69,0,0,0-4.34,1.95,4.72,4.72,0,0,0-1.23,1.41,5.14,5.14,0,0,0-2.19-1.12A6.58,6.58,0,0,0,959.84,485.21Zm21.35,7.21a3.31,3.31,0,0,1-2.52-.48,8,8,0,0,0-1-.44,4,4,0,0,0-1.34-.23,6.93,6.93,0,0,0-1.59.23c-.38.08-.78.17-1.22.22-1.47.18-2.82-.92-4-2L966,486.64l-.41-.37a3.82,3.82,0,0,1,1.14-1.32,10.36,10.36,0,0,1,6.78-2,10.88,10.88,0,0,1,1.13.26,15.6,15.6,0,0,1,3.27,1.63l2.91,1.77c.14.09.31.17.48.27a3.2,3.2,0,0,1,1.23.9C982.74,489.76,982.62,491.92,981.19,492.42Z" transform="translate(-675.8 -253)"/><rect class="cls-3" x="286.01" y="253.29" width="47.51" height="0.58"/><rect class="cls-3" x="300.41" y="257.34" width="32.55" height="0.58"/><path class="cls-3" d="M961,501.62l1.5,13.78.06.59,2.38,21.88.06.58.42,3.82.06.61,1.06,9.72.06.58.25,2.26h37.48l2.13-19.63.06-.57.73-6.65.06-.59,1.26-11.61.07-.6,1.54-14.17Zm47.08,14-.07.58-1.27,11.69-.07.59-.73,6.71-.06.57-2.07,19.1H967.36l-.2-1.8-.06-.58-1-9.38-.07-.65-.45-4.13-.06-.57-2.38-21.88-.07-.58-1.42-13.09h47.9Z" transform="translate(-675.8 -253)"/><path class="cls-1" d="M1010.63,469.55a.66.66,0,0,1-.66.65.65.65,0,0,1,0-1.3A.66.66,0,0,1,1010.63,469.55Z" transform="translate(-675.8 -253)"/><path class="cls-1" d="M1042.05,442.38a1.85,1.85,0,1,1-1.84-1.84A1.84,1.84,0,0,1,1042.05,442.38Z" transform="translate(-675.8 -253)"/><path class="cls-1" d="M979.39,462.77a1.85,1.85,0,1,1-1.84-1.84A1.84,1.84,0,0,1,979.39,462.77Z" transform="translate(-675.8 -253)"/><path class="cls-1" d="M1010.63,459.53a.66.66,0,0,1-.66.65.65.65,0,1,1,0-1.3A.66.66,0,0,1,1010.63,459.53Z" transform="translate(-675.8 -253)"/><path class="cls-1" d="M1000.17,432.13a.65.65,0,1,1-.65-.65A.65.65,0,0,1,1000.17,432.13Z" transform="translate(-675.8 -253)"/></svg>