<svg id="Layer_1" data-name="Layer 1" xmlns="http://www.w3.org/2000/svg" viewBox="0 0 1023.19 1008.7"><defs><style>.cls-1{fill:#fae4ea;}.cls-2{fill:#edc9d5;}.cls-3{fill:#756880;}.cls-4{fill:#c68630;}.cls-5{fill:#d69939;}.cls-6{fill:#f5b54e;}.cls-7{fill:#391715;}.cls-8{fill:#e74854;}.cls-9{fill:#a14b28;}.cls-10{fill:#1a1a1a;}.cls-11{fill:#9f4b28;}.cls-12{fill:#913e25;}.cls-13{fill:#5f7ab1;}.cls-14{fill:#913c1d;}.cls-15{fill:#fff;}.cls-16{fill:#445c94;}</style></defs><path class="cls-1" d="M314.78,1081.41S228,1019.93,191.49,945.23C140.42,840.7,140.73,703.6,200.31,614.1c48-72.07,148.78-116.39,105.82-282.17C260.85,157.16,426.41,94.51,506.05,96.17s435.15-2.25,535.21,160.68c305,496.69,2.7,820.75,2.7,820.75Z" transform="translate(-154.33 -96.14)"/><path class="cls-2" d="M1056.36,373.73l.17-3.34-2.81,0c-13,.16-67,.77-68.55,0-1.84-.91-1.84-18.74-.92-20.57.79-1.58,54.19-.43,68.68-.09l3.6.09s0-4.13-.92-6c-.18-.36-6.06-.56-15.43-.66.51-3.08,3.82-24.49-2.1-27l13.47,0-.33-5.33s-12.25,0-13.56,0c-9.54.12-49.08.56-50.26,0-1.34-.68-1.34-15.43-.67-16.77.58-1.16,39.73-.32,50.35-.07,1.66,0,14.14.07,14.14.07s0-3.64-.67-5c-.49-1-71.1-.41-104.06.3.75-5,1-6,.35-6.57-3.45-3.46-79.39-1.15-79.39-1.15l-4.6,8.05-69,1.15s0-6.9-1.15-8.05-59.83,0-64.43,1.15c-4.07,1-18.92,73-22.32,89.74H662.64V391H717c.35,4.35,1.19,9.69,3.19,10.36,3.46,1.15,54.08,0,54.08,0s-1.15,46,1.15,47.17,15,0,15,0V391H994.27c.36,4.35,1.2,9.69,3.2,10.36,3.45,1.15,54.08,0,54.08,0s-1.15,46,1.15,47.17,15,0,15,0V391h58.68V373.73ZM941.5,317.32c19.7-.48,42-.79,42.54.22.93,1.82,1.11,21.95-.71,22.88-1.1.56-27,.68-47.25.68-9.2,0-17.24,0-21.3,0l.58-23c5.16-.17,15.24-.49,26.14-.75M883.11,283.7c.69-2.15,4-1.24,3.4.94q-12.54,42.09-25.76,84c-.77,2.41-4.54,1.39-3.8-1q12.69-42.06,26.16-83.88m-14.57,11.53-22.75,73.48c-.94,2.45-10.49,1.46-9.63-1.11l23.19-73.35c.64-2.3,9.77-1.33,9.19,1M815,367.63c4.2-24,10.48-48.74,15.69-72.53.53-2.43,8.57-.41,8.05,2-5,23.81-9.43,47.91-15.47,71.5-.61,2.36-8.68,1.33-8.27-1m-2.59-58.71c-3.76,19.76-7.38,39.55-11.36,59.26-.51,2.54-8.07,1.45-7.61-1.07,3.62-19.77,7.61-39.49,11.45-59.23.48-2.48,8-1.42,7.52,1M773.09,365.2c2.73-11.72,15.84-58.55,19.16-70.1,1-3.64,6.31-3,5.75,1-1.67,11.87-5,23.69-7.85,35.31s-5.65,23.53-9.7,34.83c-.8,2.26-7.92,1.38-7.36-1m-2.58-72.32c-4.48,25.22-9.37,50.52-15.79,75.32-.63,2.42-8,1.39-7.46-1,5.27-25.13,10.8-50.16,15.43-75.42.49-2.68,8.29-1.53,7.82,1.12M725.62,365.2c5.33-24.5,10.54-49,16.17-73.47.62-2.69,9.38-1.54,8.81,1.14-5.19,24.53-10.79,49-16.27,73.43-.59,2.63-9.28,1.51-8.71-1.1" transform="translate(-154.33 -96.14)"/><path class="cls-2" d="M562.58,240.83c0-2.45,3.81-2.44,3.8,0L566.16,555h3.7l-.8-319.43-243.91,2.89L327,554.82l235.39.17Z" transform="translate(-154.33 -96.14)"/><rect class="cls-1" x="183.97" y="153.62" width="213.3" height="293.92"/><polygon class="cls-2" points="217.04 194.11 216.89 410.33 365.06 410.43 365.22 184.34 217.05 184.23 217.04 194.11"/><path class="cls-3" d="M1044.54,1076c-15.52-2.34-45.87-.68-430.16-1.49-234.59-.5-309.11,3.9-320.28,3.79-5.06,0,26.79,29.93,147.63,26.18,55.71-1.73,138.71-18.56,190.17-15,134.89,9.37,345.66,16.86,353.16-4.68C985.06,1084.85,1089,1083.68,1044.54,1076Z" transform="translate(-154.33 -96.14)"/><path class="cls-4" d="M397.67,1009l-8.61,68.64a5.44,5.44,0,0,0,5.4,6.12h8.18a5.43,5.43,0,0,0,4.71-2.72l43.52-75.36Z" transform="translate(-154.33 -96.14)"/><path class="cls-4" d="M928.35,1006.35,937,1075a5.45,5.45,0,0,1-5.4,6.12h-8.18a5.46,5.46,0,0,1-4.72-2.72L875.16,1003Z" transform="translate(-154.33 -96.14)"/><path class="cls-5" d="M970.86,1006.35l8.62,68.64a5.44,5.44,0,0,1-5.4,6.12H965.9a5.46,5.46,0,0,1-4.72-2.72L917.67,1003Z" transform="translate(-154.33 -96.14)"/><path class="cls-5" d="M359.49,1009l-8.61,68.64a5.44,5.44,0,0,0,5.4,6.12h8.17a5.43,5.43,0,0,0,4.72-2.72l43.51-75.36Z" transform="translate(-154.33 -96.14)"/><path class="cls-6" d="M1003.61,1015.11c-7.93,1.29-51.31,2.68-112.64,3.9l-9.83.2c-11.32.21-23.18.43-35.5.63-1.84,0-3.69.07-5.54.09-31.25.51-65.21,1-100.31,1.37-23,.24-46.56.47-70.12.67-169,1.35-339.85.78-345.75-4.21-11.49-9.72-125.51-185.61-104.3-251s75.13-38.89,75.13-38.89-32.7-80.43,2.65-94.57,271.38-12,289.91-10.61c23.87,1.77,41.5,1.77,53.92,7.07,0,0,18.06-7.7,82.48-10.74,112.15-5.3,299.93-4.73,311.72,16,18.56,32.7,8,90.15,8,90.15s58.33-8.84,68.94,47.73-76,236.87-108.72,242.18" transform="translate(-154.33 -96.14)"/><path class="cls-5" d="M1037,725.61C1003.57,742,985.37,778,972,811c-16.49,40.67-26.71,83.56-34.21,126.7-4.15,23.92-7.47,48-10.6,72-.43,3.33,4.81,3.3,5.24,0,5.46-42,11.59-84,21.68-125.14,9.45-38.51,21.76-78.26,42.62-112.27,10.73-17.48,24.53-32.75,42.66-42.71,2.63-1.45.31-5.31-2.35-4" transform="translate(-154.33 -96.14)"/><path class="cls-5" d="M1006.28,652a1,1,0,0,0-1.37.2c-29.72,40.4-33.1,113.46-33.17,143.28a.94.94,0,0,0,1,.94h0a.94.94,0,0,0,.87-.94A438.1,438.1,0,0,1,976,750.14c5.66-53.51,19.68-82.17,30.45-96.8a1,1,0,0,0-.21-1.36" transform="translate(-154.33 -96.14)"/><path class="cls-5" d="M367.32,795.5h0a.94.94,0,0,0,1.14-1c-1.14-51.79-9-105.31-33.63-138.84a1,1,0,1,0-1.57,1.15c10.77,14.63,24.79,43.3,30.45,96.8,1,9.67,2.51,32.93,2.85,41a.92.92,0,0,0,.74.86" transform="translate(-154.33 -96.14)"/><path class="cls-5" d="M937,907.65a.87.87,0,0,0-.81-1.18H518.35c-36.92,0-73.84-.12-110.75.11a.77.77,0,0,0,0,1.54c65.77.4,131.56.1,197.34.1H936.13a.88.88,0,0,0,.81-.56Z" transform="translate(-154.33 -96.14)"/><path class="cls-5" d="M611.48,809.67l-1-3.6c16.57-4.73,6.41-49-4.42-90.15-11.67-44.37-24-59.2-47.32-56.69-24.83,2.68-53.12,4.54-104.41,6.88-46.83,2.12-88.93-8.54-111.55-14.27-4.18-1.06-7.79-2-10.73-2.64-7.31-1.65-11.46-1.51-13.89.47-4.24,3.45-4.8,13.48-4.43,33.26.61,32.34,19.63,75.66,19.82,76.1l-3.42,1.51c-.05-.11-4.94-11.19-9.83-26.17-4.52-13.87-10-34-10.32-51.36-.41-21.89.31-31.76,5.81-36.24,3.47-2.83,8.42-3.18,17.09-1.23,3,.68,6.61,1.6,10.82,2.66,22.43,5.69,64.18,16.27,110.46,14.16,51.2-2.32,79.43-4.18,104.18-6.86,25.3-2.74,39.22,13.38,51.35,59.47C621.94,761.64,631.32,804,611.48,809.67Z" transform="translate(-154.33 -96.14)"/><path class="cls-5" d="M764.94,813.68c-48.1,0-87.36-.52-92.69-2.14-14.94-4.55-12-37.64-2.55-89.56,7.86-42.9,12.88-65.47,32.69-69.57,9-1.86,30.09-.65,59.32,1,30.63,1.76,68.74,3.95,107.15,3.3,70.58-1.18,98.93-4,131.93-13,11-3,18.69-2.37,23.6,1.94,8.52,7.49,6.92,24.19,3.73,47-4.36,31.15-17.52,59-17.65,59.25l-3.38-1.62c.13-.27,13-27.59,17.32-58.15,2.93-20.91,4.6-37.39-2.5-43.63-3.89-3.42-10.47-3.8-20.13-1.14-33.35,9.15-61.91,12-132.86,13.18-38.54.64-76.74-1.55-107.43-3.31-27.85-1.6-49.85-2.86-58.34-1.1-16.61,3.43-21.59,21.95-29.76,66.57-7.32,40-13,81.35,0,85.3,11.14,3.39,194.44,1.71,289.8.35l.05,3.75C956.06,812.15,847.51,813.68,764.94,813.68Z" transform="translate(-154.33 -96.14)"/><path class="cls-5" d="M358.78,811.38a1.87,1.87,0,0,1-.08-3.74c20.52-.85,296.94-1,299.73-1h0a1.88,1.88,0,0,1,0,3.75c-2.79,0-279.13.16-299.57,1Z" transform="translate(-154.33 -96.14)"/><path class="cls-5" d="M403.25,1002.67c-3.12-24.08-6.44-48.13-10.59-72-7.5-43.14-17.73-86-34.21-126.7-13.37-33-27.64-63.65-61.11-80.06-2.66-1.31-5.23,2.54-2.59,4,18.13,10,28.24,19.93,39,37.41,20.86,34,33.17,73.76,42.61,112.27,10.1,41.15,16.23,83.15,21.68,125.14C398.44,1006,403.69,1006,403.25,1002.67Z" transform="translate(-154.33 -96.14)"/><path class="cls-7" d="M961.24,847.1c-.93-11.07-3.83-21.89-7-32.61a86,86,0,0,0-2.34-8.3,61.74,61.74,0,0,1-1.13-36s2.93-1.87-6.22-10.51c-10.17,2.14-19.33,13.25-21.46,22.37C920.49,793,917,803.31,915,814.37c-2.52,14-4.89,28.81-11.58,41.6-5.51,10.52-9.51,22.2-22.59,16.69a1.74,1.74,0,0,1-.91-.86h-.27c1.14,12.93,4.85,19.49,12.37,19.08,16.27-.9,19.67,12.11,42.84,5.69,18.26-5.07,23.5-26.69,23.41-48.12.91,8.24.83,16.79-1.17,24.74s-6.11,16.16-9.28,22.14a1,1,0,0,0,1.69.88A85.08,85.08,0,0,0,958.19,878C961.39,869.16,962,856.29,961.24,847.1Z" transform="translate(-154.33 -96.14)"/><path class="cls-8" d="M948,764.43s-.28,6,2.77,5.75a11.12,11.12,0,0,0,5-1.7v-8.81Z" transform="translate(-154.33 -96.14)"/><path class="cls-7" d="M734.8,790.61s-1.9,56.71,6.79,54.44,21.52-70.21,21.52-70.21Z" transform="translate(-154.33 -96.14)"/><path class="cls-7" d="M985,716.38s7.82-15.51,19.38-14.33S1023,712.52,1028,721.14c12.72,21.8,16.74,42.79-5.72,46.26-14.24,30.85-34.32,19.49-66.54,1.08-10.9-6.22,29.25-52.1,29.25-52.1" transform="translate(-154.33 -96.14)"/><path class="cls-9" d="M909.06,796.44c-1-5.26-3.55-10.82-7-16.41-16.46-26.83-45.87-53.2-45.87-53.2,26.08-16.8,41.87-19,54.62-18,1.43.12,2.63.28,3.69.44A3.38,3.38,0,0,1,917,711c4.07,7.4,8.33,15.08,11.43,17.82a5.17,5.17,0,0,0,1.29.89c4.07,1.87,14.51,2.29,21.18,2.36,3.49,0,6,0,6,0l11.66,31.68s-28.2-1.54-38.9,6.27c-5,3.65-12.21,14.55-20.54,26.43" transform="translate(-154.33 -96.14)"/><path class="cls-10" d="M928.42,728.85a5.17,5.17,0,0,0,1.29.89c4.07,1.87,14.51,2.29,21.18,2.35l9.71,27.58s-25.77-5-32.18-30.82" transform="translate(-154.33 -96.14)"/><path class="cls-9" d="M988.78,707.39c-5.19.16-39.35-7.8-48.35,19.15-4.78,14.33,9.22,36.13,27.38,37,0,0,6.52,12.66,19.67,5.64,9.66-5.16-5.29-12.06-5.29-12.06s14.36-5.42,19.79-8.55c11.78-6.8-4.86-30.52,3.63-36.39,0,0-10-5-16.83-4.79" transform="translate(-154.33 -96.14)"/><path class="cls-9" d="M436.18,1045.74c2.86-11.59,19.32-67.12,27.38-79.55-13.92-3.71-31.53-9.31-56.86-7.94-6.11,26.9-13.77,89.3-18.47,111.12a55.65,55.65,0,0,1-3.66,11.05c-5.26,11.18-4.22,15.67,1,14.24,6.29-1.71,6.1,5.69,12.28,1.57s5.6,7.47,14.14,2.85c6.39-3.45,6.06,4.35,12.36,1.82,4.61-1.86,4.91-4.34,10-2.19,11.61,4.9,17.26-2,14.79-7.85C444.23,1079.23,433.6,1056.2,436.18,1045.74Z" transform="translate(-154.33 -96.14)"/><path class="cls-11" d="M846.79,438.69c.76-12.31-2.53-15.49-2.07-21.61.92-12.24,2.25-17.67,5-29.62,1-4.2,1.27-9.1,4.14-12.54a8.42,8.42,0,0,1,.64-.7c1.21-1.19,2.77-2.07,3.63-3.52,1.19-2,.87-4.84,2.57-6.45s3.9-1.61,5-3.86,1.59-3.19,4.06-4c2-.7,4.71.2,5.39,2.23a7.67,7.67,0,0,0,1.24,2.63,5.46,5.46,0,0,0,1.41,1.16c2.67,1.88,2.88,4.81,2.86,7.81,0,4.09-.3,8.19-.34,12.29a110.34,110.34,0,0,0,.33,11.5c.11,1.2.15,5.16,1.74,5.62s2.76-1,3.55-2.19c2.08-3.23,10-12.16,13.53-5.68.5.9-1,3-1.4,3.72-1.09,2-3.5,5.8-4.43,7.9-2.13,4.82-2.56,4.21-6.28,8.05a58.07,58.07,0,0,0-8.6,13,53.48,53.48,0,0,0-2.87,7.89Z" transform="translate(-154.33 -96.14)"/><path class="cls-11" d="M825.85,1064.21s-7.84,25.78,1.07,27.56,22.47.38,29.25,3.21,6.78-3.21,0-6.77,17.67,3.42,32.73,4.2,16.2-2.84,16.2-2.84.72-1.78-.73-1.75c0,0,5.36-1.13,4.72-3.61-.6-2.29-37.94-8.13-56.84-18.83,0,0,.72-17.93,1.42-48.5s11.16-96.33,11.16-96.33-29.1.55-44.08,3C820.75,923.59,824.43,1046.63,825.85,1064.21Z" transform="translate(-154.33 -96.14)"/><path class="cls-11" d="M861.55,431.67l14.4.57s.31,41-1.56,88.49c-.47,11.94.9,35.47,2.06,41.88,0,0-43.31,17.38-42.55,1.08,1.81-38.76,2.42-62.88,6.23-85,5.88-34.16,6.66-40,6.66-40Z" transform="translate(-154.33 -96.14)"/><path class="cls-9" d="M697.48,666.6c-1.85,4.67-28.64,78.23,31.56,124,63.52.55,97.89,6.67,102.76,30,5.39,25.84-8.71,50.45-11,102.9s35.86,38.8,42.2,4.57,38.17-71.87,44-107,5.37-60.36,5.37-60.36L917,711s-4.83-25.29-11.5-46.15S889.9,636.24,886,622a281.32,281.32,0,0,1-9.55-59.42l-16.78-11.16L833.9,563.69s-.41,36.13-6.74,67.77S788.55,659.27,762.33,662s-57,4.9-57,4.9c-2.66-.09-5.28-.2-7.85-.3Z" transform="translate(-154.33 -96.14)"/><rect class="cls-9" x="508.27" y="569.31"/><path class="cls-9" d="M916.81,1071.17c-9.3-2.59-46.63-20.24-65.07-32-11.47-7.28-41.09-58-62-97.92-1,.93-1.94,1.52-2.08,1.67-.47.46-39.5,27.22-48.87,26.44,22.72,28.45,53.32,61.08,71.09,79.2,17.11,17.45-15.09,36.39,27.82,31,6.62-.84,7.5-2,17.39.12,25.26,5.5,51.92,3.51,58.08,2.16,9.36-2,15.91,4.31,18.46-5.28C932.41,1073.58,922.39,1072.72,916.81,1071.17Z" transform="translate(-154.33 -96.14)"/><path class="cls-12" d="M761.89,754.59c.64-18.07,2-36.15,2.11-54.24.1-12.83-.46-25.61-1.2-38.39l-.47,0c-2.14.23-4.61.43-7.34.63-.12,3.32-.43,6.64-.71,9.83-.59,6.83-1.45,13.64-2.41,20.43-2,14.23-4.25,28.38-5.62,42.69-1.3,13.54-2.5,27.09-4.24,40.58-.65,5-1,9.64-1.74,14.68,7.15.41,13.77.95,20.46,1.61C760.73,779.69,761.45,767.33,761.89,754.59Z" transform="translate(-154.33 -96.14)"/><path class="cls-12" d="M886.07,722.47c-2.3,3.74-3.75,8.39-5.21,12.07-3,7.5-5.88,15.14-7.4,23.08-3.15,16.45-4.69,33.55-6.11,50.23-1.07,12.45,0,31.82,13.36,37.94,7.1,3.25,13.93,1.44,20.35-1.76,1.18-3.76,2.24-7.34,3.14-10.68-3.72.19-8.28-2.5-10.66-5.85-5.52-7.76-7-17.75-8-27-1.49-13.69-2.68-27.47-2.9-41.23a118.67,118.67,0,0,1,1.2-21.89C884.66,732.41,885.63,727.47,886.07,722.47Z" transform="translate(-154.33 -96.14)"/><path class="cls-12" d="M906.07,1083.49l-.19,0c-21.21-4.35-53.65-17.09-54-17.22a.92.92,0,0,1-.59-.9l.83-25.32a.92.92,0,0,1,1-.91,1,1,0,0,1,.91,1l-.82,24.66c4.58,1.78,33.61,12.9,53.06,16.88a.94.94,0,0,1-.19,1.86Z" transform="translate(-154.33 -96.14)"/><path class="cls-13" d="M406.7,958.25s-9.59.7-2.82-13.86c7.48-16.08-.66-15.66,8.05-26.23s18.07-31.52,41.75-104c36.7-81.23,79.37-121.92,108.65-136.36,42-20.71,100.28-12.31,100.28-12.31s2.28-4.68,6-3.44,5.24,2.71,16.43,1,12.08-1.43,12.43,3.58c1.07,15.46,5.88,55.87,31.57,124,0,0,.88,4.52-6.26,1.84s-3,4.58-6.54,4.52-6.24-3.63-6.24-3.63,24,45.23,42,71.88c26.85,39.69,18.12,42.58,18.12,42.58s15,19,19,25.93c4.27,7.32-1.07,8.73-1.53,9.2s-39.5,27.22-48.87,26.44-24.5-22.43-32-29.92-.15-7.42-4.37-10S645.09,901.11,600,859.19c-8.76,5.57-5.78,5.68-21.89,19.1-40.8,34-47,36.62-65.07,47.16-25.38,13-31.55,10.17-31.55,10.17s-8.79,36.34-17.88,30.57C463.56,966.19,421.19,957.09,406.7,958.25Z" transform="translate(-154.33 -96.14)"/><path class="cls-12" d="M904.68,1088.69l-.2,0c-.21-.05-21.07-4.52-29.32-7a.94.94,0,1,1,.53-1.8c8.18,2.42,29,6.88,29.18,6.92a.94.94,0,0,1,.72,1.12A.93.93,0,0,1,904.68,1088.69Z" transform="translate(-154.33 -96.14)"/><path class="cls-8" d="M909.47,678.5s-26.21,80.53-30.4,131,25.43,22.71,25.43,22.71-3.22,23.38-14.45,72.16c0,0-55.26,10.86-77.74-3.43,0,0,.76-61.55-7.67-66.23s-63,10.31-63,10.31,10-14.8,10.28-88.9-3.13-93.68-3.13-93.68,57.46-2.48,68.5-19.77-6.12-34.66,0-42.15,17.94-12.18,8.29-16.86-3.47-11.06,0-13-7.86-4.77-8.29-7.58,5.76-10.14,8.29-11.63,46.07-3.36,77.22,31.3c0,0-3.42,6.07-5.29,9.82s12.52,5.62,7.49,9.37-10.3,5.15-2.81,7,14.73,11.25,7.33,15S909.47,678.5,909.47,678.5Z" transform="translate(-154.33 -96.14)"/><path class="cls-12" d="M742.48,754.64c-.66-2.92-2.72-5.68-6-5.87-1.64-.1-1.95,2.06-.78,2.86.83.57,2,.8,2.71,1.43a7.8,7.8,0,0,1,1.61,2.6C740.71,757.08,742.8,756,742.48,754.64Z" transform="translate(-154.33 -96.14)"/><path class="cls-6" d="M805.85,842A1.88,1.88,0,0,1,804,840.5c-1.55-7-6.58-17.26-12-18.16a1.87,1.87,0,1,1,.61-3.69c7.86,1.3,13.39,13.6,15,21a1.89,1.89,0,0,1-1.43,2.24A1.81,1.81,0,0,1,805.85,842Z" transform="translate(-154.33 -96.14)"/><path class="cls-10" d="M983.67,734.28a1.75,1.75,0,0,1,.22,1.74l-.06.21s0,0,0,.08l0,.06c-.86,2.06-4.2,2.12-5.66.82a1.68,1.68,0,0,1-.85-.85,1.8,1.8,0,0,1,0-1.21.43.43,0,0,1,0-.12,2.15,2.15,0,0,1,2-1.81,3.73,3.73,0,0,1,4.44,1.08" transform="translate(-154.33 -96.14)"/><path class="cls-10" d="M989.53,707.4a2.59,2.59,0,0,1-1.07,3.9,2.27,2.27,0,0,1-1.43.19l-.17,0h-.05a5.24,5.24,0,0,1-2.23-1.13c-1.13-1.14-.34-2.91,1.19-3.6a3.36,3.36,0,0,1,3.76.69" transform="translate(-154.33 -96.14)"/><path class="cls-14" d="M973.12,715.23a1.23,1.23,0,0,1,.77,1.73l-1,2a1.76,1.76,0,0,1-2,.84,1.22,1.22,0,0,1-.77-1.73l1-2a1.76,1.76,0,0,1,2-.84" transform="translate(-154.33 -96.14)"/><path class="cls-7" d="M997.54,733.6c-1.49,1.47-2.73,3.12-4.31,4.53s-3.37,2.69-5,4.07c-1.49,1.25-3.6-.55-2.1-1.8,1.66-1.38,3.44-2.64,5-4.08s2.81-3.06,4.3-4.53,3.47.45,2.1,1.81" transform="translate(-154.33 -96.14)"/><path class="cls-7" d="M997,707.12a7,7,0,0,1,2.23,4c.44,1.65-2.48,2.7-2.93,1a5,5,0,0,0-1.35-2.87c-1.38-1.12.66-3.3,2-2.17" transform="translate(-154.33 -96.14)"/><path class="cls-15" d="M962.8,714.1s-2.42,9.62-2.2,12.89c-2.53-.22-7.73-2-4.84-8.32a7.48,7.48,0,0,1,7-4.57" transform="translate(-154.33 -96.14)"/><path class="cls-16" d="M481.44,937.49a1.88,1.88,0,0,1-1.18-.41c-26.62-21.38-58.69-15-59-14.91a1.88,1.88,0,0,1-.78-3.67c1.38-.29,34.1-6.86,62.14,15.66a1.87,1.87,0,0,1-1.17,3.33Z" transform="translate(-154.33 -96.14)"/><path class="cls-16" d="M707,932.26a1.88,1.88,0,0,1-.09-3.75c.1,0,10.34-.59,25.22-6.13,6.86-2.56,13.36-6.29,19.1-9.59,7.73-4.44,12.84-7.38,16.29-6.21a1.87,1.87,0,0,1-1.2,3.55c-1.85-.63-7.89,2.85-13.23,5.91-5.86,3.37-12.5,7.18-19.65,9.85-15.47,5.76-25.91,6.35-26.35,6.37Z" transform="translate(-154.33 -96.14)"/><path class="cls-6" d="M600.19,863.06a1.88,1.88,0,0,1-1.26-3.26c37.1-33.89,67.22-43.2,68.48-43.57a1.87,1.87,0,1,1,1.08,3.58,124.91,124.91,0,0,0-19.7,8.76,236.15,236.15,0,0,0-47.33,34A1.89,1.89,0,0,1,600.19,863.06Z" transform="translate(-154.33 -96.14)"/><path class="cls-16" d="M722.79,792.49l.4.13c-9.33-9.29-14.76-30.3-19.14-47.25-1-3.9-1.95-7.57-2.89-10.9a.94.94,0,0,0-1.81.51c.94,3.31,1.88,7,2.89,10.85,4.14,16,9.22,35.68,17.78,46.08A7.05,7.05,0,0,1,722.79,792.49Z" transform="translate(-154.33 -96.14)"/><path class="cls-16" d="M710,795.26a1.83,1.83,0,0,1-1.29-.52c-22.05-20.86-33.92-53.87-40-77.89a292.12,292.12,0,0,1-8-47.5,1.87,1.87,0,0,1,3.74-.24c0,.84,5.8,84.1,46.81,122.91a1.87,1.87,0,0,1-1.28,3.24Z" transform="translate(-154.33 -96.14)"/><path class="cls-16" d="M729,926.51c-16.77,0-39.05-9.72-66.23-28.89a382,382,0,0,1-36.16-29.11,1,1,0,0,1,0-1.33.94.94,0,0,1,1.32,0c.62.58,61.86,57.5,101.12,57.5h.42a.94.94,0,0,1,0,1.88Z" transform="translate(-154.33 -96.14)"/><path class="cls-12" d="M822.74,1081.37h-.06a.93.93,0,0,1-.87-1,83.27,83.27,0,0,1,3.1-16.27,637,637,0,0,1-2.59-65,.94.94,0,0,1,.94-.93h0a.94.94,0,0,1,.92,1,623,623,0,0,0,2.6,65,1,1,0,0,1,0,.35,83.34,83.34,0,0,0-3.07,16A1,1,0,0,1,822.74,1081.37Z" transform="translate(-154.33 -96.14)"/></svg>